%TF.GenerationSoftware,KiCad,Pcbnew,10.0.6-1.fc44*%
%TF.CreationDate,2026-09-24T17:14:41-04:00*%
%TF.ProjectId,8-bit cpu,382d6269-7420-4637-9075-2e6b69636164,rev?*%
%TF.SameCoordinates,Original*%
%TF.FileFunction,Paste,Top*%
%TF.FilePolarity,Positive*%
%FSLAX46Y46*%
G04 Gerber Fmt 4.6, Leading zero omitted, Abs format (unit mm)*
G04 Created by KiCad (PCBNEW 10.0.6-1.fc44) date 2026-09-24 17:14:41*
%MOMM*%
%LPD*%
G01*
G04 APERTURE LIST*
G04 Aperture macros list*
%AMRoundRect*
0 Rectangle with rounded corners*
0 $1 Rounding radius*
0 $2 $3 $4 $5 $6 $7 $8 $9 X,Y pos of 4 corners*
0 Add a 4 corners polygon primitive as box body*
4,1,4,$2,$3,$4,$5,$6,$7,$8,$9,$2,$3,0*
0 Add four circle primitives for the rounded corners*
1,1,$1+$1,$2,$3*
1,1,$1+$1,$4,$5*
1,1,$1+$1,$6,$7*
1,1,$1+$1,$8,$9*
0 Add four rect primitives between the rounded corners*
20,1,$1+$1,$2,$3,$4,$5,0*
20,1,$1+$1,$4,$5,$6,$7,0*
20,1,$1+$1,$6,$7,$8,$9,0*
20,1,$1+$1,$8,$9,$2,$3,0*%
G04 Aperture macros list end*
%ADD10RoundRect,0.225000X-0.225000X-0.250000X0.225000X-0.250000X0.225000X0.250000X-0.225000X0.250000X0*%
%ADD11RoundRect,0.150000X-0.875000X-0.150000X0.875000X-0.150000X0.875000X0.150000X-0.875000X0.150000X0*%
%ADD12RoundRect,0.150000X-0.825000X-0.150000X0.825000X-0.150000X0.825000X0.150000X-0.825000X0.150000X0*%
%ADD13RoundRect,0.200000X-0.200000X-0.275000X0.200000X-0.275000X0.200000X0.275000X-0.200000X0.275000X0*%
%ADD14RoundRect,0.175000X-0.175000X-0.425000X0.175000X-0.425000X0.175000X0.425000X-0.175000X0.425000X0*%
%ADD15RoundRect,0.190000X0.190000X0.410000X-0.190000X0.410000X-0.190000X-0.410000X0.190000X-0.410000X0*%
%ADD16RoundRect,0.200000X0.200000X0.400000X-0.200000X0.400000X-0.200000X-0.400000X0.200000X-0.400000X0*%
%ADD17RoundRect,0.175000X0.175000X0.425000X-0.175000X0.425000X-0.175000X-0.425000X0.175000X-0.425000X0*%
%ADD18RoundRect,0.190000X-0.190000X-0.410000X0.190000X-0.410000X0.190000X0.410000X-0.190000X0.410000X0*%
%ADD19RoundRect,0.200000X-0.200000X-0.400000X0.200000X-0.400000X0.200000X0.400000X-0.200000X0.400000X0*%
%ADD20O,1.100000X1.700000*%
%ADD21RoundRect,0.200000X0.275000X-0.200000X0.275000X0.200000X-0.275000X0.200000X-0.275000X-0.200000X0*%
%ADD22R,0.800000X0.500000*%
%ADD23R,0.800000X0.400000*%
%ADD24RoundRect,0.250000X-0.650000X-0.750000X0.650000X-0.750000X0.650000X0.750000X-0.650000X0.750000X0*%
%ADD25R,1.700000X1.000000*%
%ADD26RoundRect,0.218750X-0.218750X-0.256250X0.218750X-0.256250X0.218750X0.256250X-0.218750X0.256250X0*%
%ADD27RoundRect,0.250000X-0.375000X-0.625000X0.375000X-0.625000X0.375000X0.625000X-0.375000X0.625000X0*%
%ADD28RoundRect,0.250000X-0.250000X-0.475000X0.250000X-0.475000X0.250000X0.475000X-0.250000X0.475000X0*%
G04 APERTURE END LIST*
D10*
%TO.C,C31*%
X160575000Y-146105000D03*
X162125000Y-146105000D03*
%TD*%
D11*
%TO.C,U9*%
X161350000Y-92285000D03*
X161350000Y-93555000D03*
X161350000Y-94825000D03*
X161350000Y-96095000D03*
X161350000Y-97365000D03*
X161350000Y-98635000D03*
X161350000Y-99905000D03*
X161350000Y-101175000D03*
X161350000Y-102445000D03*
X161350000Y-103715000D03*
X170650000Y-103715000D03*
X170650000Y-102445000D03*
X170650000Y-101175000D03*
X170650000Y-99905000D03*
X170650000Y-98635000D03*
X170650000Y-97365000D03*
X170650000Y-96095000D03*
X170650000Y-94825000D03*
X170650000Y-93555000D03*
X170650000Y-92285000D03*
%TD*%
D12*
%TO.C,U6*%
X97525000Y-93555000D03*
X97525000Y-94825000D03*
X97525000Y-96095000D03*
X97525000Y-97365000D03*
X97525000Y-98635000D03*
X97525000Y-99905000D03*
X97525000Y-101175000D03*
X97525000Y-102445000D03*
X102475000Y-102445000D03*
X102475000Y-101175000D03*
X102475000Y-99905000D03*
X102475000Y-98635000D03*
X102475000Y-97365000D03*
X102475000Y-96095000D03*
X102475000Y-94825000D03*
X102475000Y-93555000D03*
%TD*%
%TO.C,U15*%
X185525000Y-93555000D03*
X185525000Y-94825000D03*
X185525000Y-96095000D03*
X185525000Y-97365000D03*
X185525000Y-98635000D03*
X185525000Y-99905000D03*
X185525000Y-101175000D03*
X185525000Y-102445000D03*
X190475000Y-102445000D03*
X190475000Y-101175000D03*
X190475000Y-99905000D03*
X190475000Y-98635000D03*
X190475000Y-97365000D03*
X190475000Y-96095000D03*
X190475000Y-94825000D03*
X190475000Y-93555000D03*
%TD*%
D11*
%TO.C,U21*%
X193350000Y-124285000D03*
X193350000Y-125555000D03*
X193350000Y-126825000D03*
X193350000Y-128095000D03*
X193350000Y-129365000D03*
X193350000Y-130635000D03*
X193350000Y-131905000D03*
X193350000Y-133175000D03*
X193350000Y-134445000D03*
X193350000Y-135715000D03*
X202650000Y-135715000D03*
X202650000Y-134445000D03*
X202650000Y-133175000D03*
X202650000Y-131905000D03*
X202650000Y-130635000D03*
X202650000Y-129365000D03*
X202650000Y-128095000D03*
X202650000Y-126825000D03*
X202650000Y-125555000D03*
X202650000Y-124285000D03*
%TD*%
%TO.C,U20*%
X161350000Y-148285000D03*
X161350000Y-149555000D03*
X161350000Y-150825000D03*
X161350000Y-152095000D03*
X161350000Y-153365000D03*
X161350000Y-154635000D03*
X161350000Y-155905000D03*
X161350000Y-157175000D03*
X161350000Y-158445000D03*
X161350000Y-159715000D03*
X170650000Y-159715000D03*
X170650000Y-158445000D03*
X170650000Y-157175000D03*
X170650000Y-155905000D03*
X170650000Y-154635000D03*
X170650000Y-153365000D03*
X170650000Y-152095000D03*
X170650000Y-150825000D03*
X170650000Y-149555000D03*
X170650000Y-148285000D03*
%TD*%
%TO.C,U10*%
X103350000Y-50285000D03*
X103350000Y-51555000D03*
X103350000Y-52825000D03*
X103350000Y-54095000D03*
X103350000Y-55365000D03*
X103350000Y-56635000D03*
X103350000Y-57905000D03*
X103350000Y-59175000D03*
X103350000Y-60445000D03*
X103350000Y-61715000D03*
X112650000Y-61715000D03*
X112650000Y-60445000D03*
X112650000Y-59175000D03*
X112650000Y-57905000D03*
X112650000Y-56635000D03*
X112650000Y-55365000D03*
X112650000Y-54095000D03*
X112650000Y-52825000D03*
X112650000Y-51555000D03*
X112650000Y-50285000D03*
%TD*%
D10*
%TO.C,C13*%
X122750000Y-49555000D03*
X124300000Y-49555000D03*
%TD*%
%TO.C,C27*%
X135700000Y-124175000D03*
X137250000Y-124175000D03*
%TD*%
D11*
%TO.C,U11*%
X93350000Y-124285000D03*
X93350000Y-125555000D03*
X93350000Y-126825000D03*
X93350000Y-128095000D03*
X93350000Y-129365000D03*
X93350000Y-130635000D03*
X93350000Y-131905000D03*
X93350000Y-133175000D03*
X93350000Y-134445000D03*
X93350000Y-135715000D03*
X102650000Y-135715000D03*
X102650000Y-134445000D03*
X102650000Y-133175000D03*
X102650000Y-131905000D03*
X102650000Y-130635000D03*
X102650000Y-129365000D03*
X102650000Y-128095000D03*
X102650000Y-126825000D03*
X102650000Y-125555000D03*
X102650000Y-124285000D03*
%TD*%
D12*
%TO.C,U18*%
X163525000Y-125555000D03*
X163525000Y-126825000D03*
X163525000Y-128095000D03*
X163525000Y-129365000D03*
X163525000Y-130635000D03*
X163525000Y-131905000D03*
X163525000Y-133175000D03*
X163525000Y-134445000D03*
X168475000Y-134445000D03*
X168475000Y-133175000D03*
X168475000Y-131905000D03*
X168475000Y-130635000D03*
X168475000Y-129365000D03*
X168475000Y-128095000D03*
X168475000Y-126825000D03*
X168475000Y-125555000D03*
%TD*%
D13*
%TO.C,R1*%
X189175000Y-80000000D03*
X190825000Y-80000000D03*
%TD*%
D12*
%TO.C,U19*%
X179525000Y-125555000D03*
X179525000Y-126825000D03*
X179525000Y-128095000D03*
X179525000Y-129365000D03*
X179525000Y-130635000D03*
X179525000Y-131905000D03*
X179525000Y-133175000D03*
X179525000Y-134445000D03*
X184475000Y-134445000D03*
X184475000Y-133175000D03*
X184475000Y-131905000D03*
X184475000Y-130635000D03*
X184475000Y-129365000D03*
X184475000Y-128095000D03*
X184475000Y-126825000D03*
X184475000Y-125555000D03*
%TD*%
%TO.C,U13*%
X61525000Y-125555000D03*
X61525000Y-126825000D03*
X61525000Y-128095000D03*
X61525000Y-129365000D03*
X61525000Y-130635000D03*
X61525000Y-131905000D03*
X61525000Y-133175000D03*
X61525000Y-134445000D03*
X66475000Y-134445000D03*
X66475000Y-133175000D03*
X66475000Y-131905000D03*
X66475000Y-130635000D03*
X66475000Y-129365000D03*
X66475000Y-128095000D03*
X66475000Y-126825000D03*
X66475000Y-125555000D03*
%TD*%
D14*
%TO.C,J1*%
X67500000Y-164320000D03*
D15*
X69520000Y-164320000D03*
D16*
X70750000Y-164320000D03*
D17*
X68500000Y-164320000D03*
D18*
X66480000Y-164320000D03*
D19*
X65250000Y-164320000D03*
D20*
X63680000Y-164400000D03*
X63680000Y-168200000D03*
X72320000Y-164400000D03*
X72320000Y-168200000D03*
%TD*%
D21*
%TO.C,R4*%
X76000000Y-158825000D03*
X76000000Y-157175000D03*
%TD*%
D22*
%TO.C,RN1*%
X105100000Y-146800000D03*
D23*
X105100000Y-147600000D03*
X105100000Y-148400000D03*
D22*
X105100000Y-149200000D03*
X106900000Y-149200000D03*
D23*
X106900000Y-148400000D03*
X106900000Y-147600000D03*
D22*
X106900000Y-146800000D03*
%TD*%
D12*
%TO.C,U24*%
X155525000Y-52190000D03*
X155525000Y-53460000D03*
X155525000Y-54730000D03*
X155525000Y-56000000D03*
X155525000Y-57270000D03*
X155525000Y-58540000D03*
X155525000Y-59810000D03*
X160475000Y-59810000D03*
X160475000Y-58540000D03*
X160475000Y-57270000D03*
X160475000Y-56000000D03*
X160475000Y-54730000D03*
X160475000Y-53460000D03*
X160475000Y-52190000D03*
%TD*%
D10*
%TO.C,C24*%
X81700000Y-123555000D03*
X83250000Y-123555000D03*
%TD*%
%TO.C,C19*%
X121875000Y-90105000D03*
X123425000Y-90105000D03*
%TD*%
D12*
%TO.C,U22*%
X139525000Y-51555000D03*
X139525000Y-52825000D03*
X139525000Y-54095000D03*
X139525000Y-55365000D03*
X139525000Y-56635000D03*
X139525000Y-57905000D03*
X139525000Y-59175000D03*
X139525000Y-60445000D03*
X144475000Y-60445000D03*
X144475000Y-59175000D03*
X144475000Y-57905000D03*
X144475000Y-56635000D03*
X144475000Y-55365000D03*
X144475000Y-54095000D03*
X144475000Y-52825000D03*
X144475000Y-51555000D03*
%TD*%
%TO.C,U17*%
X147525000Y-126190000D03*
X147525000Y-127460000D03*
X147525000Y-128730000D03*
X147525000Y-130000000D03*
X147525000Y-131270000D03*
X147525000Y-132540000D03*
X147525000Y-133810000D03*
X152475000Y-133810000D03*
X152475000Y-132540000D03*
X152475000Y-131270000D03*
X152475000Y-130000000D03*
X152475000Y-128730000D03*
X152475000Y-127460000D03*
X152475000Y-126190000D03*
%TD*%
D10*
%TO.C,C14*%
X169875000Y-90105000D03*
X171425000Y-90105000D03*
%TD*%
%TO.C,C22*%
X189700000Y-91555000D03*
X191250000Y-91555000D03*
%TD*%
D24*
%TO.C,Y1*%
X193460000Y-42100000D03*
X198540000Y-42100000D03*
X198540000Y-37900000D03*
X193460000Y-37900000D03*
%TD*%
D25*
%TO.C,SW1*%
X192850000Y-72100000D03*
X199150000Y-72100000D03*
X192850000Y-75900000D03*
X199150000Y-75900000D03*
%TD*%
D10*
%TO.C,C10*%
X70845000Y-36655000D03*
X72395000Y-36655000D03*
%TD*%
D26*
%TO.C,D1*%
X99212500Y-164000000D03*
X100787500Y-164000000D03*
%TD*%
D10*
%TO.C,C17*%
X101700000Y-91555000D03*
X103250000Y-91555000D03*
%TD*%
D11*
%TO.C,U8*%
X113350000Y-92285000D03*
X113350000Y-93555000D03*
X113350000Y-94825000D03*
X113350000Y-96095000D03*
X113350000Y-97365000D03*
X113350000Y-98635000D03*
X113350000Y-99905000D03*
X113350000Y-101175000D03*
X113350000Y-102445000D03*
X113350000Y-103715000D03*
X122650000Y-103715000D03*
X122650000Y-102445000D03*
X122650000Y-101175000D03*
X122650000Y-99905000D03*
X122650000Y-98635000D03*
X122650000Y-97365000D03*
X122650000Y-96095000D03*
X122650000Y-94825000D03*
X122650000Y-93555000D03*
X122650000Y-92285000D03*
%TD*%
D13*
%TO.C,R5*%
X93175000Y-164000000D03*
X94825000Y-164000000D03*
%TD*%
D27*
%TO.C,F1*%
X80600000Y-164000000D03*
X83400000Y-164000000D03*
%TD*%
D10*
%TO.C,C1*%
X201225000Y-80000000D03*
X202775000Y-80000000D03*
%TD*%
D12*
%TO.C,U23*%
X171525000Y-52190000D03*
X171525000Y-53460000D03*
X171525000Y-54730000D03*
X171525000Y-56000000D03*
X171525000Y-57270000D03*
X171525000Y-58540000D03*
X171525000Y-59810000D03*
X176475000Y-59810000D03*
X176475000Y-58540000D03*
X176475000Y-57270000D03*
X176475000Y-56000000D03*
X176475000Y-54730000D03*
X176475000Y-53460000D03*
X176475000Y-52190000D03*
%TD*%
D10*
%TO.C,C33*%
X143700000Y-49555000D03*
X145250000Y-49555000D03*
%TD*%
D12*
%TO.C,U14*%
X77525000Y-125555000D03*
X77525000Y-126825000D03*
X77525000Y-128095000D03*
X77525000Y-129365000D03*
X77525000Y-130635000D03*
X77525000Y-131905000D03*
X77525000Y-133175000D03*
X77525000Y-134445000D03*
X82475000Y-134445000D03*
X82475000Y-133175000D03*
X82475000Y-131905000D03*
X82475000Y-130635000D03*
X82475000Y-129365000D03*
X82475000Y-128095000D03*
X82475000Y-126825000D03*
X82475000Y-125555000D03*
%TD*%
D10*
%TO.C,C26*%
X119875000Y-122105000D03*
X121425000Y-122105000D03*
%TD*%
%TO.C,C21*%
X175700000Y-50175000D03*
X177250000Y-50175000D03*
%TD*%
%TO.C,C11*%
X92845000Y-36655000D03*
X94395000Y-36655000D03*
%TD*%
%TO.C,C18*%
X70845000Y-78655000D03*
X72395000Y-78655000D03*
%TD*%
%TO.C,C12*%
X111875000Y-48105000D03*
X113425000Y-48105000D03*
%TD*%
%TO.C,C16*%
X85700000Y-91555000D03*
X87250000Y-91555000D03*
%TD*%
D21*
%TO.C,R3*%
X60000000Y-158825000D03*
X60000000Y-157175000D03*
%TD*%
D12*
%TO.C,U7*%
X123525000Y-51555000D03*
X123525000Y-52825000D03*
X123525000Y-54095000D03*
X123525000Y-55365000D03*
X123525000Y-56635000D03*
X123525000Y-57905000D03*
X123525000Y-59175000D03*
X123525000Y-60445000D03*
X128475000Y-60445000D03*
X128475000Y-59175000D03*
X128475000Y-57905000D03*
X128475000Y-56635000D03*
X128475000Y-55365000D03*
X128475000Y-54095000D03*
X128475000Y-52825000D03*
X128475000Y-51555000D03*
%TD*%
D28*
%TO.C,C2*%
X87050000Y-158000000D03*
X88950000Y-158000000D03*
%TD*%
D12*
%TO.C,U5*%
X81525000Y-93555000D03*
X81525000Y-94825000D03*
X81525000Y-96095000D03*
X81525000Y-97365000D03*
X81525000Y-98635000D03*
X81525000Y-99905000D03*
X81525000Y-101175000D03*
X81525000Y-102445000D03*
X86475000Y-102445000D03*
X86475000Y-101175000D03*
X86475000Y-99905000D03*
X86475000Y-98635000D03*
X86475000Y-97365000D03*
X86475000Y-96095000D03*
X86475000Y-94825000D03*
X86475000Y-93555000D03*
%TD*%
D22*
%TO.C,RN2*%
X115100000Y-146800000D03*
D23*
X115100000Y-147600000D03*
X115100000Y-148400000D03*
D22*
X115100000Y-149200000D03*
X116900000Y-149200000D03*
D23*
X116900000Y-148400000D03*
X116900000Y-147600000D03*
D22*
X116900000Y-146800000D03*
%TD*%
D10*
%TO.C,C34*%
X192685000Y-35405000D03*
X194235000Y-35405000D03*
%TD*%
%TO.C,C15*%
X159700000Y-50175000D03*
X161250000Y-50175000D03*
%TD*%
%TO.C,C25*%
X101875000Y-122105000D03*
X103425000Y-122105000D03*
%TD*%
%TO.C,C29*%
X167700000Y-123555000D03*
X169250000Y-123555000D03*
%TD*%
%TO.C,C32*%
X201875000Y-122105000D03*
X203425000Y-122105000D03*
%TD*%
D12*
%TO.C,U16*%
X131525000Y-126190000D03*
X131525000Y-127460000D03*
X131525000Y-128730000D03*
X131525000Y-130000000D03*
X131525000Y-131270000D03*
X131525000Y-132540000D03*
X131525000Y-133810000D03*
X136475000Y-133810000D03*
X136475000Y-132540000D03*
X136475000Y-131270000D03*
X136475000Y-130000000D03*
X136475000Y-128730000D03*
X136475000Y-127460000D03*
X136475000Y-126190000D03*
%TD*%
D10*
%TO.C,C28*%
X151700000Y-124175000D03*
X153250000Y-124175000D03*
%TD*%
D13*
%TO.C,R2*%
X195175000Y-64000000D03*
X196825000Y-64000000D03*
%TD*%
D10*
%TO.C,C30*%
X183700000Y-123555000D03*
X185250000Y-123555000D03*
%TD*%
%TO.C,C23*%
X65700000Y-123555000D03*
X67250000Y-123555000D03*
%TD*%
%TO.C,C20*%
X148845000Y-81200000D03*
X150395000Y-81200000D03*
%TD*%
D11*
%TO.C,U12*%
X111350000Y-124285000D03*
X111350000Y-125555000D03*
X111350000Y-126825000D03*
X111350000Y-128095000D03*
X111350000Y-129365000D03*
X111350000Y-130635000D03*
X111350000Y-131905000D03*
X111350000Y-133175000D03*
X111350000Y-134445000D03*
X111350000Y-135715000D03*
X120650000Y-135715000D03*
X120650000Y-134445000D03*
X120650000Y-133175000D03*
X120650000Y-131905000D03*
X120650000Y-130635000D03*
X120650000Y-129365000D03*
X120650000Y-128095000D03*
X120650000Y-126825000D03*
X120650000Y-125555000D03*
X120650000Y-124285000D03*
%TD*%
M02*
