%TF.GenerationSoftware,KiCad,Pcbnew,10.0.6-1.fc44*%
%TF.CreationDate,2026-09-24T17:14:41-04:00*%
%TF.ProjectId,8-bit cpu,382d6269-7420-4637-9075-2e6b69636164,rev?*%
%TF.SameCoordinates,Original*%
%TF.FileFunction,Legend,Top*%
%TF.FilePolarity,Positive*%
%FSLAX46Y46*%
G04 Gerber Fmt 4.6, Leading zero omitted, Abs format (unit mm)*
G04 Created by KiCad (PCBNEW 10.0.6-1.fc44) date 2026-09-24 17:14:41*
%MOMM*%
%LPD*%
G01*
G04 APERTURE LIST*
G04 Aperture macros list*
%AMRoundRect*
0 Rectangle with rounded corners*
0 $1 Rounding radius*
0 $2 $3 $4 $5 $6 $7 $8 $9 X,Y pos of 4 corners*
0 Add a 4 corners polygon primitive as box body*
4,1,4,$2,$3,$4,$5,$6,$7,$8,$9,$2,$3,0*
0 Add four circle primitives for the rounded corners*
1,1,$1+$1,$2,$3*
1,1,$1+$1,$4,$5*
1,1,$1+$1,$6,$7*
1,1,$1+$1,$8,$9*
0 Add four rect primitives between the rounded corners*
20,1,$1+$1,$2,$3,$4,$5,0*
20,1,$1+$1,$4,$5,$6,$7,0*
20,1,$1+$1,$6,$7,$8,$9,0*
20,1,$1+$1,$8,$9,$2,$3,0*%
G04 Aperture macros list end*
%ADD10C,0.300000*%
%ADD11C,0.150000*%
%ADD12C,0.120000*%
%ADD13RoundRect,0.225000X-0.225000X-0.250000X0.225000X-0.250000X0.225000X0.250000X-0.225000X0.250000X0*%
%ADD14RoundRect,0.150000X-0.875000X-0.150000X0.875000X-0.150000X0.875000X0.150000X-0.875000X0.150000X0*%
%ADD15C,3.200000*%
%ADD16RoundRect,0.150000X-0.825000X-0.150000X0.825000X-0.150000X0.825000X0.150000X-0.825000X0.150000X0*%
%ADD17RoundRect,0.250000X-0.550000X-0.550000X0.550000X-0.550000X0.550000X0.550000X-0.550000X0.550000X0*%
%ADD18C,1.600000*%
%ADD19RoundRect,0.200000X-0.200000X-0.275000X0.200000X-0.275000X0.200000X0.275000X-0.200000X0.275000X0*%
%ADD20R,1.700000X1.700000*%
%ADD21C,1.700000*%
%ADD22RoundRect,0.175000X-0.175000X-0.425000X0.175000X-0.425000X0.175000X0.425000X-0.175000X0.425000X0*%
%ADD23RoundRect,0.190000X0.190000X0.410000X-0.190000X0.410000X-0.190000X-0.410000X0.190000X-0.410000X0*%
%ADD24RoundRect,0.200000X0.200000X0.400000X-0.200000X0.400000X-0.200000X-0.400000X0.200000X-0.400000X0*%
%ADD25RoundRect,0.175000X0.175000X0.425000X-0.175000X0.425000X-0.175000X-0.425000X0.175000X-0.425000X0*%
%ADD26RoundRect,0.190000X-0.190000X-0.410000X0.190000X-0.410000X0.190000X0.410000X-0.190000X0.410000X0*%
%ADD27RoundRect,0.200000X-0.200000X-0.400000X0.200000X-0.400000X0.200000X0.400000X-0.200000X0.400000X0*%
%ADD28O,1.100000X1.700000*%
%ADD29RoundRect,0.200000X0.275000X-0.200000X0.275000X0.200000X-0.275000X0.200000X-0.275000X-0.200000X0*%
%ADD30R,0.800000X0.500000*%
%ADD31R,0.800000X0.400000*%
%ADD32RoundRect,0.250000X-0.650000X-0.750000X0.650000X-0.750000X0.650000X0.750000X-0.650000X0.750000X0*%
%ADD33R,1.700000X1.000000*%
%ADD34RoundRect,0.218750X-0.218750X-0.256250X0.218750X-0.256250X0.218750X0.256250X-0.218750X0.256250X0*%
%ADD35RoundRect,0.250000X-0.375000X-0.625000X0.375000X-0.625000X0.375000X0.625000X-0.375000X0.625000X0*%
%ADD36RoundRect,0.250000X-0.250000X-0.475000X0.250000X-0.475000X0.250000X0.475000X-0.250000X0.475000X0*%
G04 APERTURE END LIST*
D10*
X111619046Y-165766780D02*
X111428570Y-165671542D01*
X111428570Y-165671542D02*
X111333332Y-165576304D01*
X111333332Y-165576304D02*
X111238094Y-165385828D01*
X111238094Y-165385828D02*
X111238094Y-165290590D01*
X111238094Y-165290590D02*
X111333332Y-165100114D01*
X111333332Y-165100114D02*
X111428570Y-165004876D01*
X111428570Y-165004876D02*
X111619046Y-164909638D01*
X111619046Y-164909638D02*
X111999999Y-164909638D01*
X111999999Y-164909638D02*
X112190475Y-165004876D01*
X112190475Y-165004876D02*
X112285713Y-165100114D01*
X112285713Y-165100114D02*
X112380951Y-165290590D01*
X112380951Y-165290590D02*
X112380951Y-165385828D01*
X112380951Y-165385828D02*
X112285713Y-165576304D01*
X112285713Y-165576304D02*
X112190475Y-165671542D01*
X112190475Y-165671542D02*
X111999999Y-165766780D01*
X111999999Y-165766780D02*
X111619046Y-165766780D01*
X111619046Y-165766780D02*
X111428570Y-165862019D01*
X111428570Y-165862019D02*
X111333332Y-165957257D01*
X111333332Y-165957257D02*
X111238094Y-166147733D01*
X111238094Y-166147733D02*
X111238094Y-166528685D01*
X111238094Y-166528685D02*
X111333332Y-166719161D01*
X111333332Y-166719161D02*
X111428570Y-166814400D01*
X111428570Y-166814400D02*
X111619046Y-166909638D01*
X111619046Y-166909638D02*
X111999999Y-166909638D01*
X111999999Y-166909638D02*
X112190475Y-166814400D01*
X112190475Y-166814400D02*
X112285713Y-166719161D01*
X112285713Y-166719161D02*
X112380951Y-166528685D01*
X112380951Y-166528685D02*
X112380951Y-166147733D01*
X112380951Y-166147733D02*
X112285713Y-165957257D01*
X112285713Y-165957257D02*
X112190475Y-165862019D01*
X112190475Y-165862019D02*
X111999999Y-165766780D01*
X113238094Y-166147733D02*
X114761904Y-166147733D01*
X116380951Y-165862019D02*
X116666665Y-165957257D01*
X116666665Y-165957257D02*
X116761903Y-166052495D01*
X116761903Y-166052495D02*
X116857141Y-166242971D01*
X116857141Y-166242971D02*
X116857141Y-166528685D01*
X116857141Y-166528685D02*
X116761903Y-166719161D01*
X116761903Y-166719161D02*
X116666665Y-166814400D01*
X116666665Y-166814400D02*
X116476189Y-166909638D01*
X116476189Y-166909638D02*
X115714284Y-166909638D01*
X115714284Y-166909638D02*
X115714284Y-164909638D01*
X115714284Y-164909638D02*
X116380951Y-164909638D01*
X116380951Y-164909638D02*
X116571427Y-165004876D01*
X116571427Y-165004876D02*
X116666665Y-165100114D01*
X116666665Y-165100114D02*
X116761903Y-165290590D01*
X116761903Y-165290590D02*
X116761903Y-165481066D01*
X116761903Y-165481066D02*
X116666665Y-165671542D01*
X116666665Y-165671542D02*
X116571427Y-165766780D01*
X116571427Y-165766780D02*
X116380951Y-165862019D01*
X116380951Y-165862019D02*
X115714284Y-165862019D01*
X117714284Y-166909638D02*
X117714284Y-164909638D01*
X118380951Y-164909638D02*
X119523808Y-164909638D01*
X118952379Y-166909638D02*
X118952379Y-164909638D01*
X122857142Y-166719161D02*
X122761904Y-166814400D01*
X122761904Y-166814400D02*
X122476190Y-166909638D01*
X122476190Y-166909638D02*
X122285714Y-166909638D01*
X122285714Y-166909638D02*
X121999999Y-166814400D01*
X121999999Y-166814400D02*
X121809523Y-166623923D01*
X121809523Y-166623923D02*
X121714285Y-166433447D01*
X121714285Y-166433447D02*
X121619047Y-166052495D01*
X121619047Y-166052495D02*
X121619047Y-165766780D01*
X121619047Y-165766780D02*
X121714285Y-165385828D01*
X121714285Y-165385828D02*
X121809523Y-165195352D01*
X121809523Y-165195352D02*
X121999999Y-165004876D01*
X121999999Y-165004876D02*
X122285714Y-164909638D01*
X122285714Y-164909638D02*
X122476190Y-164909638D01*
X122476190Y-164909638D02*
X122761904Y-165004876D01*
X122761904Y-165004876D02*
X122857142Y-165100114D01*
X123714285Y-166909638D02*
X123714285Y-164909638D01*
X123714285Y-164909638D02*
X124476190Y-164909638D01*
X124476190Y-164909638D02*
X124666666Y-165004876D01*
X124666666Y-165004876D02*
X124761904Y-165100114D01*
X124761904Y-165100114D02*
X124857142Y-165290590D01*
X124857142Y-165290590D02*
X124857142Y-165576304D01*
X124857142Y-165576304D02*
X124761904Y-165766780D01*
X124761904Y-165766780D02*
X124666666Y-165862019D01*
X124666666Y-165862019D02*
X124476190Y-165957257D01*
X124476190Y-165957257D02*
X123714285Y-165957257D01*
X125714285Y-164909638D02*
X125714285Y-166528685D01*
X125714285Y-166528685D02*
X125809523Y-166719161D01*
X125809523Y-166719161D02*
X125904761Y-166814400D01*
X125904761Y-166814400D02*
X126095237Y-166909638D01*
X126095237Y-166909638D02*
X126476190Y-166909638D01*
X126476190Y-166909638D02*
X126666666Y-166814400D01*
X126666666Y-166814400D02*
X126761904Y-166719161D01*
X126761904Y-166719161D02*
X126857142Y-166528685D01*
X126857142Y-166528685D02*
X126857142Y-164909638D01*
X130857143Y-166909638D02*
X130857143Y-165576304D01*
X130857143Y-165957257D02*
X130952381Y-165766780D01*
X130952381Y-165766780D02*
X131047619Y-165671542D01*
X131047619Y-165671542D02*
X131238095Y-165576304D01*
X131238095Y-165576304D02*
X131428572Y-165576304D01*
X132857143Y-166814400D02*
X132666667Y-166909638D01*
X132666667Y-166909638D02*
X132285714Y-166909638D01*
X132285714Y-166909638D02*
X132095238Y-166814400D01*
X132095238Y-166814400D02*
X132000000Y-166623923D01*
X132000000Y-166623923D02*
X132000000Y-165862019D01*
X132000000Y-165862019D02*
X132095238Y-165671542D01*
X132095238Y-165671542D02*
X132285714Y-165576304D01*
X132285714Y-165576304D02*
X132666667Y-165576304D01*
X132666667Y-165576304D02*
X132857143Y-165671542D01*
X132857143Y-165671542D02*
X132952381Y-165862019D01*
X132952381Y-165862019D02*
X132952381Y-166052495D01*
X132952381Y-166052495D02*
X132000000Y-166242971D01*
X133619048Y-165576304D02*
X134095238Y-166909638D01*
X134095238Y-166909638D02*
X134571429Y-165576304D01*
X136761906Y-165100114D02*
X136857144Y-165004876D01*
X136857144Y-165004876D02*
X137047620Y-164909638D01*
X137047620Y-164909638D02*
X137523811Y-164909638D01*
X137523811Y-164909638D02*
X137714287Y-165004876D01*
X137714287Y-165004876D02*
X137809525Y-165100114D01*
X137809525Y-165100114D02*
X137904763Y-165290590D01*
X137904763Y-165290590D02*
X137904763Y-165481066D01*
X137904763Y-165481066D02*
X137809525Y-165766780D01*
X137809525Y-165766780D02*
X136666668Y-166909638D01*
X136666668Y-166909638D02*
X137904763Y-166909638D01*
X138761906Y-166719161D02*
X138857144Y-166814400D01*
X138857144Y-166814400D02*
X138761906Y-166909638D01*
X138761906Y-166909638D02*
X138666668Y-166814400D01*
X138666668Y-166814400D02*
X138761906Y-166719161D01*
X138761906Y-166719161D02*
X138761906Y-166909638D01*
X140095239Y-164909638D02*
X140285716Y-164909638D01*
X140285716Y-164909638D02*
X140476192Y-165004876D01*
X140476192Y-165004876D02*
X140571430Y-165100114D01*
X140571430Y-165100114D02*
X140666668Y-165290590D01*
X140666668Y-165290590D02*
X140761906Y-165671542D01*
X140761906Y-165671542D02*
X140761906Y-166147733D01*
X140761906Y-166147733D02*
X140666668Y-166528685D01*
X140666668Y-166528685D02*
X140571430Y-166719161D01*
X140571430Y-166719161D02*
X140476192Y-166814400D01*
X140476192Y-166814400D02*
X140285716Y-166909638D01*
X140285716Y-166909638D02*
X140095239Y-166909638D01*
X140095239Y-166909638D02*
X139904763Y-166814400D01*
X139904763Y-166814400D02*
X139809525Y-166719161D01*
X139809525Y-166719161D02*
X139714287Y-166528685D01*
X139714287Y-166528685D02*
X139619049Y-166147733D01*
X139619049Y-166147733D02*
X139619049Y-165671542D01*
X139619049Y-165671542D02*
X139714287Y-165290590D01*
X139714287Y-165290590D02*
X139809525Y-165100114D01*
X139809525Y-165100114D02*
X139904763Y-165004876D01*
X139904763Y-165004876D02*
X140095239Y-164909638D01*
D11*
X160707142Y-145034580D02*
X160659523Y-145082200D01*
X160659523Y-145082200D02*
X160516666Y-145129819D01*
X160516666Y-145129819D02*
X160421428Y-145129819D01*
X160421428Y-145129819D02*
X160278571Y-145082200D01*
X160278571Y-145082200D02*
X160183333Y-144986961D01*
X160183333Y-144986961D02*
X160135714Y-144891723D01*
X160135714Y-144891723D02*
X160088095Y-144701247D01*
X160088095Y-144701247D02*
X160088095Y-144558390D01*
X160088095Y-144558390D02*
X160135714Y-144367914D01*
X160135714Y-144367914D02*
X160183333Y-144272676D01*
X160183333Y-144272676D02*
X160278571Y-144177438D01*
X160278571Y-144177438D02*
X160421428Y-144129819D01*
X160421428Y-144129819D02*
X160516666Y-144129819D01*
X160516666Y-144129819D02*
X160659523Y-144177438D01*
X160659523Y-144177438D02*
X160707142Y-144225057D01*
X161040476Y-144129819D02*
X161659523Y-144129819D01*
X161659523Y-144129819D02*
X161326190Y-144510771D01*
X161326190Y-144510771D02*
X161469047Y-144510771D01*
X161469047Y-144510771D02*
X161564285Y-144558390D01*
X161564285Y-144558390D02*
X161611904Y-144606009D01*
X161611904Y-144606009D02*
X161659523Y-144701247D01*
X161659523Y-144701247D02*
X161659523Y-144939342D01*
X161659523Y-144939342D02*
X161611904Y-145034580D01*
X161611904Y-145034580D02*
X161564285Y-145082200D01*
X161564285Y-145082200D02*
X161469047Y-145129819D01*
X161469047Y-145129819D02*
X161183333Y-145129819D01*
X161183333Y-145129819D02*
X161088095Y-145082200D01*
X161088095Y-145082200D02*
X161040476Y-145034580D01*
X162611904Y-145129819D02*
X162040476Y-145129819D01*
X162326190Y-145129819D02*
X162326190Y-144129819D01*
X162326190Y-144129819D02*
X162230952Y-144272676D01*
X162230952Y-144272676D02*
X162135714Y-144367914D01*
X162135714Y-144367914D02*
X162040476Y-144415533D01*
X165454819Y-98761904D02*
X166264342Y-98761904D01*
X166264342Y-98761904D02*
X166359580Y-98714285D01*
X166359580Y-98714285D02*
X166407200Y-98666666D01*
X166407200Y-98666666D02*
X166454819Y-98571428D01*
X166454819Y-98571428D02*
X166454819Y-98380952D01*
X166454819Y-98380952D02*
X166407200Y-98285714D01*
X166407200Y-98285714D02*
X166359580Y-98238095D01*
X166359580Y-98238095D02*
X166264342Y-98190476D01*
X166264342Y-98190476D02*
X165454819Y-98190476D01*
X166454819Y-97666666D02*
X166454819Y-97476190D01*
X166454819Y-97476190D02*
X166407200Y-97380952D01*
X166407200Y-97380952D02*
X166359580Y-97333333D01*
X166359580Y-97333333D02*
X166216723Y-97238095D01*
X166216723Y-97238095D02*
X166026247Y-97190476D01*
X166026247Y-97190476D02*
X165645295Y-97190476D01*
X165645295Y-97190476D02*
X165550057Y-97238095D01*
X165550057Y-97238095D02*
X165502438Y-97285714D01*
X165502438Y-97285714D02*
X165454819Y-97380952D01*
X165454819Y-97380952D02*
X165454819Y-97571428D01*
X165454819Y-97571428D02*
X165502438Y-97666666D01*
X165502438Y-97666666D02*
X165550057Y-97714285D01*
X165550057Y-97714285D02*
X165645295Y-97761904D01*
X165645295Y-97761904D02*
X165883390Y-97761904D01*
X165883390Y-97761904D02*
X165978628Y-97714285D01*
X165978628Y-97714285D02*
X166026247Y-97666666D01*
X166026247Y-97666666D02*
X166073866Y-97571428D01*
X166073866Y-97571428D02*
X166073866Y-97380952D01*
X166073866Y-97380952D02*
X166026247Y-97285714D01*
X166026247Y-97285714D02*
X165978628Y-97238095D01*
X165978628Y-97238095D02*
X165883390Y-97190476D01*
X99454819Y-98761904D02*
X100264342Y-98761904D01*
X100264342Y-98761904D02*
X100359580Y-98714285D01*
X100359580Y-98714285D02*
X100407200Y-98666666D01*
X100407200Y-98666666D02*
X100454819Y-98571428D01*
X100454819Y-98571428D02*
X100454819Y-98380952D01*
X100454819Y-98380952D02*
X100407200Y-98285714D01*
X100407200Y-98285714D02*
X100359580Y-98238095D01*
X100359580Y-98238095D02*
X100264342Y-98190476D01*
X100264342Y-98190476D02*
X99454819Y-98190476D01*
X99454819Y-97285714D02*
X99454819Y-97476190D01*
X99454819Y-97476190D02*
X99502438Y-97571428D01*
X99502438Y-97571428D02*
X99550057Y-97619047D01*
X99550057Y-97619047D02*
X99692914Y-97714285D01*
X99692914Y-97714285D02*
X99883390Y-97761904D01*
X99883390Y-97761904D02*
X100264342Y-97761904D01*
X100264342Y-97761904D02*
X100359580Y-97714285D01*
X100359580Y-97714285D02*
X100407200Y-97666666D01*
X100407200Y-97666666D02*
X100454819Y-97571428D01*
X100454819Y-97571428D02*
X100454819Y-97380952D01*
X100454819Y-97380952D02*
X100407200Y-97285714D01*
X100407200Y-97285714D02*
X100359580Y-97238095D01*
X100359580Y-97238095D02*
X100264342Y-97190476D01*
X100264342Y-97190476D02*
X100026247Y-97190476D01*
X100026247Y-97190476D02*
X99931009Y-97238095D01*
X99931009Y-97238095D02*
X99883390Y-97285714D01*
X99883390Y-97285714D02*
X99835771Y-97380952D01*
X99835771Y-97380952D02*
X99835771Y-97571428D01*
X99835771Y-97571428D02*
X99883390Y-97666666D01*
X99883390Y-97666666D02*
X99931009Y-97714285D01*
X99931009Y-97714285D02*
X100026247Y-97761904D01*
X187454819Y-99238094D02*
X188264342Y-99238094D01*
X188264342Y-99238094D02*
X188359580Y-99190475D01*
X188359580Y-99190475D02*
X188407200Y-99142856D01*
X188407200Y-99142856D02*
X188454819Y-99047618D01*
X188454819Y-99047618D02*
X188454819Y-98857142D01*
X188454819Y-98857142D02*
X188407200Y-98761904D01*
X188407200Y-98761904D02*
X188359580Y-98714285D01*
X188359580Y-98714285D02*
X188264342Y-98666666D01*
X188264342Y-98666666D02*
X187454819Y-98666666D01*
X188454819Y-97666666D02*
X188454819Y-98238094D01*
X188454819Y-97952380D02*
X187454819Y-97952380D01*
X187454819Y-97952380D02*
X187597676Y-98047618D01*
X187597676Y-98047618D02*
X187692914Y-98142856D01*
X187692914Y-98142856D02*
X187740533Y-98238094D01*
X187454819Y-96761904D02*
X187454819Y-97238094D01*
X187454819Y-97238094D02*
X187931009Y-97285713D01*
X187931009Y-97285713D02*
X187883390Y-97238094D01*
X187883390Y-97238094D02*
X187835771Y-97142856D01*
X187835771Y-97142856D02*
X187835771Y-96904761D01*
X187835771Y-96904761D02*
X187883390Y-96809523D01*
X187883390Y-96809523D02*
X187931009Y-96761904D01*
X187931009Y-96761904D02*
X188026247Y-96714285D01*
X188026247Y-96714285D02*
X188264342Y-96714285D01*
X188264342Y-96714285D02*
X188359580Y-96761904D01*
X188359580Y-96761904D02*
X188407200Y-96809523D01*
X188407200Y-96809523D02*
X188454819Y-96904761D01*
X188454819Y-96904761D02*
X188454819Y-97142856D01*
X188454819Y-97142856D02*
X188407200Y-97238094D01*
X188407200Y-97238094D02*
X188359580Y-97285713D01*
X141454819Y-98761904D02*
X142264342Y-98761904D01*
X142264342Y-98761904D02*
X142359580Y-98714285D01*
X142359580Y-98714285D02*
X142407200Y-98666666D01*
X142407200Y-98666666D02*
X142454819Y-98571428D01*
X142454819Y-98571428D02*
X142454819Y-98380952D01*
X142454819Y-98380952D02*
X142407200Y-98285714D01*
X142407200Y-98285714D02*
X142359580Y-98238095D01*
X142359580Y-98238095D02*
X142264342Y-98190476D01*
X142264342Y-98190476D02*
X141454819Y-98190476D01*
X141788152Y-97285714D02*
X142454819Y-97285714D01*
X141407200Y-97523809D02*
X142121485Y-97761904D01*
X142121485Y-97761904D02*
X142121485Y-97142857D01*
X197454819Y-131238094D02*
X198264342Y-131238094D01*
X198264342Y-131238094D02*
X198359580Y-131190475D01*
X198359580Y-131190475D02*
X198407200Y-131142856D01*
X198407200Y-131142856D02*
X198454819Y-131047618D01*
X198454819Y-131047618D02*
X198454819Y-130857142D01*
X198454819Y-130857142D02*
X198407200Y-130761904D01*
X198407200Y-130761904D02*
X198359580Y-130714285D01*
X198359580Y-130714285D02*
X198264342Y-130666666D01*
X198264342Y-130666666D02*
X197454819Y-130666666D01*
X197550057Y-130238094D02*
X197502438Y-130190475D01*
X197502438Y-130190475D02*
X197454819Y-130095237D01*
X197454819Y-130095237D02*
X197454819Y-129857142D01*
X197454819Y-129857142D02*
X197502438Y-129761904D01*
X197502438Y-129761904D02*
X197550057Y-129714285D01*
X197550057Y-129714285D02*
X197645295Y-129666666D01*
X197645295Y-129666666D02*
X197740533Y-129666666D01*
X197740533Y-129666666D02*
X197883390Y-129714285D01*
X197883390Y-129714285D02*
X198454819Y-130285713D01*
X198454819Y-130285713D02*
X198454819Y-129666666D01*
X198454819Y-128714285D02*
X198454819Y-129285713D01*
X198454819Y-128999999D02*
X197454819Y-128999999D01*
X197454819Y-128999999D02*
X197597676Y-129095237D01*
X197597676Y-129095237D02*
X197692914Y-129190475D01*
X197692914Y-129190475D02*
X197740533Y-129285713D01*
X165454819Y-155238094D02*
X166264342Y-155238094D01*
X166264342Y-155238094D02*
X166359580Y-155190475D01*
X166359580Y-155190475D02*
X166407200Y-155142856D01*
X166407200Y-155142856D02*
X166454819Y-155047618D01*
X166454819Y-155047618D02*
X166454819Y-154857142D01*
X166454819Y-154857142D02*
X166407200Y-154761904D01*
X166407200Y-154761904D02*
X166359580Y-154714285D01*
X166359580Y-154714285D02*
X166264342Y-154666666D01*
X166264342Y-154666666D02*
X165454819Y-154666666D01*
X165550057Y-154238094D02*
X165502438Y-154190475D01*
X165502438Y-154190475D02*
X165454819Y-154095237D01*
X165454819Y-154095237D02*
X165454819Y-153857142D01*
X165454819Y-153857142D02*
X165502438Y-153761904D01*
X165502438Y-153761904D02*
X165550057Y-153714285D01*
X165550057Y-153714285D02*
X165645295Y-153666666D01*
X165645295Y-153666666D02*
X165740533Y-153666666D01*
X165740533Y-153666666D02*
X165883390Y-153714285D01*
X165883390Y-153714285D02*
X166454819Y-154285713D01*
X166454819Y-154285713D02*
X166454819Y-153666666D01*
X165454819Y-153047618D02*
X165454819Y-152952380D01*
X165454819Y-152952380D02*
X165502438Y-152857142D01*
X165502438Y-152857142D02*
X165550057Y-152809523D01*
X165550057Y-152809523D02*
X165645295Y-152761904D01*
X165645295Y-152761904D02*
X165835771Y-152714285D01*
X165835771Y-152714285D02*
X166073866Y-152714285D01*
X166073866Y-152714285D02*
X166264342Y-152761904D01*
X166264342Y-152761904D02*
X166359580Y-152809523D01*
X166359580Y-152809523D02*
X166407200Y-152857142D01*
X166407200Y-152857142D02*
X166454819Y-152952380D01*
X166454819Y-152952380D02*
X166454819Y-153047618D01*
X166454819Y-153047618D02*
X166407200Y-153142856D01*
X166407200Y-153142856D02*
X166359580Y-153190475D01*
X166359580Y-153190475D02*
X166264342Y-153238094D01*
X166264342Y-153238094D02*
X166073866Y-153285713D01*
X166073866Y-153285713D02*
X165835771Y-153285713D01*
X165835771Y-153285713D02*
X165645295Y-153238094D01*
X165645295Y-153238094D02*
X165550057Y-153190475D01*
X165550057Y-153190475D02*
X165502438Y-153142856D01*
X165502438Y-153142856D02*
X165454819Y-153047618D01*
X107454819Y-57238094D02*
X108264342Y-57238094D01*
X108264342Y-57238094D02*
X108359580Y-57190475D01*
X108359580Y-57190475D02*
X108407200Y-57142856D01*
X108407200Y-57142856D02*
X108454819Y-57047618D01*
X108454819Y-57047618D02*
X108454819Y-56857142D01*
X108454819Y-56857142D02*
X108407200Y-56761904D01*
X108407200Y-56761904D02*
X108359580Y-56714285D01*
X108359580Y-56714285D02*
X108264342Y-56666666D01*
X108264342Y-56666666D02*
X107454819Y-56666666D01*
X108454819Y-55666666D02*
X108454819Y-56238094D01*
X108454819Y-55952380D02*
X107454819Y-55952380D01*
X107454819Y-55952380D02*
X107597676Y-56047618D01*
X107597676Y-56047618D02*
X107692914Y-56142856D01*
X107692914Y-56142856D02*
X107740533Y-56238094D01*
X107454819Y-55047618D02*
X107454819Y-54952380D01*
X107454819Y-54952380D02*
X107502438Y-54857142D01*
X107502438Y-54857142D02*
X107550057Y-54809523D01*
X107550057Y-54809523D02*
X107645295Y-54761904D01*
X107645295Y-54761904D02*
X107835771Y-54714285D01*
X107835771Y-54714285D02*
X108073866Y-54714285D01*
X108073866Y-54714285D02*
X108264342Y-54761904D01*
X108264342Y-54761904D02*
X108359580Y-54809523D01*
X108359580Y-54809523D02*
X108407200Y-54857142D01*
X108407200Y-54857142D02*
X108454819Y-54952380D01*
X108454819Y-54952380D02*
X108454819Y-55047618D01*
X108454819Y-55047618D02*
X108407200Y-55142856D01*
X108407200Y-55142856D02*
X108359580Y-55190475D01*
X108359580Y-55190475D02*
X108264342Y-55238094D01*
X108264342Y-55238094D02*
X108073866Y-55285713D01*
X108073866Y-55285713D02*
X107835771Y-55285713D01*
X107835771Y-55285713D02*
X107645295Y-55238094D01*
X107645295Y-55238094D02*
X107550057Y-55190475D01*
X107550057Y-55190475D02*
X107502438Y-55142856D01*
X107502438Y-55142856D02*
X107454819Y-55047618D01*
X63454819Y-56761904D02*
X64264342Y-56761904D01*
X64264342Y-56761904D02*
X64359580Y-56714285D01*
X64359580Y-56714285D02*
X64407200Y-56666666D01*
X64407200Y-56666666D02*
X64454819Y-56571428D01*
X64454819Y-56571428D02*
X64454819Y-56380952D01*
X64454819Y-56380952D02*
X64407200Y-56285714D01*
X64407200Y-56285714D02*
X64359580Y-56238095D01*
X64359580Y-56238095D02*
X64264342Y-56190476D01*
X64264342Y-56190476D02*
X63454819Y-56190476D01*
X64454819Y-55190476D02*
X64454819Y-55761904D01*
X64454819Y-55476190D02*
X63454819Y-55476190D01*
X63454819Y-55476190D02*
X63597676Y-55571428D01*
X63597676Y-55571428D02*
X63692914Y-55666666D01*
X63692914Y-55666666D02*
X63740533Y-55761904D01*
X122882142Y-48484580D02*
X122834523Y-48532200D01*
X122834523Y-48532200D02*
X122691666Y-48579819D01*
X122691666Y-48579819D02*
X122596428Y-48579819D01*
X122596428Y-48579819D02*
X122453571Y-48532200D01*
X122453571Y-48532200D02*
X122358333Y-48436961D01*
X122358333Y-48436961D02*
X122310714Y-48341723D01*
X122310714Y-48341723D02*
X122263095Y-48151247D01*
X122263095Y-48151247D02*
X122263095Y-48008390D01*
X122263095Y-48008390D02*
X122310714Y-47817914D01*
X122310714Y-47817914D02*
X122358333Y-47722676D01*
X122358333Y-47722676D02*
X122453571Y-47627438D01*
X122453571Y-47627438D02*
X122596428Y-47579819D01*
X122596428Y-47579819D02*
X122691666Y-47579819D01*
X122691666Y-47579819D02*
X122834523Y-47627438D01*
X122834523Y-47627438D02*
X122882142Y-47675057D01*
X123834523Y-48579819D02*
X123263095Y-48579819D01*
X123548809Y-48579819D02*
X123548809Y-47579819D01*
X123548809Y-47579819D02*
X123453571Y-47722676D01*
X123453571Y-47722676D02*
X123358333Y-47817914D01*
X123358333Y-47817914D02*
X123263095Y-47865533D01*
X124167857Y-47579819D02*
X124786904Y-47579819D01*
X124786904Y-47579819D02*
X124453571Y-47960771D01*
X124453571Y-47960771D02*
X124596428Y-47960771D01*
X124596428Y-47960771D02*
X124691666Y-48008390D01*
X124691666Y-48008390D02*
X124739285Y-48056009D01*
X124739285Y-48056009D02*
X124786904Y-48151247D01*
X124786904Y-48151247D02*
X124786904Y-48389342D01*
X124786904Y-48389342D02*
X124739285Y-48484580D01*
X124739285Y-48484580D02*
X124691666Y-48532200D01*
X124691666Y-48532200D02*
X124596428Y-48579819D01*
X124596428Y-48579819D02*
X124310714Y-48579819D01*
X124310714Y-48579819D02*
X124215476Y-48532200D01*
X124215476Y-48532200D02*
X124167857Y-48484580D01*
X135832142Y-123104580D02*
X135784523Y-123152200D01*
X135784523Y-123152200D02*
X135641666Y-123199819D01*
X135641666Y-123199819D02*
X135546428Y-123199819D01*
X135546428Y-123199819D02*
X135403571Y-123152200D01*
X135403571Y-123152200D02*
X135308333Y-123056961D01*
X135308333Y-123056961D02*
X135260714Y-122961723D01*
X135260714Y-122961723D02*
X135213095Y-122771247D01*
X135213095Y-122771247D02*
X135213095Y-122628390D01*
X135213095Y-122628390D02*
X135260714Y-122437914D01*
X135260714Y-122437914D02*
X135308333Y-122342676D01*
X135308333Y-122342676D02*
X135403571Y-122247438D01*
X135403571Y-122247438D02*
X135546428Y-122199819D01*
X135546428Y-122199819D02*
X135641666Y-122199819D01*
X135641666Y-122199819D02*
X135784523Y-122247438D01*
X135784523Y-122247438D02*
X135832142Y-122295057D01*
X136213095Y-122295057D02*
X136260714Y-122247438D01*
X136260714Y-122247438D02*
X136355952Y-122199819D01*
X136355952Y-122199819D02*
X136594047Y-122199819D01*
X136594047Y-122199819D02*
X136689285Y-122247438D01*
X136689285Y-122247438D02*
X136736904Y-122295057D01*
X136736904Y-122295057D02*
X136784523Y-122390295D01*
X136784523Y-122390295D02*
X136784523Y-122485533D01*
X136784523Y-122485533D02*
X136736904Y-122628390D01*
X136736904Y-122628390D02*
X136165476Y-123199819D01*
X136165476Y-123199819D02*
X136784523Y-123199819D01*
X137117857Y-122199819D02*
X137784523Y-122199819D01*
X137784523Y-122199819D02*
X137355952Y-123199819D01*
X97454819Y-131238094D02*
X98264342Y-131238094D01*
X98264342Y-131238094D02*
X98359580Y-131190475D01*
X98359580Y-131190475D02*
X98407200Y-131142856D01*
X98407200Y-131142856D02*
X98454819Y-131047618D01*
X98454819Y-131047618D02*
X98454819Y-130857142D01*
X98454819Y-130857142D02*
X98407200Y-130761904D01*
X98407200Y-130761904D02*
X98359580Y-130714285D01*
X98359580Y-130714285D02*
X98264342Y-130666666D01*
X98264342Y-130666666D02*
X97454819Y-130666666D01*
X98454819Y-129666666D02*
X98454819Y-130238094D01*
X98454819Y-129952380D02*
X97454819Y-129952380D01*
X97454819Y-129952380D02*
X97597676Y-130047618D01*
X97597676Y-130047618D02*
X97692914Y-130142856D01*
X97692914Y-130142856D02*
X97740533Y-130238094D01*
X98454819Y-128714285D02*
X98454819Y-129285713D01*
X98454819Y-128999999D02*
X97454819Y-128999999D01*
X97454819Y-128999999D02*
X97597676Y-129095237D01*
X97597676Y-129095237D02*
X97692914Y-129190475D01*
X97692914Y-129190475D02*
X97740533Y-129285713D01*
X165454819Y-131238094D02*
X166264342Y-131238094D01*
X166264342Y-131238094D02*
X166359580Y-131190475D01*
X166359580Y-131190475D02*
X166407200Y-131142856D01*
X166407200Y-131142856D02*
X166454819Y-131047618D01*
X166454819Y-131047618D02*
X166454819Y-130857142D01*
X166454819Y-130857142D02*
X166407200Y-130761904D01*
X166407200Y-130761904D02*
X166359580Y-130714285D01*
X166359580Y-130714285D02*
X166264342Y-130666666D01*
X166264342Y-130666666D02*
X165454819Y-130666666D01*
X166454819Y-129666666D02*
X166454819Y-130238094D01*
X166454819Y-129952380D02*
X165454819Y-129952380D01*
X165454819Y-129952380D02*
X165597676Y-130047618D01*
X165597676Y-130047618D02*
X165692914Y-130142856D01*
X165692914Y-130142856D02*
X165740533Y-130238094D01*
X165883390Y-129095237D02*
X165835771Y-129190475D01*
X165835771Y-129190475D02*
X165788152Y-129238094D01*
X165788152Y-129238094D02*
X165692914Y-129285713D01*
X165692914Y-129285713D02*
X165645295Y-129285713D01*
X165645295Y-129285713D02*
X165550057Y-129238094D01*
X165550057Y-129238094D02*
X165502438Y-129190475D01*
X165502438Y-129190475D02*
X165454819Y-129095237D01*
X165454819Y-129095237D02*
X165454819Y-128904761D01*
X165454819Y-128904761D02*
X165502438Y-128809523D01*
X165502438Y-128809523D02*
X165550057Y-128761904D01*
X165550057Y-128761904D02*
X165645295Y-128714285D01*
X165645295Y-128714285D02*
X165692914Y-128714285D01*
X165692914Y-128714285D02*
X165788152Y-128761904D01*
X165788152Y-128761904D02*
X165835771Y-128809523D01*
X165835771Y-128809523D02*
X165883390Y-128904761D01*
X165883390Y-128904761D02*
X165883390Y-129095237D01*
X165883390Y-129095237D02*
X165931009Y-129190475D01*
X165931009Y-129190475D02*
X165978628Y-129238094D01*
X165978628Y-129238094D02*
X166073866Y-129285713D01*
X166073866Y-129285713D02*
X166264342Y-129285713D01*
X166264342Y-129285713D02*
X166359580Y-129238094D01*
X166359580Y-129238094D02*
X166407200Y-129190475D01*
X166407200Y-129190475D02*
X166454819Y-129095237D01*
X166454819Y-129095237D02*
X166454819Y-128904761D01*
X166454819Y-128904761D02*
X166407200Y-128809523D01*
X166407200Y-128809523D02*
X166359580Y-128761904D01*
X166359580Y-128761904D02*
X166264342Y-128714285D01*
X166264342Y-128714285D02*
X166073866Y-128714285D01*
X166073866Y-128714285D02*
X165978628Y-128761904D01*
X165978628Y-128761904D02*
X165931009Y-128809523D01*
X165931009Y-128809523D02*
X165883390Y-128904761D01*
X189833333Y-79024819D02*
X189500000Y-78548628D01*
X189261905Y-79024819D02*
X189261905Y-78024819D01*
X189261905Y-78024819D02*
X189642857Y-78024819D01*
X189642857Y-78024819D02*
X189738095Y-78072438D01*
X189738095Y-78072438D02*
X189785714Y-78120057D01*
X189785714Y-78120057D02*
X189833333Y-78215295D01*
X189833333Y-78215295D02*
X189833333Y-78358152D01*
X189833333Y-78358152D02*
X189785714Y-78453390D01*
X189785714Y-78453390D02*
X189738095Y-78501009D01*
X189738095Y-78501009D02*
X189642857Y-78548628D01*
X189642857Y-78548628D02*
X189261905Y-78548628D01*
X190785714Y-79024819D02*
X190214286Y-79024819D01*
X190500000Y-79024819D02*
X190500000Y-78024819D01*
X190500000Y-78024819D02*
X190404762Y-78167676D01*
X190404762Y-78167676D02*
X190309524Y-78262914D01*
X190309524Y-78262914D02*
X190214286Y-78310533D01*
X181454819Y-131238094D02*
X182264342Y-131238094D01*
X182264342Y-131238094D02*
X182359580Y-131190475D01*
X182359580Y-131190475D02*
X182407200Y-131142856D01*
X182407200Y-131142856D02*
X182454819Y-131047618D01*
X182454819Y-131047618D02*
X182454819Y-130857142D01*
X182454819Y-130857142D02*
X182407200Y-130761904D01*
X182407200Y-130761904D02*
X182359580Y-130714285D01*
X182359580Y-130714285D02*
X182264342Y-130666666D01*
X182264342Y-130666666D02*
X181454819Y-130666666D01*
X182454819Y-129666666D02*
X182454819Y-130238094D01*
X182454819Y-129952380D02*
X181454819Y-129952380D01*
X181454819Y-129952380D02*
X181597676Y-130047618D01*
X181597676Y-130047618D02*
X181692914Y-130142856D01*
X181692914Y-130142856D02*
X181740533Y-130238094D01*
X182454819Y-129190475D02*
X182454819Y-128999999D01*
X182454819Y-128999999D02*
X182407200Y-128904761D01*
X182407200Y-128904761D02*
X182359580Y-128857142D01*
X182359580Y-128857142D02*
X182216723Y-128761904D01*
X182216723Y-128761904D02*
X182026247Y-128714285D01*
X182026247Y-128714285D02*
X181645295Y-128714285D01*
X181645295Y-128714285D02*
X181550057Y-128761904D01*
X181550057Y-128761904D02*
X181502438Y-128809523D01*
X181502438Y-128809523D02*
X181454819Y-128904761D01*
X181454819Y-128904761D02*
X181454819Y-129095237D01*
X181454819Y-129095237D02*
X181502438Y-129190475D01*
X181502438Y-129190475D02*
X181550057Y-129238094D01*
X181550057Y-129238094D02*
X181645295Y-129285713D01*
X181645295Y-129285713D02*
X181883390Y-129285713D01*
X181883390Y-129285713D02*
X181978628Y-129238094D01*
X181978628Y-129238094D02*
X182026247Y-129190475D01*
X182026247Y-129190475D02*
X182073866Y-129095237D01*
X182073866Y-129095237D02*
X182073866Y-128904761D01*
X182073866Y-128904761D02*
X182026247Y-128809523D01*
X182026247Y-128809523D02*
X181978628Y-128761904D01*
X181978628Y-128761904D02*
X181883390Y-128714285D01*
X63454819Y-131238094D02*
X64264342Y-131238094D01*
X64264342Y-131238094D02*
X64359580Y-131190475D01*
X64359580Y-131190475D02*
X64407200Y-131142856D01*
X64407200Y-131142856D02*
X64454819Y-131047618D01*
X64454819Y-131047618D02*
X64454819Y-130857142D01*
X64454819Y-130857142D02*
X64407200Y-130761904D01*
X64407200Y-130761904D02*
X64359580Y-130714285D01*
X64359580Y-130714285D02*
X64264342Y-130666666D01*
X64264342Y-130666666D02*
X63454819Y-130666666D01*
X64454819Y-129666666D02*
X64454819Y-130238094D01*
X64454819Y-129952380D02*
X63454819Y-129952380D01*
X63454819Y-129952380D02*
X63597676Y-130047618D01*
X63597676Y-130047618D02*
X63692914Y-130142856D01*
X63692914Y-130142856D02*
X63740533Y-130238094D01*
X63454819Y-129333332D02*
X63454819Y-128714285D01*
X63454819Y-128714285D02*
X63835771Y-129047618D01*
X63835771Y-129047618D02*
X63835771Y-128904761D01*
X63835771Y-128904761D02*
X63883390Y-128809523D01*
X63883390Y-128809523D02*
X63931009Y-128761904D01*
X63931009Y-128761904D02*
X64026247Y-128714285D01*
X64026247Y-128714285D02*
X64264342Y-128714285D01*
X64264342Y-128714285D02*
X64359580Y-128761904D01*
X64359580Y-128761904D02*
X64407200Y-128809523D01*
X64407200Y-128809523D02*
X64454819Y-128904761D01*
X64454819Y-128904761D02*
X64454819Y-129190475D01*
X64454819Y-129190475D02*
X64407200Y-129285713D01*
X64407200Y-129285713D02*
X64359580Y-129333332D01*
X201666666Y-50534819D02*
X201666666Y-51249104D01*
X201666666Y-51249104D02*
X201619047Y-51391961D01*
X201619047Y-51391961D02*
X201523809Y-51487200D01*
X201523809Y-51487200D02*
X201380952Y-51534819D01*
X201380952Y-51534819D02*
X201285714Y-51534819D01*
X202095238Y-50630057D02*
X202142857Y-50582438D01*
X202142857Y-50582438D02*
X202238095Y-50534819D01*
X202238095Y-50534819D02*
X202476190Y-50534819D01*
X202476190Y-50534819D02*
X202571428Y-50582438D01*
X202571428Y-50582438D02*
X202619047Y-50630057D01*
X202619047Y-50630057D02*
X202666666Y-50725295D01*
X202666666Y-50725295D02*
X202666666Y-50820533D01*
X202666666Y-50820533D02*
X202619047Y-50963390D01*
X202619047Y-50963390D02*
X202047619Y-51534819D01*
X202047619Y-51534819D02*
X202666666Y-51534819D01*
X67666666Y-161754819D02*
X67666666Y-162469104D01*
X67666666Y-162469104D02*
X67619047Y-162611961D01*
X67619047Y-162611961D02*
X67523809Y-162707200D01*
X67523809Y-162707200D02*
X67380952Y-162754819D01*
X67380952Y-162754819D02*
X67285714Y-162754819D01*
X68666666Y-162754819D02*
X68095238Y-162754819D01*
X68380952Y-162754819D02*
X68380952Y-161754819D01*
X68380952Y-161754819D02*
X68285714Y-161897676D01*
X68285714Y-161897676D02*
X68190476Y-161992914D01*
X68190476Y-161992914D02*
X68095238Y-162040533D01*
X75024819Y-158166666D02*
X74548628Y-158499999D01*
X75024819Y-158738094D02*
X74024819Y-158738094D01*
X74024819Y-158738094D02*
X74024819Y-158357142D01*
X74024819Y-158357142D02*
X74072438Y-158261904D01*
X74072438Y-158261904D02*
X74120057Y-158214285D01*
X74120057Y-158214285D02*
X74215295Y-158166666D01*
X74215295Y-158166666D02*
X74358152Y-158166666D01*
X74358152Y-158166666D02*
X74453390Y-158214285D01*
X74453390Y-158214285D02*
X74501009Y-158261904D01*
X74501009Y-158261904D02*
X74548628Y-158357142D01*
X74548628Y-158357142D02*
X74548628Y-158738094D01*
X74358152Y-157309523D02*
X75024819Y-157309523D01*
X73977200Y-157547618D02*
X74691485Y-157785713D01*
X74691485Y-157785713D02*
X74691485Y-157166666D01*
X105309523Y-145654819D02*
X104976190Y-145178628D01*
X104738095Y-145654819D02*
X104738095Y-144654819D01*
X104738095Y-144654819D02*
X105119047Y-144654819D01*
X105119047Y-144654819D02*
X105214285Y-144702438D01*
X105214285Y-144702438D02*
X105261904Y-144750057D01*
X105261904Y-144750057D02*
X105309523Y-144845295D01*
X105309523Y-144845295D02*
X105309523Y-144988152D01*
X105309523Y-144988152D02*
X105261904Y-145083390D01*
X105261904Y-145083390D02*
X105214285Y-145131009D01*
X105214285Y-145131009D02*
X105119047Y-145178628D01*
X105119047Y-145178628D02*
X104738095Y-145178628D01*
X105738095Y-145654819D02*
X105738095Y-144654819D01*
X105738095Y-144654819D02*
X106309523Y-145654819D01*
X106309523Y-145654819D02*
X106309523Y-144654819D01*
X107309523Y-145654819D02*
X106738095Y-145654819D01*
X107023809Y-145654819D02*
X107023809Y-144654819D01*
X107023809Y-144654819D02*
X106928571Y-144797676D01*
X106928571Y-144797676D02*
X106833333Y-144892914D01*
X106833333Y-144892914D02*
X106738095Y-144940533D01*
X157454819Y-57238094D02*
X158264342Y-57238094D01*
X158264342Y-57238094D02*
X158359580Y-57190475D01*
X158359580Y-57190475D02*
X158407200Y-57142856D01*
X158407200Y-57142856D02*
X158454819Y-57047618D01*
X158454819Y-57047618D02*
X158454819Y-56857142D01*
X158454819Y-56857142D02*
X158407200Y-56761904D01*
X158407200Y-56761904D02*
X158359580Y-56714285D01*
X158359580Y-56714285D02*
X158264342Y-56666666D01*
X158264342Y-56666666D02*
X157454819Y-56666666D01*
X157550057Y-56238094D02*
X157502438Y-56190475D01*
X157502438Y-56190475D02*
X157454819Y-56095237D01*
X157454819Y-56095237D02*
X157454819Y-55857142D01*
X157454819Y-55857142D02*
X157502438Y-55761904D01*
X157502438Y-55761904D02*
X157550057Y-55714285D01*
X157550057Y-55714285D02*
X157645295Y-55666666D01*
X157645295Y-55666666D02*
X157740533Y-55666666D01*
X157740533Y-55666666D02*
X157883390Y-55714285D01*
X157883390Y-55714285D02*
X158454819Y-56285713D01*
X158454819Y-56285713D02*
X158454819Y-55666666D01*
X157788152Y-54809523D02*
X158454819Y-54809523D01*
X157407200Y-55047618D02*
X158121485Y-55285713D01*
X158121485Y-55285713D02*
X158121485Y-54666666D01*
X81832142Y-122484580D02*
X81784523Y-122532200D01*
X81784523Y-122532200D02*
X81641666Y-122579819D01*
X81641666Y-122579819D02*
X81546428Y-122579819D01*
X81546428Y-122579819D02*
X81403571Y-122532200D01*
X81403571Y-122532200D02*
X81308333Y-122436961D01*
X81308333Y-122436961D02*
X81260714Y-122341723D01*
X81260714Y-122341723D02*
X81213095Y-122151247D01*
X81213095Y-122151247D02*
X81213095Y-122008390D01*
X81213095Y-122008390D02*
X81260714Y-121817914D01*
X81260714Y-121817914D02*
X81308333Y-121722676D01*
X81308333Y-121722676D02*
X81403571Y-121627438D01*
X81403571Y-121627438D02*
X81546428Y-121579819D01*
X81546428Y-121579819D02*
X81641666Y-121579819D01*
X81641666Y-121579819D02*
X81784523Y-121627438D01*
X81784523Y-121627438D02*
X81832142Y-121675057D01*
X82213095Y-121675057D02*
X82260714Y-121627438D01*
X82260714Y-121627438D02*
X82355952Y-121579819D01*
X82355952Y-121579819D02*
X82594047Y-121579819D01*
X82594047Y-121579819D02*
X82689285Y-121627438D01*
X82689285Y-121627438D02*
X82736904Y-121675057D01*
X82736904Y-121675057D02*
X82784523Y-121770295D01*
X82784523Y-121770295D02*
X82784523Y-121865533D01*
X82784523Y-121865533D02*
X82736904Y-122008390D01*
X82736904Y-122008390D02*
X82165476Y-122579819D01*
X82165476Y-122579819D02*
X82784523Y-122579819D01*
X83641666Y-121913152D02*
X83641666Y-122579819D01*
X83403571Y-121532200D02*
X83165476Y-122246485D01*
X83165476Y-122246485D02*
X83784523Y-122246485D01*
X122007142Y-89034580D02*
X121959523Y-89082200D01*
X121959523Y-89082200D02*
X121816666Y-89129819D01*
X121816666Y-89129819D02*
X121721428Y-89129819D01*
X121721428Y-89129819D02*
X121578571Y-89082200D01*
X121578571Y-89082200D02*
X121483333Y-88986961D01*
X121483333Y-88986961D02*
X121435714Y-88891723D01*
X121435714Y-88891723D02*
X121388095Y-88701247D01*
X121388095Y-88701247D02*
X121388095Y-88558390D01*
X121388095Y-88558390D02*
X121435714Y-88367914D01*
X121435714Y-88367914D02*
X121483333Y-88272676D01*
X121483333Y-88272676D02*
X121578571Y-88177438D01*
X121578571Y-88177438D02*
X121721428Y-88129819D01*
X121721428Y-88129819D02*
X121816666Y-88129819D01*
X121816666Y-88129819D02*
X121959523Y-88177438D01*
X121959523Y-88177438D02*
X122007142Y-88225057D01*
X122959523Y-89129819D02*
X122388095Y-89129819D01*
X122673809Y-89129819D02*
X122673809Y-88129819D01*
X122673809Y-88129819D02*
X122578571Y-88272676D01*
X122578571Y-88272676D02*
X122483333Y-88367914D01*
X122483333Y-88367914D02*
X122388095Y-88415533D01*
X123435714Y-89129819D02*
X123626190Y-89129819D01*
X123626190Y-89129819D02*
X123721428Y-89082200D01*
X123721428Y-89082200D02*
X123769047Y-89034580D01*
X123769047Y-89034580D02*
X123864285Y-88891723D01*
X123864285Y-88891723D02*
X123911904Y-88701247D01*
X123911904Y-88701247D02*
X123911904Y-88320295D01*
X123911904Y-88320295D02*
X123864285Y-88225057D01*
X123864285Y-88225057D02*
X123816666Y-88177438D01*
X123816666Y-88177438D02*
X123721428Y-88129819D01*
X123721428Y-88129819D02*
X123530952Y-88129819D01*
X123530952Y-88129819D02*
X123435714Y-88177438D01*
X123435714Y-88177438D02*
X123388095Y-88225057D01*
X123388095Y-88225057D02*
X123340476Y-88320295D01*
X123340476Y-88320295D02*
X123340476Y-88558390D01*
X123340476Y-88558390D02*
X123388095Y-88653628D01*
X123388095Y-88653628D02*
X123435714Y-88701247D01*
X123435714Y-88701247D02*
X123530952Y-88748866D01*
X123530952Y-88748866D02*
X123721428Y-88748866D01*
X123721428Y-88748866D02*
X123816666Y-88701247D01*
X123816666Y-88701247D02*
X123864285Y-88653628D01*
X123864285Y-88653628D02*
X123911904Y-88558390D01*
X141454819Y-57238094D02*
X142264342Y-57238094D01*
X142264342Y-57238094D02*
X142359580Y-57190475D01*
X142359580Y-57190475D02*
X142407200Y-57142856D01*
X142407200Y-57142856D02*
X142454819Y-57047618D01*
X142454819Y-57047618D02*
X142454819Y-56857142D01*
X142454819Y-56857142D02*
X142407200Y-56761904D01*
X142407200Y-56761904D02*
X142359580Y-56714285D01*
X142359580Y-56714285D02*
X142264342Y-56666666D01*
X142264342Y-56666666D02*
X141454819Y-56666666D01*
X141550057Y-56238094D02*
X141502438Y-56190475D01*
X141502438Y-56190475D02*
X141454819Y-56095237D01*
X141454819Y-56095237D02*
X141454819Y-55857142D01*
X141454819Y-55857142D02*
X141502438Y-55761904D01*
X141502438Y-55761904D02*
X141550057Y-55714285D01*
X141550057Y-55714285D02*
X141645295Y-55666666D01*
X141645295Y-55666666D02*
X141740533Y-55666666D01*
X141740533Y-55666666D02*
X141883390Y-55714285D01*
X141883390Y-55714285D02*
X142454819Y-56285713D01*
X142454819Y-56285713D02*
X142454819Y-55666666D01*
X141550057Y-55285713D02*
X141502438Y-55238094D01*
X141502438Y-55238094D02*
X141454819Y-55142856D01*
X141454819Y-55142856D02*
X141454819Y-54904761D01*
X141454819Y-54904761D02*
X141502438Y-54809523D01*
X141502438Y-54809523D02*
X141550057Y-54761904D01*
X141550057Y-54761904D02*
X141645295Y-54714285D01*
X141645295Y-54714285D02*
X141740533Y-54714285D01*
X141740533Y-54714285D02*
X141883390Y-54761904D01*
X141883390Y-54761904D02*
X142454819Y-55333332D01*
X142454819Y-55333332D02*
X142454819Y-54714285D01*
X149454819Y-131238094D02*
X150264342Y-131238094D01*
X150264342Y-131238094D02*
X150359580Y-131190475D01*
X150359580Y-131190475D02*
X150407200Y-131142856D01*
X150407200Y-131142856D02*
X150454819Y-131047618D01*
X150454819Y-131047618D02*
X150454819Y-130857142D01*
X150454819Y-130857142D02*
X150407200Y-130761904D01*
X150407200Y-130761904D02*
X150359580Y-130714285D01*
X150359580Y-130714285D02*
X150264342Y-130666666D01*
X150264342Y-130666666D02*
X149454819Y-130666666D01*
X150454819Y-129666666D02*
X150454819Y-130238094D01*
X150454819Y-129952380D02*
X149454819Y-129952380D01*
X149454819Y-129952380D02*
X149597676Y-130047618D01*
X149597676Y-130047618D02*
X149692914Y-130142856D01*
X149692914Y-130142856D02*
X149740533Y-130238094D01*
X149454819Y-129333332D02*
X149454819Y-128666666D01*
X149454819Y-128666666D02*
X150454819Y-129095237D01*
X170007142Y-89034580D02*
X169959523Y-89082200D01*
X169959523Y-89082200D02*
X169816666Y-89129819D01*
X169816666Y-89129819D02*
X169721428Y-89129819D01*
X169721428Y-89129819D02*
X169578571Y-89082200D01*
X169578571Y-89082200D02*
X169483333Y-88986961D01*
X169483333Y-88986961D02*
X169435714Y-88891723D01*
X169435714Y-88891723D02*
X169388095Y-88701247D01*
X169388095Y-88701247D02*
X169388095Y-88558390D01*
X169388095Y-88558390D02*
X169435714Y-88367914D01*
X169435714Y-88367914D02*
X169483333Y-88272676D01*
X169483333Y-88272676D02*
X169578571Y-88177438D01*
X169578571Y-88177438D02*
X169721428Y-88129819D01*
X169721428Y-88129819D02*
X169816666Y-88129819D01*
X169816666Y-88129819D02*
X169959523Y-88177438D01*
X169959523Y-88177438D02*
X170007142Y-88225057D01*
X170959523Y-89129819D02*
X170388095Y-89129819D01*
X170673809Y-89129819D02*
X170673809Y-88129819D01*
X170673809Y-88129819D02*
X170578571Y-88272676D01*
X170578571Y-88272676D02*
X170483333Y-88367914D01*
X170483333Y-88367914D02*
X170388095Y-88415533D01*
X171816666Y-88463152D02*
X171816666Y-89129819D01*
X171578571Y-88082200D02*
X171340476Y-88796485D01*
X171340476Y-88796485D02*
X171959523Y-88796485D01*
X189832142Y-90484580D02*
X189784523Y-90532200D01*
X189784523Y-90532200D02*
X189641666Y-90579819D01*
X189641666Y-90579819D02*
X189546428Y-90579819D01*
X189546428Y-90579819D02*
X189403571Y-90532200D01*
X189403571Y-90532200D02*
X189308333Y-90436961D01*
X189308333Y-90436961D02*
X189260714Y-90341723D01*
X189260714Y-90341723D02*
X189213095Y-90151247D01*
X189213095Y-90151247D02*
X189213095Y-90008390D01*
X189213095Y-90008390D02*
X189260714Y-89817914D01*
X189260714Y-89817914D02*
X189308333Y-89722676D01*
X189308333Y-89722676D02*
X189403571Y-89627438D01*
X189403571Y-89627438D02*
X189546428Y-89579819D01*
X189546428Y-89579819D02*
X189641666Y-89579819D01*
X189641666Y-89579819D02*
X189784523Y-89627438D01*
X189784523Y-89627438D02*
X189832142Y-89675057D01*
X190213095Y-89675057D02*
X190260714Y-89627438D01*
X190260714Y-89627438D02*
X190355952Y-89579819D01*
X190355952Y-89579819D02*
X190594047Y-89579819D01*
X190594047Y-89579819D02*
X190689285Y-89627438D01*
X190689285Y-89627438D02*
X190736904Y-89675057D01*
X190736904Y-89675057D02*
X190784523Y-89770295D01*
X190784523Y-89770295D02*
X190784523Y-89865533D01*
X190784523Y-89865533D02*
X190736904Y-90008390D01*
X190736904Y-90008390D02*
X190165476Y-90579819D01*
X190165476Y-90579819D02*
X190784523Y-90579819D01*
X191165476Y-89675057D02*
X191213095Y-89627438D01*
X191213095Y-89627438D02*
X191308333Y-89579819D01*
X191308333Y-89579819D02*
X191546428Y-89579819D01*
X191546428Y-89579819D02*
X191641666Y-89627438D01*
X191641666Y-89627438D02*
X191689285Y-89675057D01*
X191689285Y-89675057D02*
X191736904Y-89770295D01*
X191736904Y-89770295D02*
X191736904Y-89865533D01*
X191736904Y-89865533D02*
X191689285Y-90008390D01*
X191689285Y-90008390D02*
X191117857Y-90579819D01*
X191117857Y-90579819D02*
X191736904Y-90579819D01*
X195523809Y-35928628D02*
X195523809Y-36404819D01*
X195190476Y-35404819D02*
X195523809Y-35928628D01*
X195523809Y-35928628D02*
X195857142Y-35404819D01*
X196714285Y-36404819D02*
X196142857Y-36404819D01*
X196428571Y-36404819D02*
X196428571Y-35404819D01*
X196428571Y-35404819D02*
X196333333Y-35547676D01*
X196333333Y-35547676D02*
X196238095Y-35642914D01*
X196238095Y-35642914D02*
X196142857Y-35690533D01*
X194666667Y-70657200D02*
X194809524Y-70704819D01*
X194809524Y-70704819D02*
X195047619Y-70704819D01*
X195047619Y-70704819D02*
X195142857Y-70657200D01*
X195142857Y-70657200D02*
X195190476Y-70609580D01*
X195190476Y-70609580D02*
X195238095Y-70514342D01*
X195238095Y-70514342D02*
X195238095Y-70419104D01*
X195238095Y-70419104D02*
X195190476Y-70323866D01*
X195190476Y-70323866D02*
X195142857Y-70276247D01*
X195142857Y-70276247D02*
X195047619Y-70228628D01*
X195047619Y-70228628D02*
X194857143Y-70181009D01*
X194857143Y-70181009D02*
X194761905Y-70133390D01*
X194761905Y-70133390D02*
X194714286Y-70085771D01*
X194714286Y-70085771D02*
X194666667Y-69990533D01*
X194666667Y-69990533D02*
X194666667Y-69895295D01*
X194666667Y-69895295D02*
X194714286Y-69800057D01*
X194714286Y-69800057D02*
X194761905Y-69752438D01*
X194761905Y-69752438D02*
X194857143Y-69704819D01*
X194857143Y-69704819D02*
X195095238Y-69704819D01*
X195095238Y-69704819D02*
X195238095Y-69752438D01*
X195571429Y-69704819D02*
X195809524Y-70704819D01*
X195809524Y-70704819D02*
X196000000Y-69990533D01*
X196000000Y-69990533D02*
X196190476Y-70704819D01*
X196190476Y-70704819D02*
X196428572Y-69704819D01*
X197333333Y-70704819D02*
X196761905Y-70704819D01*
X197047619Y-70704819D02*
X197047619Y-69704819D01*
X197047619Y-69704819D02*
X196952381Y-69847676D01*
X196952381Y-69847676D02*
X196857143Y-69942914D01*
X196857143Y-69942914D02*
X196761905Y-69990533D01*
X70977142Y-35584580D02*
X70929523Y-35632200D01*
X70929523Y-35632200D02*
X70786666Y-35679819D01*
X70786666Y-35679819D02*
X70691428Y-35679819D01*
X70691428Y-35679819D02*
X70548571Y-35632200D01*
X70548571Y-35632200D02*
X70453333Y-35536961D01*
X70453333Y-35536961D02*
X70405714Y-35441723D01*
X70405714Y-35441723D02*
X70358095Y-35251247D01*
X70358095Y-35251247D02*
X70358095Y-35108390D01*
X70358095Y-35108390D02*
X70405714Y-34917914D01*
X70405714Y-34917914D02*
X70453333Y-34822676D01*
X70453333Y-34822676D02*
X70548571Y-34727438D01*
X70548571Y-34727438D02*
X70691428Y-34679819D01*
X70691428Y-34679819D02*
X70786666Y-34679819D01*
X70786666Y-34679819D02*
X70929523Y-34727438D01*
X70929523Y-34727438D02*
X70977142Y-34775057D01*
X71929523Y-35679819D02*
X71358095Y-35679819D01*
X71643809Y-35679819D02*
X71643809Y-34679819D01*
X71643809Y-34679819D02*
X71548571Y-34822676D01*
X71548571Y-34822676D02*
X71453333Y-34917914D01*
X71453333Y-34917914D02*
X71358095Y-34965533D01*
X72548571Y-34679819D02*
X72643809Y-34679819D01*
X72643809Y-34679819D02*
X72739047Y-34727438D01*
X72739047Y-34727438D02*
X72786666Y-34775057D01*
X72786666Y-34775057D02*
X72834285Y-34870295D01*
X72834285Y-34870295D02*
X72881904Y-35060771D01*
X72881904Y-35060771D02*
X72881904Y-35298866D01*
X72881904Y-35298866D02*
X72834285Y-35489342D01*
X72834285Y-35489342D02*
X72786666Y-35584580D01*
X72786666Y-35584580D02*
X72739047Y-35632200D01*
X72739047Y-35632200D02*
X72643809Y-35679819D01*
X72643809Y-35679819D02*
X72548571Y-35679819D01*
X72548571Y-35679819D02*
X72453333Y-35632200D01*
X72453333Y-35632200D02*
X72405714Y-35584580D01*
X72405714Y-35584580D02*
X72358095Y-35489342D01*
X72358095Y-35489342D02*
X72310476Y-35298866D01*
X72310476Y-35298866D02*
X72310476Y-35060771D01*
X72310476Y-35060771D02*
X72358095Y-34870295D01*
X72358095Y-34870295D02*
X72405714Y-34775057D01*
X72405714Y-34775057D02*
X72453333Y-34727438D01*
X72453333Y-34727438D02*
X72548571Y-34679819D01*
X85454819Y-56761904D02*
X86264342Y-56761904D01*
X86264342Y-56761904D02*
X86359580Y-56714285D01*
X86359580Y-56714285D02*
X86407200Y-56666666D01*
X86407200Y-56666666D02*
X86454819Y-56571428D01*
X86454819Y-56571428D02*
X86454819Y-56380952D01*
X86454819Y-56380952D02*
X86407200Y-56285714D01*
X86407200Y-56285714D02*
X86359580Y-56238095D01*
X86359580Y-56238095D02*
X86264342Y-56190476D01*
X86264342Y-56190476D02*
X85454819Y-56190476D01*
X85550057Y-55761904D02*
X85502438Y-55714285D01*
X85502438Y-55714285D02*
X85454819Y-55619047D01*
X85454819Y-55619047D02*
X85454819Y-55380952D01*
X85454819Y-55380952D02*
X85502438Y-55285714D01*
X85502438Y-55285714D02*
X85550057Y-55238095D01*
X85550057Y-55238095D02*
X85645295Y-55190476D01*
X85645295Y-55190476D02*
X85740533Y-55190476D01*
X85740533Y-55190476D02*
X85883390Y-55238095D01*
X85883390Y-55238095D02*
X86454819Y-55809523D01*
X86454819Y-55809523D02*
X86454819Y-55190476D01*
X99261905Y-163024819D02*
X99261905Y-162024819D01*
X99261905Y-162024819D02*
X99500000Y-162024819D01*
X99500000Y-162024819D02*
X99642857Y-162072438D01*
X99642857Y-162072438D02*
X99738095Y-162167676D01*
X99738095Y-162167676D02*
X99785714Y-162262914D01*
X99785714Y-162262914D02*
X99833333Y-162453390D01*
X99833333Y-162453390D02*
X99833333Y-162596247D01*
X99833333Y-162596247D02*
X99785714Y-162786723D01*
X99785714Y-162786723D02*
X99738095Y-162881961D01*
X99738095Y-162881961D02*
X99642857Y-162977200D01*
X99642857Y-162977200D02*
X99500000Y-163024819D01*
X99500000Y-163024819D02*
X99261905Y-163024819D01*
X100785714Y-163024819D02*
X100214286Y-163024819D01*
X100500000Y-163024819D02*
X100500000Y-162024819D01*
X100500000Y-162024819D02*
X100404762Y-162167676D01*
X100404762Y-162167676D02*
X100309524Y-162262914D01*
X100309524Y-162262914D02*
X100214286Y-162310533D01*
X101832142Y-90484580D02*
X101784523Y-90532200D01*
X101784523Y-90532200D02*
X101641666Y-90579819D01*
X101641666Y-90579819D02*
X101546428Y-90579819D01*
X101546428Y-90579819D02*
X101403571Y-90532200D01*
X101403571Y-90532200D02*
X101308333Y-90436961D01*
X101308333Y-90436961D02*
X101260714Y-90341723D01*
X101260714Y-90341723D02*
X101213095Y-90151247D01*
X101213095Y-90151247D02*
X101213095Y-90008390D01*
X101213095Y-90008390D02*
X101260714Y-89817914D01*
X101260714Y-89817914D02*
X101308333Y-89722676D01*
X101308333Y-89722676D02*
X101403571Y-89627438D01*
X101403571Y-89627438D02*
X101546428Y-89579819D01*
X101546428Y-89579819D02*
X101641666Y-89579819D01*
X101641666Y-89579819D02*
X101784523Y-89627438D01*
X101784523Y-89627438D02*
X101832142Y-89675057D01*
X102784523Y-90579819D02*
X102213095Y-90579819D01*
X102498809Y-90579819D02*
X102498809Y-89579819D01*
X102498809Y-89579819D02*
X102403571Y-89722676D01*
X102403571Y-89722676D02*
X102308333Y-89817914D01*
X102308333Y-89817914D02*
X102213095Y-89865533D01*
X103117857Y-89579819D02*
X103784523Y-89579819D01*
X103784523Y-89579819D02*
X103355952Y-90579819D01*
X117454819Y-98761904D02*
X118264342Y-98761904D01*
X118264342Y-98761904D02*
X118359580Y-98714285D01*
X118359580Y-98714285D02*
X118407200Y-98666666D01*
X118407200Y-98666666D02*
X118454819Y-98571428D01*
X118454819Y-98571428D02*
X118454819Y-98380952D01*
X118454819Y-98380952D02*
X118407200Y-98285714D01*
X118407200Y-98285714D02*
X118359580Y-98238095D01*
X118359580Y-98238095D02*
X118264342Y-98190476D01*
X118264342Y-98190476D02*
X117454819Y-98190476D01*
X117883390Y-97571428D02*
X117835771Y-97666666D01*
X117835771Y-97666666D02*
X117788152Y-97714285D01*
X117788152Y-97714285D02*
X117692914Y-97761904D01*
X117692914Y-97761904D02*
X117645295Y-97761904D01*
X117645295Y-97761904D02*
X117550057Y-97714285D01*
X117550057Y-97714285D02*
X117502438Y-97666666D01*
X117502438Y-97666666D02*
X117454819Y-97571428D01*
X117454819Y-97571428D02*
X117454819Y-97380952D01*
X117454819Y-97380952D02*
X117502438Y-97285714D01*
X117502438Y-97285714D02*
X117550057Y-97238095D01*
X117550057Y-97238095D02*
X117645295Y-97190476D01*
X117645295Y-97190476D02*
X117692914Y-97190476D01*
X117692914Y-97190476D02*
X117788152Y-97238095D01*
X117788152Y-97238095D02*
X117835771Y-97285714D01*
X117835771Y-97285714D02*
X117883390Y-97380952D01*
X117883390Y-97380952D02*
X117883390Y-97571428D01*
X117883390Y-97571428D02*
X117931009Y-97666666D01*
X117931009Y-97666666D02*
X117978628Y-97714285D01*
X117978628Y-97714285D02*
X118073866Y-97761904D01*
X118073866Y-97761904D02*
X118264342Y-97761904D01*
X118264342Y-97761904D02*
X118359580Y-97714285D01*
X118359580Y-97714285D02*
X118407200Y-97666666D01*
X118407200Y-97666666D02*
X118454819Y-97571428D01*
X118454819Y-97571428D02*
X118454819Y-97380952D01*
X118454819Y-97380952D02*
X118407200Y-97285714D01*
X118407200Y-97285714D02*
X118359580Y-97238095D01*
X118359580Y-97238095D02*
X118264342Y-97190476D01*
X118264342Y-97190476D02*
X118073866Y-97190476D01*
X118073866Y-97190476D02*
X117978628Y-97238095D01*
X117978628Y-97238095D02*
X117931009Y-97285714D01*
X117931009Y-97285714D02*
X117883390Y-97380952D01*
X93833333Y-163024819D02*
X93500000Y-162548628D01*
X93261905Y-163024819D02*
X93261905Y-162024819D01*
X93261905Y-162024819D02*
X93642857Y-162024819D01*
X93642857Y-162024819D02*
X93738095Y-162072438D01*
X93738095Y-162072438D02*
X93785714Y-162120057D01*
X93785714Y-162120057D02*
X93833333Y-162215295D01*
X93833333Y-162215295D02*
X93833333Y-162358152D01*
X93833333Y-162358152D02*
X93785714Y-162453390D01*
X93785714Y-162453390D02*
X93738095Y-162501009D01*
X93738095Y-162501009D02*
X93642857Y-162548628D01*
X93642857Y-162548628D02*
X93261905Y-162548628D01*
X94738095Y-162024819D02*
X94261905Y-162024819D01*
X94261905Y-162024819D02*
X94214286Y-162501009D01*
X94214286Y-162501009D02*
X94261905Y-162453390D01*
X94261905Y-162453390D02*
X94357143Y-162405771D01*
X94357143Y-162405771D02*
X94595238Y-162405771D01*
X94595238Y-162405771D02*
X94690476Y-162453390D01*
X94690476Y-162453390D02*
X94738095Y-162501009D01*
X94738095Y-162501009D02*
X94785714Y-162596247D01*
X94785714Y-162596247D02*
X94785714Y-162834342D01*
X94785714Y-162834342D02*
X94738095Y-162929580D01*
X94738095Y-162929580D02*
X94690476Y-162977200D01*
X94690476Y-162977200D02*
X94595238Y-163024819D01*
X94595238Y-163024819D02*
X94357143Y-163024819D01*
X94357143Y-163024819D02*
X94261905Y-162977200D01*
X94261905Y-162977200D02*
X94214286Y-162929580D01*
X81666666Y-162101009D02*
X81333333Y-162101009D01*
X81333333Y-162624819D02*
X81333333Y-161624819D01*
X81333333Y-161624819D02*
X81809523Y-161624819D01*
X82714285Y-162624819D02*
X82142857Y-162624819D01*
X82428571Y-162624819D02*
X82428571Y-161624819D01*
X82428571Y-161624819D02*
X82333333Y-161767676D01*
X82333333Y-161767676D02*
X82238095Y-161862914D01*
X82238095Y-161862914D02*
X82142857Y-161910533D01*
X201833333Y-78929580D02*
X201785714Y-78977200D01*
X201785714Y-78977200D02*
X201642857Y-79024819D01*
X201642857Y-79024819D02*
X201547619Y-79024819D01*
X201547619Y-79024819D02*
X201404762Y-78977200D01*
X201404762Y-78977200D02*
X201309524Y-78881961D01*
X201309524Y-78881961D02*
X201261905Y-78786723D01*
X201261905Y-78786723D02*
X201214286Y-78596247D01*
X201214286Y-78596247D02*
X201214286Y-78453390D01*
X201214286Y-78453390D02*
X201261905Y-78262914D01*
X201261905Y-78262914D02*
X201309524Y-78167676D01*
X201309524Y-78167676D02*
X201404762Y-78072438D01*
X201404762Y-78072438D02*
X201547619Y-78024819D01*
X201547619Y-78024819D02*
X201642857Y-78024819D01*
X201642857Y-78024819D02*
X201785714Y-78072438D01*
X201785714Y-78072438D02*
X201833333Y-78120057D01*
X202785714Y-79024819D02*
X202214286Y-79024819D01*
X202500000Y-79024819D02*
X202500000Y-78024819D01*
X202500000Y-78024819D02*
X202404762Y-78167676D01*
X202404762Y-78167676D02*
X202309524Y-78262914D01*
X202309524Y-78262914D02*
X202214286Y-78310533D01*
X173454819Y-57238094D02*
X174264342Y-57238094D01*
X174264342Y-57238094D02*
X174359580Y-57190475D01*
X174359580Y-57190475D02*
X174407200Y-57142856D01*
X174407200Y-57142856D02*
X174454819Y-57047618D01*
X174454819Y-57047618D02*
X174454819Y-56857142D01*
X174454819Y-56857142D02*
X174407200Y-56761904D01*
X174407200Y-56761904D02*
X174359580Y-56714285D01*
X174359580Y-56714285D02*
X174264342Y-56666666D01*
X174264342Y-56666666D02*
X173454819Y-56666666D01*
X173550057Y-56238094D02*
X173502438Y-56190475D01*
X173502438Y-56190475D02*
X173454819Y-56095237D01*
X173454819Y-56095237D02*
X173454819Y-55857142D01*
X173454819Y-55857142D02*
X173502438Y-55761904D01*
X173502438Y-55761904D02*
X173550057Y-55714285D01*
X173550057Y-55714285D02*
X173645295Y-55666666D01*
X173645295Y-55666666D02*
X173740533Y-55666666D01*
X173740533Y-55666666D02*
X173883390Y-55714285D01*
X173883390Y-55714285D02*
X174454819Y-56285713D01*
X174454819Y-56285713D02*
X174454819Y-55666666D01*
X173454819Y-55333332D02*
X173454819Y-54714285D01*
X173454819Y-54714285D02*
X173835771Y-55047618D01*
X173835771Y-55047618D02*
X173835771Y-54904761D01*
X173835771Y-54904761D02*
X173883390Y-54809523D01*
X173883390Y-54809523D02*
X173931009Y-54761904D01*
X173931009Y-54761904D02*
X174026247Y-54714285D01*
X174026247Y-54714285D02*
X174264342Y-54714285D01*
X174264342Y-54714285D02*
X174359580Y-54761904D01*
X174359580Y-54761904D02*
X174407200Y-54809523D01*
X174407200Y-54809523D02*
X174454819Y-54904761D01*
X174454819Y-54904761D02*
X174454819Y-55190475D01*
X174454819Y-55190475D02*
X174407200Y-55285713D01*
X174407200Y-55285713D02*
X174359580Y-55333332D01*
X103644819Y-162333333D02*
X104359104Y-162333333D01*
X104359104Y-162333333D02*
X104501961Y-162380952D01*
X104501961Y-162380952D02*
X104597200Y-162476190D01*
X104597200Y-162476190D02*
X104644819Y-162619047D01*
X104644819Y-162619047D02*
X104644819Y-162714285D01*
X103644819Y-161952380D02*
X103644819Y-161333333D01*
X103644819Y-161333333D02*
X104025771Y-161666666D01*
X104025771Y-161666666D02*
X104025771Y-161523809D01*
X104025771Y-161523809D02*
X104073390Y-161428571D01*
X104073390Y-161428571D02*
X104121009Y-161380952D01*
X104121009Y-161380952D02*
X104216247Y-161333333D01*
X104216247Y-161333333D02*
X104454342Y-161333333D01*
X104454342Y-161333333D02*
X104549580Y-161380952D01*
X104549580Y-161380952D02*
X104597200Y-161428571D01*
X104597200Y-161428571D02*
X104644819Y-161523809D01*
X104644819Y-161523809D02*
X104644819Y-161809523D01*
X104644819Y-161809523D02*
X104597200Y-161904761D01*
X104597200Y-161904761D02*
X104549580Y-161952380D01*
X143832142Y-48484580D02*
X143784523Y-48532200D01*
X143784523Y-48532200D02*
X143641666Y-48579819D01*
X143641666Y-48579819D02*
X143546428Y-48579819D01*
X143546428Y-48579819D02*
X143403571Y-48532200D01*
X143403571Y-48532200D02*
X143308333Y-48436961D01*
X143308333Y-48436961D02*
X143260714Y-48341723D01*
X143260714Y-48341723D02*
X143213095Y-48151247D01*
X143213095Y-48151247D02*
X143213095Y-48008390D01*
X143213095Y-48008390D02*
X143260714Y-47817914D01*
X143260714Y-47817914D02*
X143308333Y-47722676D01*
X143308333Y-47722676D02*
X143403571Y-47627438D01*
X143403571Y-47627438D02*
X143546428Y-47579819D01*
X143546428Y-47579819D02*
X143641666Y-47579819D01*
X143641666Y-47579819D02*
X143784523Y-47627438D01*
X143784523Y-47627438D02*
X143832142Y-47675057D01*
X144165476Y-47579819D02*
X144784523Y-47579819D01*
X144784523Y-47579819D02*
X144451190Y-47960771D01*
X144451190Y-47960771D02*
X144594047Y-47960771D01*
X144594047Y-47960771D02*
X144689285Y-48008390D01*
X144689285Y-48008390D02*
X144736904Y-48056009D01*
X144736904Y-48056009D02*
X144784523Y-48151247D01*
X144784523Y-48151247D02*
X144784523Y-48389342D01*
X144784523Y-48389342D02*
X144736904Y-48484580D01*
X144736904Y-48484580D02*
X144689285Y-48532200D01*
X144689285Y-48532200D02*
X144594047Y-48579819D01*
X144594047Y-48579819D02*
X144308333Y-48579819D01*
X144308333Y-48579819D02*
X144213095Y-48532200D01*
X144213095Y-48532200D02*
X144165476Y-48484580D01*
X145117857Y-47579819D02*
X145736904Y-47579819D01*
X145736904Y-47579819D02*
X145403571Y-47960771D01*
X145403571Y-47960771D02*
X145546428Y-47960771D01*
X145546428Y-47960771D02*
X145641666Y-48008390D01*
X145641666Y-48008390D02*
X145689285Y-48056009D01*
X145689285Y-48056009D02*
X145736904Y-48151247D01*
X145736904Y-48151247D02*
X145736904Y-48389342D01*
X145736904Y-48389342D02*
X145689285Y-48484580D01*
X145689285Y-48484580D02*
X145641666Y-48532200D01*
X145641666Y-48532200D02*
X145546428Y-48579819D01*
X145546428Y-48579819D02*
X145260714Y-48579819D01*
X145260714Y-48579819D02*
X145165476Y-48532200D01*
X145165476Y-48532200D02*
X145117857Y-48484580D01*
X79454819Y-131238094D02*
X80264342Y-131238094D01*
X80264342Y-131238094D02*
X80359580Y-131190475D01*
X80359580Y-131190475D02*
X80407200Y-131142856D01*
X80407200Y-131142856D02*
X80454819Y-131047618D01*
X80454819Y-131047618D02*
X80454819Y-130857142D01*
X80454819Y-130857142D02*
X80407200Y-130761904D01*
X80407200Y-130761904D02*
X80359580Y-130714285D01*
X80359580Y-130714285D02*
X80264342Y-130666666D01*
X80264342Y-130666666D02*
X79454819Y-130666666D01*
X80454819Y-129666666D02*
X80454819Y-130238094D01*
X80454819Y-129952380D02*
X79454819Y-129952380D01*
X79454819Y-129952380D02*
X79597676Y-130047618D01*
X79597676Y-130047618D02*
X79692914Y-130142856D01*
X79692914Y-130142856D02*
X79740533Y-130238094D01*
X79788152Y-128809523D02*
X80454819Y-128809523D01*
X79407200Y-129047618D02*
X80121485Y-129285713D01*
X80121485Y-129285713D02*
X80121485Y-128666666D01*
X120007142Y-121034580D02*
X119959523Y-121082200D01*
X119959523Y-121082200D02*
X119816666Y-121129819D01*
X119816666Y-121129819D02*
X119721428Y-121129819D01*
X119721428Y-121129819D02*
X119578571Y-121082200D01*
X119578571Y-121082200D02*
X119483333Y-120986961D01*
X119483333Y-120986961D02*
X119435714Y-120891723D01*
X119435714Y-120891723D02*
X119388095Y-120701247D01*
X119388095Y-120701247D02*
X119388095Y-120558390D01*
X119388095Y-120558390D02*
X119435714Y-120367914D01*
X119435714Y-120367914D02*
X119483333Y-120272676D01*
X119483333Y-120272676D02*
X119578571Y-120177438D01*
X119578571Y-120177438D02*
X119721428Y-120129819D01*
X119721428Y-120129819D02*
X119816666Y-120129819D01*
X119816666Y-120129819D02*
X119959523Y-120177438D01*
X119959523Y-120177438D02*
X120007142Y-120225057D01*
X120388095Y-120225057D02*
X120435714Y-120177438D01*
X120435714Y-120177438D02*
X120530952Y-120129819D01*
X120530952Y-120129819D02*
X120769047Y-120129819D01*
X120769047Y-120129819D02*
X120864285Y-120177438D01*
X120864285Y-120177438D02*
X120911904Y-120225057D01*
X120911904Y-120225057D02*
X120959523Y-120320295D01*
X120959523Y-120320295D02*
X120959523Y-120415533D01*
X120959523Y-120415533D02*
X120911904Y-120558390D01*
X120911904Y-120558390D02*
X120340476Y-121129819D01*
X120340476Y-121129819D02*
X120959523Y-121129819D01*
X121816666Y-120129819D02*
X121626190Y-120129819D01*
X121626190Y-120129819D02*
X121530952Y-120177438D01*
X121530952Y-120177438D02*
X121483333Y-120225057D01*
X121483333Y-120225057D02*
X121388095Y-120367914D01*
X121388095Y-120367914D02*
X121340476Y-120558390D01*
X121340476Y-120558390D02*
X121340476Y-120939342D01*
X121340476Y-120939342D02*
X121388095Y-121034580D01*
X121388095Y-121034580D02*
X121435714Y-121082200D01*
X121435714Y-121082200D02*
X121530952Y-121129819D01*
X121530952Y-121129819D02*
X121721428Y-121129819D01*
X121721428Y-121129819D02*
X121816666Y-121082200D01*
X121816666Y-121082200D02*
X121864285Y-121034580D01*
X121864285Y-121034580D02*
X121911904Y-120939342D01*
X121911904Y-120939342D02*
X121911904Y-120701247D01*
X121911904Y-120701247D02*
X121864285Y-120606009D01*
X121864285Y-120606009D02*
X121816666Y-120558390D01*
X121816666Y-120558390D02*
X121721428Y-120510771D01*
X121721428Y-120510771D02*
X121530952Y-120510771D01*
X121530952Y-120510771D02*
X121435714Y-120558390D01*
X121435714Y-120558390D02*
X121388095Y-120606009D01*
X121388095Y-120606009D02*
X121340476Y-120701247D01*
X175832142Y-49104580D02*
X175784523Y-49152200D01*
X175784523Y-49152200D02*
X175641666Y-49199819D01*
X175641666Y-49199819D02*
X175546428Y-49199819D01*
X175546428Y-49199819D02*
X175403571Y-49152200D01*
X175403571Y-49152200D02*
X175308333Y-49056961D01*
X175308333Y-49056961D02*
X175260714Y-48961723D01*
X175260714Y-48961723D02*
X175213095Y-48771247D01*
X175213095Y-48771247D02*
X175213095Y-48628390D01*
X175213095Y-48628390D02*
X175260714Y-48437914D01*
X175260714Y-48437914D02*
X175308333Y-48342676D01*
X175308333Y-48342676D02*
X175403571Y-48247438D01*
X175403571Y-48247438D02*
X175546428Y-48199819D01*
X175546428Y-48199819D02*
X175641666Y-48199819D01*
X175641666Y-48199819D02*
X175784523Y-48247438D01*
X175784523Y-48247438D02*
X175832142Y-48295057D01*
X176213095Y-48295057D02*
X176260714Y-48247438D01*
X176260714Y-48247438D02*
X176355952Y-48199819D01*
X176355952Y-48199819D02*
X176594047Y-48199819D01*
X176594047Y-48199819D02*
X176689285Y-48247438D01*
X176689285Y-48247438D02*
X176736904Y-48295057D01*
X176736904Y-48295057D02*
X176784523Y-48390295D01*
X176784523Y-48390295D02*
X176784523Y-48485533D01*
X176784523Y-48485533D02*
X176736904Y-48628390D01*
X176736904Y-48628390D02*
X176165476Y-49199819D01*
X176165476Y-49199819D02*
X176784523Y-49199819D01*
X177736904Y-49199819D02*
X177165476Y-49199819D01*
X177451190Y-49199819D02*
X177451190Y-48199819D01*
X177451190Y-48199819D02*
X177355952Y-48342676D01*
X177355952Y-48342676D02*
X177260714Y-48437914D01*
X177260714Y-48437914D02*
X177165476Y-48485533D01*
X92977142Y-35584580D02*
X92929523Y-35632200D01*
X92929523Y-35632200D02*
X92786666Y-35679819D01*
X92786666Y-35679819D02*
X92691428Y-35679819D01*
X92691428Y-35679819D02*
X92548571Y-35632200D01*
X92548571Y-35632200D02*
X92453333Y-35536961D01*
X92453333Y-35536961D02*
X92405714Y-35441723D01*
X92405714Y-35441723D02*
X92358095Y-35251247D01*
X92358095Y-35251247D02*
X92358095Y-35108390D01*
X92358095Y-35108390D02*
X92405714Y-34917914D01*
X92405714Y-34917914D02*
X92453333Y-34822676D01*
X92453333Y-34822676D02*
X92548571Y-34727438D01*
X92548571Y-34727438D02*
X92691428Y-34679819D01*
X92691428Y-34679819D02*
X92786666Y-34679819D01*
X92786666Y-34679819D02*
X92929523Y-34727438D01*
X92929523Y-34727438D02*
X92977142Y-34775057D01*
X93929523Y-35679819D02*
X93358095Y-35679819D01*
X93643809Y-35679819D02*
X93643809Y-34679819D01*
X93643809Y-34679819D02*
X93548571Y-34822676D01*
X93548571Y-34822676D02*
X93453333Y-34917914D01*
X93453333Y-34917914D02*
X93358095Y-34965533D01*
X94881904Y-35679819D02*
X94310476Y-35679819D01*
X94596190Y-35679819D02*
X94596190Y-34679819D01*
X94596190Y-34679819D02*
X94500952Y-34822676D01*
X94500952Y-34822676D02*
X94405714Y-34917914D01*
X94405714Y-34917914D02*
X94310476Y-34965533D01*
X70977142Y-77584580D02*
X70929523Y-77632200D01*
X70929523Y-77632200D02*
X70786666Y-77679819D01*
X70786666Y-77679819D02*
X70691428Y-77679819D01*
X70691428Y-77679819D02*
X70548571Y-77632200D01*
X70548571Y-77632200D02*
X70453333Y-77536961D01*
X70453333Y-77536961D02*
X70405714Y-77441723D01*
X70405714Y-77441723D02*
X70358095Y-77251247D01*
X70358095Y-77251247D02*
X70358095Y-77108390D01*
X70358095Y-77108390D02*
X70405714Y-76917914D01*
X70405714Y-76917914D02*
X70453333Y-76822676D01*
X70453333Y-76822676D02*
X70548571Y-76727438D01*
X70548571Y-76727438D02*
X70691428Y-76679819D01*
X70691428Y-76679819D02*
X70786666Y-76679819D01*
X70786666Y-76679819D02*
X70929523Y-76727438D01*
X70929523Y-76727438D02*
X70977142Y-76775057D01*
X71929523Y-77679819D02*
X71358095Y-77679819D01*
X71643809Y-77679819D02*
X71643809Y-76679819D01*
X71643809Y-76679819D02*
X71548571Y-76822676D01*
X71548571Y-76822676D02*
X71453333Y-76917914D01*
X71453333Y-76917914D02*
X71358095Y-76965533D01*
X72500952Y-77108390D02*
X72405714Y-77060771D01*
X72405714Y-77060771D02*
X72358095Y-77013152D01*
X72358095Y-77013152D02*
X72310476Y-76917914D01*
X72310476Y-76917914D02*
X72310476Y-76870295D01*
X72310476Y-76870295D02*
X72358095Y-76775057D01*
X72358095Y-76775057D02*
X72405714Y-76727438D01*
X72405714Y-76727438D02*
X72500952Y-76679819D01*
X72500952Y-76679819D02*
X72691428Y-76679819D01*
X72691428Y-76679819D02*
X72786666Y-76727438D01*
X72786666Y-76727438D02*
X72834285Y-76775057D01*
X72834285Y-76775057D02*
X72881904Y-76870295D01*
X72881904Y-76870295D02*
X72881904Y-76917914D01*
X72881904Y-76917914D02*
X72834285Y-77013152D01*
X72834285Y-77013152D02*
X72786666Y-77060771D01*
X72786666Y-77060771D02*
X72691428Y-77108390D01*
X72691428Y-77108390D02*
X72500952Y-77108390D01*
X72500952Y-77108390D02*
X72405714Y-77156009D01*
X72405714Y-77156009D02*
X72358095Y-77203628D01*
X72358095Y-77203628D02*
X72310476Y-77298866D01*
X72310476Y-77298866D02*
X72310476Y-77489342D01*
X72310476Y-77489342D02*
X72358095Y-77584580D01*
X72358095Y-77584580D02*
X72405714Y-77632200D01*
X72405714Y-77632200D02*
X72500952Y-77679819D01*
X72500952Y-77679819D02*
X72691428Y-77679819D01*
X72691428Y-77679819D02*
X72786666Y-77632200D01*
X72786666Y-77632200D02*
X72834285Y-77584580D01*
X72834285Y-77584580D02*
X72881904Y-77489342D01*
X72881904Y-77489342D02*
X72881904Y-77298866D01*
X72881904Y-77298866D02*
X72834285Y-77203628D01*
X72834285Y-77203628D02*
X72786666Y-77156009D01*
X72786666Y-77156009D02*
X72691428Y-77108390D01*
X112007142Y-47034580D02*
X111959523Y-47082200D01*
X111959523Y-47082200D02*
X111816666Y-47129819D01*
X111816666Y-47129819D02*
X111721428Y-47129819D01*
X111721428Y-47129819D02*
X111578571Y-47082200D01*
X111578571Y-47082200D02*
X111483333Y-46986961D01*
X111483333Y-46986961D02*
X111435714Y-46891723D01*
X111435714Y-46891723D02*
X111388095Y-46701247D01*
X111388095Y-46701247D02*
X111388095Y-46558390D01*
X111388095Y-46558390D02*
X111435714Y-46367914D01*
X111435714Y-46367914D02*
X111483333Y-46272676D01*
X111483333Y-46272676D02*
X111578571Y-46177438D01*
X111578571Y-46177438D02*
X111721428Y-46129819D01*
X111721428Y-46129819D02*
X111816666Y-46129819D01*
X111816666Y-46129819D02*
X111959523Y-46177438D01*
X111959523Y-46177438D02*
X112007142Y-46225057D01*
X112959523Y-47129819D02*
X112388095Y-47129819D01*
X112673809Y-47129819D02*
X112673809Y-46129819D01*
X112673809Y-46129819D02*
X112578571Y-46272676D01*
X112578571Y-46272676D02*
X112483333Y-46367914D01*
X112483333Y-46367914D02*
X112388095Y-46415533D01*
X113340476Y-46225057D02*
X113388095Y-46177438D01*
X113388095Y-46177438D02*
X113483333Y-46129819D01*
X113483333Y-46129819D02*
X113721428Y-46129819D01*
X113721428Y-46129819D02*
X113816666Y-46177438D01*
X113816666Y-46177438D02*
X113864285Y-46225057D01*
X113864285Y-46225057D02*
X113911904Y-46320295D01*
X113911904Y-46320295D02*
X113911904Y-46415533D01*
X113911904Y-46415533D02*
X113864285Y-46558390D01*
X113864285Y-46558390D02*
X113292857Y-47129819D01*
X113292857Y-47129819D02*
X113911904Y-47129819D01*
X85832142Y-90484580D02*
X85784523Y-90532200D01*
X85784523Y-90532200D02*
X85641666Y-90579819D01*
X85641666Y-90579819D02*
X85546428Y-90579819D01*
X85546428Y-90579819D02*
X85403571Y-90532200D01*
X85403571Y-90532200D02*
X85308333Y-90436961D01*
X85308333Y-90436961D02*
X85260714Y-90341723D01*
X85260714Y-90341723D02*
X85213095Y-90151247D01*
X85213095Y-90151247D02*
X85213095Y-90008390D01*
X85213095Y-90008390D02*
X85260714Y-89817914D01*
X85260714Y-89817914D02*
X85308333Y-89722676D01*
X85308333Y-89722676D02*
X85403571Y-89627438D01*
X85403571Y-89627438D02*
X85546428Y-89579819D01*
X85546428Y-89579819D02*
X85641666Y-89579819D01*
X85641666Y-89579819D02*
X85784523Y-89627438D01*
X85784523Y-89627438D02*
X85832142Y-89675057D01*
X86784523Y-90579819D02*
X86213095Y-90579819D01*
X86498809Y-90579819D02*
X86498809Y-89579819D01*
X86498809Y-89579819D02*
X86403571Y-89722676D01*
X86403571Y-89722676D02*
X86308333Y-89817914D01*
X86308333Y-89817914D02*
X86213095Y-89865533D01*
X87641666Y-89579819D02*
X87451190Y-89579819D01*
X87451190Y-89579819D02*
X87355952Y-89627438D01*
X87355952Y-89627438D02*
X87308333Y-89675057D01*
X87308333Y-89675057D02*
X87213095Y-89817914D01*
X87213095Y-89817914D02*
X87165476Y-90008390D01*
X87165476Y-90008390D02*
X87165476Y-90389342D01*
X87165476Y-90389342D02*
X87213095Y-90484580D01*
X87213095Y-90484580D02*
X87260714Y-90532200D01*
X87260714Y-90532200D02*
X87355952Y-90579819D01*
X87355952Y-90579819D02*
X87546428Y-90579819D01*
X87546428Y-90579819D02*
X87641666Y-90532200D01*
X87641666Y-90532200D02*
X87689285Y-90484580D01*
X87689285Y-90484580D02*
X87736904Y-90389342D01*
X87736904Y-90389342D02*
X87736904Y-90151247D01*
X87736904Y-90151247D02*
X87689285Y-90056009D01*
X87689285Y-90056009D02*
X87641666Y-90008390D01*
X87641666Y-90008390D02*
X87546428Y-89960771D01*
X87546428Y-89960771D02*
X87355952Y-89960771D01*
X87355952Y-89960771D02*
X87260714Y-90008390D01*
X87260714Y-90008390D02*
X87213095Y-90056009D01*
X87213095Y-90056009D02*
X87165476Y-90151247D01*
X59024819Y-158166666D02*
X58548628Y-158499999D01*
X59024819Y-158738094D02*
X58024819Y-158738094D01*
X58024819Y-158738094D02*
X58024819Y-158357142D01*
X58024819Y-158357142D02*
X58072438Y-158261904D01*
X58072438Y-158261904D02*
X58120057Y-158214285D01*
X58120057Y-158214285D02*
X58215295Y-158166666D01*
X58215295Y-158166666D02*
X58358152Y-158166666D01*
X58358152Y-158166666D02*
X58453390Y-158214285D01*
X58453390Y-158214285D02*
X58501009Y-158261904D01*
X58501009Y-158261904D02*
X58548628Y-158357142D01*
X58548628Y-158357142D02*
X58548628Y-158738094D01*
X58024819Y-157833332D02*
X58024819Y-157214285D01*
X58024819Y-157214285D02*
X58405771Y-157547618D01*
X58405771Y-157547618D02*
X58405771Y-157404761D01*
X58405771Y-157404761D02*
X58453390Y-157309523D01*
X58453390Y-157309523D02*
X58501009Y-157261904D01*
X58501009Y-157261904D02*
X58596247Y-157214285D01*
X58596247Y-157214285D02*
X58834342Y-157214285D01*
X58834342Y-157214285D02*
X58929580Y-157261904D01*
X58929580Y-157261904D02*
X58977200Y-157309523D01*
X58977200Y-157309523D02*
X59024819Y-157404761D01*
X59024819Y-157404761D02*
X59024819Y-157690475D01*
X59024819Y-157690475D02*
X58977200Y-157785713D01*
X58977200Y-157785713D02*
X58929580Y-157833332D01*
X125454819Y-56761904D02*
X126264342Y-56761904D01*
X126264342Y-56761904D02*
X126359580Y-56714285D01*
X126359580Y-56714285D02*
X126407200Y-56666666D01*
X126407200Y-56666666D02*
X126454819Y-56571428D01*
X126454819Y-56571428D02*
X126454819Y-56380952D01*
X126454819Y-56380952D02*
X126407200Y-56285714D01*
X126407200Y-56285714D02*
X126359580Y-56238095D01*
X126359580Y-56238095D02*
X126264342Y-56190476D01*
X126264342Y-56190476D02*
X125454819Y-56190476D01*
X125454819Y-55809523D02*
X125454819Y-55142857D01*
X125454819Y-55142857D02*
X126454819Y-55571428D01*
X87833333Y-156679580D02*
X87785714Y-156727200D01*
X87785714Y-156727200D02*
X87642857Y-156774819D01*
X87642857Y-156774819D02*
X87547619Y-156774819D01*
X87547619Y-156774819D02*
X87404762Y-156727200D01*
X87404762Y-156727200D02*
X87309524Y-156631961D01*
X87309524Y-156631961D02*
X87261905Y-156536723D01*
X87261905Y-156536723D02*
X87214286Y-156346247D01*
X87214286Y-156346247D02*
X87214286Y-156203390D01*
X87214286Y-156203390D02*
X87261905Y-156012914D01*
X87261905Y-156012914D02*
X87309524Y-155917676D01*
X87309524Y-155917676D02*
X87404762Y-155822438D01*
X87404762Y-155822438D02*
X87547619Y-155774819D01*
X87547619Y-155774819D02*
X87642857Y-155774819D01*
X87642857Y-155774819D02*
X87785714Y-155822438D01*
X87785714Y-155822438D02*
X87833333Y-155870057D01*
X88214286Y-155870057D02*
X88261905Y-155822438D01*
X88261905Y-155822438D02*
X88357143Y-155774819D01*
X88357143Y-155774819D02*
X88595238Y-155774819D01*
X88595238Y-155774819D02*
X88690476Y-155822438D01*
X88690476Y-155822438D02*
X88738095Y-155870057D01*
X88738095Y-155870057D02*
X88785714Y-155965295D01*
X88785714Y-155965295D02*
X88785714Y-156060533D01*
X88785714Y-156060533D02*
X88738095Y-156203390D01*
X88738095Y-156203390D02*
X88166667Y-156774819D01*
X88166667Y-156774819D02*
X88785714Y-156774819D01*
X83454819Y-98761904D02*
X84264342Y-98761904D01*
X84264342Y-98761904D02*
X84359580Y-98714285D01*
X84359580Y-98714285D02*
X84407200Y-98666666D01*
X84407200Y-98666666D02*
X84454819Y-98571428D01*
X84454819Y-98571428D02*
X84454819Y-98380952D01*
X84454819Y-98380952D02*
X84407200Y-98285714D01*
X84407200Y-98285714D02*
X84359580Y-98238095D01*
X84359580Y-98238095D02*
X84264342Y-98190476D01*
X84264342Y-98190476D02*
X83454819Y-98190476D01*
X83454819Y-97238095D02*
X83454819Y-97714285D01*
X83454819Y-97714285D02*
X83931009Y-97761904D01*
X83931009Y-97761904D02*
X83883390Y-97714285D01*
X83883390Y-97714285D02*
X83835771Y-97619047D01*
X83835771Y-97619047D02*
X83835771Y-97380952D01*
X83835771Y-97380952D02*
X83883390Y-97285714D01*
X83883390Y-97285714D02*
X83931009Y-97238095D01*
X83931009Y-97238095D02*
X84026247Y-97190476D01*
X84026247Y-97190476D02*
X84264342Y-97190476D01*
X84264342Y-97190476D02*
X84359580Y-97238095D01*
X84359580Y-97238095D02*
X84407200Y-97285714D01*
X84407200Y-97285714D02*
X84454819Y-97380952D01*
X84454819Y-97380952D02*
X84454819Y-97619047D01*
X84454819Y-97619047D02*
X84407200Y-97714285D01*
X84407200Y-97714285D02*
X84359580Y-97761904D01*
X115309523Y-145654819D02*
X114976190Y-145178628D01*
X114738095Y-145654819D02*
X114738095Y-144654819D01*
X114738095Y-144654819D02*
X115119047Y-144654819D01*
X115119047Y-144654819D02*
X115214285Y-144702438D01*
X115214285Y-144702438D02*
X115261904Y-144750057D01*
X115261904Y-144750057D02*
X115309523Y-144845295D01*
X115309523Y-144845295D02*
X115309523Y-144988152D01*
X115309523Y-144988152D02*
X115261904Y-145083390D01*
X115261904Y-145083390D02*
X115214285Y-145131009D01*
X115214285Y-145131009D02*
X115119047Y-145178628D01*
X115119047Y-145178628D02*
X114738095Y-145178628D01*
X115738095Y-145654819D02*
X115738095Y-144654819D01*
X115738095Y-144654819D02*
X116309523Y-145654819D01*
X116309523Y-145654819D02*
X116309523Y-144654819D01*
X116738095Y-144750057D02*
X116785714Y-144702438D01*
X116785714Y-144702438D02*
X116880952Y-144654819D01*
X116880952Y-144654819D02*
X117119047Y-144654819D01*
X117119047Y-144654819D02*
X117214285Y-144702438D01*
X117214285Y-144702438D02*
X117261904Y-144750057D01*
X117261904Y-144750057D02*
X117309523Y-144845295D01*
X117309523Y-144845295D02*
X117309523Y-144940533D01*
X117309523Y-144940533D02*
X117261904Y-145083390D01*
X117261904Y-145083390D02*
X116690476Y-145654819D01*
X116690476Y-145654819D02*
X117309523Y-145654819D01*
X192817142Y-34334580D02*
X192769523Y-34382200D01*
X192769523Y-34382200D02*
X192626666Y-34429819D01*
X192626666Y-34429819D02*
X192531428Y-34429819D01*
X192531428Y-34429819D02*
X192388571Y-34382200D01*
X192388571Y-34382200D02*
X192293333Y-34286961D01*
X192293333Y-34286961D02*
X192245714Y-34191723D01*
X192245714Y-34191723D02*
X192198095Y-34001247D01*
X192198095Y-34001247D02*
X192198095Y-33858390D01*
X192198095Y-33858390D02*
X192245714Y-33667914D01*
X192245714Y-33667914D02*
X192293333Y-33572676D01*
X192293333Y-33572676D02*
X192388571Y-33477438D01*
X192388571Y-33477438D02*
X192531428Y-33429819D01*
X192531428Y-33429819D02*
X192626666Y-33429819D01*
X192626666Y-33429819D02*
X192769523Y-33477438D01*
X192769523Y-33477438D02*
X192817142Y-33525057D01*
X193150476Y-33429819D02*
X193769523Y-33429819D01*
X193769523Y-33429819D02*
X193436190Y-33810771D01*
X193436190Y-33810771D02*
X193579047Y-33810771D01*
X193579047Y-33810771D02*
X193674285Y-33858390D01*
X193674285Y-33858390D02*
X193721904Y-33906009D01*
X193721904Y-33906009D02*
X193769523Y-34001247D01*
X193769523Y-34001247D02*
X193769523Y-34239342D01*
X193769523Y-34239342D02*
X193721904Y-34334580D01*
X193721904Y-34334580D02*
X193674285Y-34382200D01*
X193674285Y-34382200D02*
X193579047Y-34429819D01*
X193579047Y-34429819D02*
X193293333Y-34429819D01*
X193293333Y-34429819D02*
X193198095Y-34382200D01*
X193198095Y-34382200D02*
X193150476Y-34334580D01*
X194626666Y-33763152D02*
X194626666Y-34429819D01*
X194388571Y-33382200D02*
X194150476Y-34096485D01*
X194150476Y-34096485D02*
X194769523Y-34096485D01*
X159832142Y-49104580D02*
X159784523Y-49152200D01*
X159784523Y-49152200D02*
X159641666Y-49199819D01*
X159641666Y-49199819D02*
X159546428Y-49199819D01*
X159546428Y-49199819D02*
X159403571Y-49152200D01*
X159403571Y-49152200D02*
X159308333Y-49056961D01*
X159308333Y-49056961D02*
X159260714Y-48961723D01*
X159260714Y-48961723D02*
X159213095Y-48771247D01*
X159213095Y-48771247D02*
X159213095Y-48628390D01*
X159213095Y-48628390D02*
X159260714Y-48437914D01*
X159260714Y-48437914D02*
X159308333Y-48342676D01*
X159308333Y-48342676D02*
X159403571Y-48247438D01*
X159403571Y-48247438D02*
X159546428Y-48199819D01*
X159546428Y-48199819D02*
X159641666Y-48199819D01*
X159641666Y-48199819D02*
X159784523Y-48247438D01*
X159784523Y-48247438D02*
X159832142Y-48295057D01*
X160784523Y-49199819D02*
X160213095Y-49199819D01*
X160498809Y-49199819D02*
X160498809Y-48199819D01*
X160498809Y-48199819D02*
X160403571Y-48342676D01*
X160403571Y-48342676D02*
X160308333Y-48437914D01*
X160308333Y-48437914D02*
X160213095Y-48485533D01*
X161689285Y-48199819D02*
X161213095Y-48199819D01*
X161213095Y-48199819D02*
X161165476Y-48676009D01*
X161165476Y-48676009D02*
X161213095Y-48628390D01*
X161213095Y-48628390D02*
X161308333Y-48580771D01*
X161308333Y-48580771D02*
X161546428Y-48580771D01*
X161546428Y-48580771D02*
X161641666Y-48628390D01*
X161641666Y-48628390D02*
X161689285Y-48676009D01*
X161689285Y-48676009D02*
X161736904Y-48771247D01*
X161736904Y-48771247D02*
X161736904Y-49009342D01*
X161736904Y-49009342D02*
X161689285Y-49104580D01*
X161689285Y-49104580D02*
X161641666Y-49152200D01*
X161641666Y-49152200D02*
X161546428Y-49199819D01*
X161546428Y-49199819D02*
X161308333Y-49199819D01*
X161308333Y-49199819D02*
X161213095Y-49152200D01*
X161213095Y-49152200D02*
X161165476Y-49104580D01*
X102007142Y-121034580D02*
X101959523Y-121082200D01*
X101959523Y-121082200D02*
X101816666Y-121129819D01*
X101816666Y-121129819D02*
X101721428Y-121129819D01*
X101721428Y-121129819D02*
X101578571Y-121082200D01*
X101578571Y-121082200D02*
X101483333Y-120986961D01*
X101483333Y-120986961D02*
X101435714Y-120891723D01*
X101435714Y-120891723D02*
X101388095Y-120701247D01*
X101388095Y-120701247D02*
X101388095Y-120558390D01*
X101388095Y-120558390D02*
X101435714Y-120367914D01*
X101435714Y-120367914D02*
X101483333Y-120272676D01*
X101483333Y-120272676D02*
X101578571Y-120177438D01*
X101578571Y-120177438D02*
X101721428Y-120129819D01*
X101721428Y-120129819D02*
X101816666Y-120129819D01*
X101816666Y-120129819D02*
X101959523Y-120177438D01*
X101959523Y-120177438D02*
X102007142Y-120225057D01*
X102388095Y-120225057D02*
X102435714Y-120177438D01*
X102435714Y-120177438D02*
X102530952Y-120129819D01*
X102530952Y-120129819D02*
X102769047Y-120129819D01*
X102769047Y-120129819D02*
X102864285Y-120177438D01*
X102864285Y-120177438D02*
X102911904Y-120225057D01*
X102911904Y-120225057D02*
X102959523Y-120320295D01*
X102959523Y-120320295D02*
X102959523Y-120415533D01*
X102959523Y-120415533D02*
X102911904Y-120558390D01*
X102911904Y-120558390D02*
X102340476Y-121129819D01*
X102340476Y-121129819D02*
X102959523Y-121129819D01*
X103864285Y-120129819D02*
X103388095Y-120129819D01*
X103388095Y-120129819D02*
X103340476Y-120606009D01*
X103340476Y-120606009D02*
X103388095Y-120558390D01*
X103388095Y-120558390D02*
X103483333Y-120510771D01*
X103483333Y-120510771D02*
X103721428Y-120510771D01*
X103721428Y-120510771D02*
X103816666Y-120558390D01*
X103816666Y-120558390D02*
X103864285Y-120606009D01*
X103864285Y-120606009D02*
X103911904Y-120701247D01*
X103911904Y-120701247D02*
X103911904Y-120939342D01*
X103911904Y-120939342D02*
X103864285Y-121034580D01*
X103864285Y-121034580D02*
X103816666Y-121082200D01*
X103816666Y-121082200D02*
X103721428Y-121129819D01*
X103721428Y-121129819D02*
X103483333Y-121129819D01*
X103483333Y-121129819D02*
X103388095Y-121082200D01*
X103388095Y-121082200D02*
X103340476Y-121034580D01*
X167832142Y-122484580D02*
X167784523Y-122532200D01*
X167784523Y-122532200D02*
X167641666Y-122579819D01*
X167641666Y-122579819D02*
X167546428Y-122579819D01*
X167546428Y-122579819D02*
X167403571Y-122532200D01*
X167403571Y-122532200D02*
X167308333Y-122436961D01*
X167308333Y-122436961D02*
X167260714Y-122341723D01*
X167260714Y-122341723D02*
X167213095Y-122151247D01*
X167213095Y-122151247D02*
X167213095Y-122008390D01*
X167213095Y-122008390D02*
X167260714Y-121817914D01*
X167260714Y-121817914D02*
X167308333Y-121722676D01*
X167308333Y-121722676D02*
X167403571Y-121627438D01*
X167403571Y-121627438D02*
X167546428Y-121579819D01*
X167546428Y-121579819D02*
X167641666Y-121579819D01*
X167641666Y-121579819D02*
X167784523Y-121627438D01*
X167784523Y-121627438D02*
X167832142Y-121675057D01*
X168213095Y-121675057D02*
X168260714Y-121627438D01*
X168260714Y-121627438D02*
X168355952Y-121579819D01*
X168355952Y-121579819D02*
X168594047Y-121579819D01*
X168594047Y-121579819D02*
X168689285Y-121627438D01*
X168689285Y-121627438D02*
X168736904Y-121675057D01*
X168736904Y-121675057D02*
X168784523Y-121770295D01*
X168784523Y-121770295D02*
X168784523Y-121865533D01*
X168784523Y-121865533D02*
X168736904Y-122008390D01*
X168736904Y-122008390D02*
X168165476Y-122579819D01*
X168165476Y-122579819D02*
X168784523Y-122579819D01*
X169260714Y-122579819D02*
X169451190Y-122579819D01*
X169451190Y-122579819D02*
X169546428Y-122532200D01*
X169546428Y-122532200D02*
X169594047Y-122484580D01*
X169594047Y-122484580D02*
X169689285Y-122341723D01*
X169689285Y-122341723D02*
X169736904Y-122151247D01*
X169736904Y-122151247D02*
X169736904Y-121770295D01*
X169736904Y-121770295D02*
X169689285Y-121675057D01*
X169689285Y-121675057D02*
X169641666Y-121627438D01*
X169641666Y-121627438D02*
X169546428Y-121579819D01*
X169546428Y-121579819D02*
X169355952Y-121579819D01*
X169355952Y-121579819D02*
X169260714Y-121627438D01*
X169260714Y-121627438D02*
X169213095Y-121675057D01*
X169213095Y-121675057D02*
X169165476Y-121770295D01*
X169165476Y-121770295D02*
X169165476Y-122008390D01*
X169165476Y-122008390D02*
X169213095Y-122103628D01*
X169213095Y-122103628D02*
X169260714Y-122151247D01*
X169260714Y-122151247D02*
X169355952Y-122198866D01*
X169355952Y-122198866D02*
X169546428Y-122198866D01*
X169546428Y-122198866D02*
X169641666Y-122151247D01*
X169641666Y-122151247D02*
X169689285Y-122103628D01*
X169689285Y-122103628D02*
X169736904Y-122008390D01*
X202007142Y-121034580D02*
X201959523Y-121082200D01*
X201959523Y-121082200D02*
X201816666Y-121129819D01*
X201816666Y-121129819D02*
X201721428Y-121129819D01*
X201721428Y-121129819D02*
X201578571Y-121082200D01*
X201578571Y-121082200D02*
X201483333Y-120986961D01*
X201483333Y-120986961D02*
X201435714Y-120891723D01*
X201435714Y-120891723D02*
X201388095Y-120701247D01*
X201388095Y-120701247D02*
X201388095Y-120558390D01*
X201388095Y-120558390D02*
X201435714Y-120367914D01*
X201435714Y-120367914D02*
X201483333Y-120272676D01*
X201483333Y-120272676D02*
X201578571Y-120177438D01*
X201578571Y-120177438D02*
X201721428Y-120129819D01*
X201721428Y-120129819D02*
X201816666Y-120129819D01*
X201816666Y-120129819D02*
X201959523Y-120177438D01*
X201959523Y-120177438D02*
X202007142Y-120225057D01*
X202340476Y-120129819D02*
X202959523Y-120129819D01*
X202959523Y-120129819D02*
X202626190Y-120510771D01*
X202626190Y-120510771D02*
X202769047Y-120510771D01*
X202769047Y-120510771D02*
X202864285Y-120558390D01*
X202864285Y-120558390D02*
X202911904Y-120606009D01*
X202911904Y-120606009D02*
X202959523Y-120701247D01*
X202959523Y-120701247D02*
X202959523Y-120939342D01*
X202959523Y-120939342D02*
X202911904Y-121034580D01*
X202911904Y-121034580D02*
X202864285Y-121082200D01*
X202864285Y-121082200D02*
X202769047Y-121129819D01*
X202769047Y-121129819D02*
X202483333Y-121129819D01*
X202483333Y-121129819D02*
X202388095Y-121082200D01*
X202388095Y-121082200D02*
X202340476Y-121034580D01*
X203340476Y-120225057D02*
X203388095Y-120177438D01*
X203388095Y-120177438D02*
X203483333Y-120129819D01*
X203483333Y-120129819D02*
X203721428Y-120129819D01*
X203721428Y-120129819D02*
X203816666Y-120177438D01*
X203816666Y-120177438D02*
X203864285Y-120225057D01*
X203864285Y-120225057D02*
X203911904Y-120320295D01*
X203911904Y-120320295D02*
X203911904Y-120415533D01*
X203911904Y-120415533D02*
X203864285Y-120558390D01*
X203864285Y-120558390D02*
X203292857Y-121129819D01*
X203292857Y-121129819D02*
X203911904Y-121129819D01*
X133454819Y-131238094D02*
X134264342Y-131238094D01*
X134264342Y-131238094D02*
X134359580Y-131190475D01*
X134359580Y-131190475D02*
X134407200Y-131142856D01*
X134407200Y-131142856D02*
X134454819Y-131047618D01*
X134454819Y-131047618D02*
X134454819Y-130857142D01*
X134454819Y-130857142D02*
X134407200Y-130761904D01*
X134407200Y-130761904D02*
X134359580Y-130714285D01*
X134359580Y-130714285D02*
X134264342Y-130666666D01*
X134264342Y-130666666D02*
X133454819Y-130666666D01*
X134454819Y-129666666D02*
X134454819Y-130238094D01*
X134454819Y-129952380D02*
X133454819Y-129952380D01*
X133454819Y-129952380D02*
X133597676Y-130047618D01*
X133597676Y-130047618D02*
X133692914Y-130142856D01*
X133692914Y-130142856D02*
X133740533Y-130238094D01*
X133454819Y-128809523D02*
X133454819Y-128999999D01*
X133454819Y-128999999D02*
X133502438Y-129095237D01*
X133502438Y-129095237D02*
X133550057Y-129142856D01*
X133550057Y-129142856D02*
X133692914Y-129238094D01*
X133692914Y-129238094D02*
X133883390Y-129285713D01*
X133883390Y-129285713D02*
X134264342Y-129285713D01*
X134264342Y-129285713D02*
X134359580Y-129238094D01*
X134359580Y-129238094D02*
X134407200Y-129190475D01*
X134407200Y-129190475D02*
X134454819Y-129095237D01*
X134454819Y-129095237D02*
X134454819Y-128904761D01*
X134454819Y-128904761D02*
X134407200Y-128809523D01*
X134407200Y-128809523D02*
X134359580Y-128761904D01*
X134359580Y-128761904D02*
X134264342Y-128714285D01*
X134264342Y-128714285D02*
X134026247Y-128714285D01*
X134026247Y-128714285D02*
X133931009Y-128761904D01*
X133931009Y-128761904D02*
X133883390Y-128809523D01*
X133883390Y-128809523D02*
X133835771Y-128904761D01*
X133835771Y-128904761D02*
X133835771Y-129095237D01*
X133835771Y-129095237D02*
X133883390Y-129190475D01*
X133883390Y-129190475D02*
X133931009Y-129238094D01*
X133931009Y-129238094D02*
X134026247Y-129285713D01*
X151832142Y-123104580D02*
X151784523Y-123152200D01*
X151784523Y-123152200D02*
X151641666Y-123199819D01*
X151641666Y-123199819D02*
X151546428Y-123199819D01*
X151546428Y-123199819D02*
X151403571Y-123152200D01*
X151403571Y-123152200D02*
X151308333Y-123056961D01*
X151308333Y-123056961D02*
X151260714Y-122961723D01*
X151260714Y-122961723D02*
X151213095Y-122771247D01*
X151213095Y-122771247D02*
X151213095Y-122628390D01*
X151213095Y-122628390D02*
X151260714Y-122437914D01*
X151260714Y-122437914D02*
X151308333Y-122342676D01*
X151308333Y-122342676D02*
X151403571Y-122247438D01*
X151403571Y-122247438D02*
X151546428Y-122199819D01*
X151546428Y-122199819D02*
X151641666Y-122199819D01*
X151641666Y-122199819D02*
X151784523Y-122247438D01*
X151784523Y-122247438D02*
X151832142Y-122295057D01*
X152213095Y-122295057D02*
X152260714Y-122247438D01*
X152260714Y-122247438D02*
X152355952Y-122199819D01*
X152355952Y-122199819D02*
X152594047Y-122199819D01*
X152594047Y-122199819D02*
X152689285Y-122247438D01*
X152689285Y-122247438D02*
X152736904Y-122295057D01*
X152736904Y-122295057D02*
X152784523Y-122390295D01*
X152784523Y-122390295D02*
X152784523Y-122485533D01*
X152784523Y-122485533D02*
X152736904Y-122628390D01*
X152736904Y-122628390D02*
X152165476Y-123199819D01*
X152165476Y-123199819D02*
X152784523Y-123199819D01*
X153355952Y-122628390D02*
X153260714Y-122580771D01*
X153260714Y-122580771D02*
X153213095Y-122533152D01*
X153213095Y-122533152D02*
X153165476Y-122437914D01*
X153165476Y-122437914D02*
X153165476Y-122390295D01*
X153165476Y-122390295D02*
X153213095Y-122295057D01*
X153213095Y-122295057D02*
X153260714Y-122247438D01*
X153260714Y-122247438D02*
X153355952Y-122199819D01*
X153355952Y-122199819D02*
X153546428Y-122199819D01*
X153546428Y-122199819D02*
X153641666Y-122247438D01*
X153641666Y-122247438D02*
X153689285Y-122295057D01*
X153689285Y-122295057D02*
X153736904Y-122390295D01*
X153736904Y-122390295D02*
X153736904Y-122437914D01*
X153736904Y-122437914D02*
X153689285Y-122533152D01*
X153689285Y-122533152D02*
X153641666Y-122580771D01*
X153641666Y-122580771D02*
X153546428Y-122628390D01*
X153546428Y-122628390D02*
X153355952Y-122628390D01*
X153355952Y-122628390D02*
X153260714Y-122676009D01*
X153260714Y-122676009D02*
X153213095Y-122723628D01*
X153213095Y-122723628D02*
X153165476Y-122818866D01*
X153165476Y-122818866D02*
X153165476Y-123009342D01*
X153165476Y-123009342D02*
X153213095Y-123104580D01*
X153213095Y-123104580D02*
X153260714Y-123152200D01*
X153260714Y-123152200D02*
X153355952Y-123199819D01*
X153355952Y-123199819D02*
X153546428Y-123199819D01*
X153546428Y-123199819D02*
X153641666Y-123152200D01*
X153641666Y-123152200D02*
X153689285Y-123104580D01*
X153689285Y-123104580D02*
X153736904Y-123009342D01*
X153736904Y-123009342D02*
X153736904Y-122818866D01*
X153736904Y-122818866D02*
X153689285Y-122723628D01*
X153689285Y-122723628D02*
X153641666Y-122676009D01*
X153641666Y-122676009D02*
X153546428Y-122628390D01*
X195833333Y-63024819D02*
X195500000Y-62548628D01*
X195261905Y-63024819D02*
X195261905Y-62024819D01*
X195261905Y-62024819D02*
X195642857Y-62024819D01*
X195642857Y-62024819D02*
X195738095Y-62072438D01*
X195738095Y-62072438D02*
X195785714Y-62120057D01*
X195785714Y-62120057D02*
X195833333Y-62215295D01*
X195833333Y-62215295D02*
X195833333Y-62358152D01*
X195833333Y-62358152D02*
X195785714Y-62453390D01*
X195785714Y-62453390D02*
X195738095Y-62501009D01*
X195738095Y-62501009D02*
X195642857Y-62548628D01*
X195642857Y-62548628D02*
X195261905Y-62548628D01*
X196214286Y-62120057D02*
X196261905Y-62072438D01*
X196261905Y-62072438D02*
X196357143Y-62024819D01*
X196357143Y-62024819D02*
X196595238Y-62024819D01*
X196595238Y-62024819D02*
X196690476Y-62072438D01*
X196690476Y-62072438D02*
X196738095Y-62120057D01*
X196738095Y-62120057D02*
X196785714Y-62215295D01*
X196785714Y-62215295D02*
X196785714Y-62310533D01*
X196785714Y-62310533D02*
X196738095Y-62453390D01*
X196738095Y-62453390D02*
X196166667Y-63024819D01*
X196166667Y-63024819D02*
X196785714Y-63024819D01*
X183832142Y-122484580D02*
X183784523Y-122532200D01*
X183784523Y-122532200D02*
X183641666Y-122579819D01*
X183641666Y-122579819D02*
X183546428Y-122579819D01*
X183546428Y-122579819D02*
X183403571Y-122532200D01*
X183403571Y-122532200D02*
X183308333Y-122436961D01*
X183308333Y-122436961D02*
X183260714Y-122341723D01*
X183260714Y-122341723D02*
X183213095Y-122151247D01*
X183213095Y-122151247D02*
X183213095Y-122008390D01*
X183213095Y-122008390D02*
X183260714Y-121817914D01*
X183260714Y-121817914D02*
X183308333Y-121722676D01*
X183308333Y-121722676D02*
X183403571Y-121627438D01*
X183403571Y-121627438D02*
X183546428Y-121579819D01*
X183546428Y-121579819D02*
X183641666Y-121579819D01*
X183641666Y-121579819D02*
X183784523Y-121627438D01*
X183784523Y-121627438D02*
X183832142Y-121675057D01*
X184165476Y-121579819D02*
X184784523Y-121579819D01*
X184784523Y-121579819D02*
X184451190Y-121960771D01*
X184451190Y-121960771D02*
X184594047Y-121960771D01*
X184594047Y-121960771D02*
X184689285Y-122008390D01*
X184689285Y-122008390D02*
X184736904Y-122056009D01*
X184736904Y-122056009D02*
X184784523Y-122151247D01*
X184784523Y-122151247D02*
X184784523Y-122389342D01*
X184784523Y-122389342D02*
X184736904Y-122484580D01*
X184736904Y-122484580D02*
X184689285Y-122532200D01*
X184689285Y-122532200D02*
X184594047Y-122579819D01*
X184594047Y-122579819D02*
X184308333Y-122579819D01*
X184308333Y-122579819D02*
X184213095Y-122532200D01*
X184213095Y-122532200D02*
X184165476Y-122484580D01*
X185403571Y-121579819D02*
X185498809Y-121579819D01*
X185498809Y-121579819D02*
X185594047Y-121627438D01*
X185594047Y-121627438D02*
X185641666Y-121675057D01*
X185641666Y-121675057D02*
X185689285Y-121770295D01*
X185689285Y-121770295D02*
X185736904Y-121960771D01*
X185736904Y-121960771D02*
X185736904Y-122198866D01*
X185736904Y-122198866D02*
X185689285Y-122389342D01*
X185689285Y-122389342D02*
X185641666Y-122484580D01*
X185641666Y-122484580D02*
X185594047Y-122532200D01*
X185594047Y-122532200D02*
X185498809Y-122579819D01*
X185498809Y-122579819D02*
X185403571Y-122579819D01*
X185403571Y-122579819D02*
X185308333Y-122532200D01*
X185308333Y-122532200D02*
X185260714Y-122484580D01*
X185260714Y-122484580D02*
X185213095Y-122389342D01*
X185213095Y-122389342D02*
X185165476Y-122198866D01*
X185165476Y-122198866D02*
X185165476Y-121960771D01*
X185165476Y-121960771D02*
X185213095Y-121770295D01*
X185213095Y-121770295D02*
X185260714Y-121675057D01*
X185260714Y-121675057D02*
X185308333Y-121627438D01*
X185308333Y-121627438D02*
X185403571Y-121579819D01*
X63454819Y-98761904D02*
X64264342Y-98761904D01*
X64264342Y-98761904D02*
X64359580Y-98714285D01*
X64359580Y-98714285D02*
X64407200Y-98666666D01*
X64407200Y-98666666D02*
X64454819Y-98571428D01*
X64454819Y-98571428D02*
X64454819Y-98380952D01*
X64454819Y-98380952D02*
X64407200Y-98285714D01*
X64407200Y-98285714D02*
X64359580Y-98238095D01*
X64359580Y-98238095D02*
X64264342Y-98190476D01*
X64264342Y-98190476D02*
X63454819Y-98190476D01*
X63454819Y-97809523D02*
X63454819Y-97190476D01*
X63454819Y-97190476D02*
X63835771Y-97523809D01*
X63835771Y-97523809D02*
X63835771Y-97380952D01*
X63835771Y-97380952D02*
X63883390Y-97285714D01*
X63883390Y-97285714D02*
X63931009Y-97238095D01*
X63931009Y-97238095D02*
X64026247Y-97190476D01*
X64026247Y-97190476D02*
X64264342Y-97190476D01*
X64264342Y-97190476D02*
X64359580Y-97238095D01*
X64359580Y-97238095D02*
X64407200Y-97285714D01*
X64407200Y-97285714D02*
X64454819Y-97380952D01*
X64454819Y-97380952D02*
X64454819Y-97666666D01*
X64454819Y-97666666D02*
X64407200Y-97761904D01*
X64407200Y-97761904D02*
X64359580Y-97809523D01*
X65832142Y-122484580D02*
X65784523Y-122532200D01*
X65784523Y-122532200D02*
X65641666Y-122579819D01*
X65641666Y-122579819D02*
X65546428Y-122579819D01*
X65546428Y-122579819D02*
X65403571Y-122532200D01*
X65403571Y-122532200D02*
X65308333Y-122436961D01*
X65308333Y-122436961D02*
X65260714Y-122341723D01*
X65260714Y-122341723D02*
X65213095Y-122151247D01*
X65213095Y-122151247D02*
X65213095Y-122008390D01*
X65213095Y-122008390D02*
X65260714Y-121817914D01*
X65260714Y-121817914D02*
X65308333Y-121722676D01*
X65308333Y-121722676D02*
X65403571Y-121627438D01*
X65403571Y-121627438D02*
X65546428Y-121579819D01*
X65546428Y-121579819D02*
X65641666Y-121579819D01*
X65641666Y-121579819D02*
X65784523Y-121627438D01*
X65784523Y-121627438D02*
X65832142Y-121675057D01*
X66213095Y-121675057D02*
X66260714Y-121627438D01*
X66260714Y-121627438D02*
X66355952Y-121579819D01*
X66355952Y-121579819D02*
X66594047Y-121579819D01*
X66594047Y-121579819D02*
X66689285Y-121627438D01*
X66689285Y-121627438D02*
X66736904Y-121675057D01*
X66736904Y-121675057D02*
X66784523Y-121770295D01*
X66784523Y-121770295D02*
X66784523Y-121865533D01*
X66784523Y-121865533D02*
X66736904Y-122008390D01*
X66736904Y-122008390D02*
X66165476Y-122579819D01*
X66165476Y-122579819D02*
X66784523Y-122579819D01*
X67117857Y-121579819D02*
X67736904Y-121579819D01*
X67736904Y-121579819D02*
X67403571Y-121960771D01*
X67403571Y-121960771D02*
X67546428Y-121960771D01*
X67546428Y-121960771D02*
X67641666Y-122008390D01*
X67641666Y-122008390D02*
X67689285Y-122056009D01*
X67689285Y-122056009D02*
X67736904Y-122151247D01*
X67736904Y-122151247D02*
X67736904Y-122389342D01*
X67736904Y-122389342D02*
X67689285Y-122484580D01*
X67689285Y-122484580D02*
X67641666Y-122532200D01*
X67641666Y-122532200D02*
X67546428Y-122579819D01*
X67546428Y-122579819D02*
X67260714Y-122579819D01*
X67260714Y-122579819D02*
X67165476Y-122532200D01*
X67165476Y-122532200D02*
X67117857Y-122484580D01*
X148977142Y-80129580D02*
X148929523Y-80177200D01*
X148929523Y-80177200D02*
X148786666Y-80224819D01*
X148786666Y-80224819D02*
X148691428Y-80224819D01*
X148691428Y-80224819D02*
X148548571Y-80177200D01*
X148548571Y-80177200D02*
X148453333Y-80081961D01*
X148453333Y-80081961D02*
X148405714Y-79986723D01*
X148405714Y-79986723D02*
X148358095Y-79796247D01*
X148358095Y-79796247D02*
X148358095Y-79653390D01*
X148358095Y-79653390D02*
X148405714Y-79462914D01*
X148405714Y-79462914D02*
X148453333Y-79367676D01*
X148453333Y-79367676D02*
X148548571Y-79272438D01*
X148548571Y-79272438D02*
X148691428Y-79224819D01*
X148691428Y-79224819D02*
X148786666Y-79224819D01*
X148786666Y-79224819D02*
X148929523Y-79272438D01*
X148929523Y-79272438D02*
X148977142Y-79320057D01*
X149358095Y-79320057D02*
X149405714Y-79272438D01*
X149405714Y-79272438D02*
X149500952Y-79224819D01*
X149500952Y-79224819D02*
X149739047Y-79224819D01*
X149739047Y-79224819D02*
X149834285Y-79272438D01*
X149834285Y-79272438D02*
X149881904Y-79320057D01*
X149881904Y-79320057D02*
X149929523Y-79415295D01*
X149929523Y-79415295D02*
X149929523Y-79510533D01*
X149929523Y-79510533D02*
X149881904Y-79653390D01*
X149881904Y-79653390D02*
X149310476Y-80224819D01*
X149310476Y-80224819D02*
X149929523Y-80224819D01*
X150548571Y-79224819D02*
X150643809Y-79224819D01*
X150643809Y-79224819D02*
X150739047Y-79272438D01*
X150739047Y-79272438D02*
X150786666Y-79320057D01*
X150786666Y-79320057D02*
X150834285Y-79415295D01*
X150834285Y-79415295D02*
X150881904Y-79605771D01*
X150881904Y-79605771D02*
X150881904Y-79843866D01*
X150881904Y-79843866D02*
X150834285Y-80034342D01*
X150834285Y-80034342D02*
X150786666Y-80129580D01*
X150786666Y-80129580D02*
X150739047Y-80177200D01*
X150739047Y-80177200D02*
X150643809Y-80224819D01*
X150643809Y-80224819D02*
X150548571Y-80224819D01*
X150548571Y-80224819D02*
X150453333Y-80177200D01*
X150453333Y-80177200D02*
X150405714Y-80129580D01*
X150405714Y-80129580D02*
X150358095Y-80034342D01*
X150358095Y-80034342D02*
X150310476Y-79843866D01*
X150310476Y-79843866D02*
X150310476Y-79605771D01*
X150310476Y-79605771D02*
X150358095Y-79415295D01*
X150358095Y-79415295D02*
X150405714Y-79320057D01*
X150405714Y-79320057D02*
X150453333Y-79272438D01*
X150453333Y-79272438D02*
X150548571Y-79224819D01*
X115454819Y-131238094D02*
X116264342Y-131238094D01*
X116264342Y-131238094D02*
X116359580Y-131190475D01*
X116359580Y-131190475D02*
X116407200Y-131142856D01*
X116407200Y-131142856D02*
X116454819Y-131047618D01*
X116454819Y-131047618D02*
X116454819Y-130857142D01*
X116454819Y-130857142D02*
X116407200Y-130761904D01*
X116407200Y-130761904D02*
X116359580Y-130714285D01*
X116359580Y-130714285D02*
X116264342Y-130666666D01*
X116264342Y-130666666D02*
X115454819Y-130666666D01*
X116454819Y-129666666D02*
X116454819Y-130238094D01*
X116454819Y-129952380D02*
X115454819Y-129952380D01*
X115454819Y-129952380D02*
X115597676Y-130047618D01*
X115597676Y-130047618D02*
X115692914Y-130142856D01*
X115692914Y-130142856D02*
X115740533Y-130238094D01*
X115550057Y-129285713D02*
X115502438Y-129238094D01*
X115502438Y-129238094D02*
X115454819Y-129142856D01*
X115454819Y-129142856D02*
X115454819Y-128904761D01*
X115454819Y-128904761D02*
X115502438Y-128809523D01*
X115502438Y-128809523D02*
X115550057Y-128761904D01*
X115550057Y-128761904D02*
X115645295Y-128714285D01*
X115645295Y-128714285D02*
X115740533Y-128714285D01*
X115740533Y-128714285D02*
X115883390Y-128761904D01*
X115883390Y-128761904D02*
X116454819Y-129333332D01*
X116454819Y-129333332D02*
X116454819Y-128714285D01*
%TO.C,C31*%
D12*
X161209420Y-145595000D02*
X161490580Y-145595000D01*
X161209420Y-146615000D02*
X161490580Y-146615000D01*
%TO.C,U9*%
X162140000Y-91490000D02*
X169860000Y-91490000D01*
X162140000Y-91725000D02*
X162140000Y-91490000D01*
X162140000Y-104510000D02*
X162140000Y-104275000D01*
X169860000Y-91490000D02*
X169860000Y-91725000D01*
X169860000Y-104275000D02*
X169860000Y-104510000D01*
X169860000Y-104510000D02*
X162140000Y-104510000D01*
X161350000Y-91720000D02*
X161010000Y-91250000D01*
X161690000Y-91250000D01*
X161350000Y-91720000D01*
G36*
X161350000Y-91720000D02*
G01*
X161010000Y-91250000D01*
X161690000Y-91250000D01*
X161350000Y-91720000D01*
G37*
%TO.C,U6*%
X97940000Y-92940000D02*
X102060000Y-92940000D01*
X97940000Y-92995000D02*
X97940000Y-92940000D01*
X97940000Y-103060000D02*
X97940000Y-103005000D01*
X102060000Y-92940000D02*
X102060000Y-92995000D01*
X102060000Y-103005000D02*
X102060000Y-103060000D01*
X102060000Y-103060000D02*
X97940000Y-103060000D01*
X97400000Y-92990000D02*
X97160000Y-92660000D01*
X97640000Y-92660000D01*
X97400000Y-92990000D01*
G36*
X97400000Y-92990000D02*
G01*
X97160000Y-92660000D01*
X97640000Y-92660000D01*
X97400000Y-92990000D01*
G37*
%TO.C,U15*%
X185940000Y-92940000D02*
X190060000Y-92940000D01*
X185940000Y-92995000D02*
X185940000Y-92940000D01*
X185940000Y-103060000D02*
X185940000Y-103005000D01*
X190060000Y-92940000D02*
X190060000Y-92995000D01*
X190060000Y-103005000D02*
X190060000Y-103060000D01*
X190060000Y-103060000D02*
X185940000Y-103060000D01*
X185400000Y-92990000D02*
X185160000Y-92660000D01*
X185640000Y-92660000D01*
X185400000Y-92990000D01*
G36*
X185400000Y-92990000D02*
G01*
X185160000Y-92660000D01*
X185640000Y-92660000D01*
X185400000Y-92990000D01*
G37*
%TO.C,U4*%
X135540000Y-82695000D02*
X135540000Y-113295000D01*
X135540000Y-113295000D02*
X148460000Y-113295000D01*
X141000000Y-82695000D02*
X135540000Y-82695000D01*
X148460000Y-82695000D02*
X143000000Y-82695000D01*
X148460000Y-113295000D02*
X148460000Y-82695000D01*
X133050000Y-82635000D02*
X150950000Y-82635000D01*
X150950000Y-113355000D01*
X133050000Y-113355000D01*
X133050000Y-82635000D01*
X143000000Y-82695000D02*
G75*
G02*
X141000000Y-82695000I-1000000J0D01*
G01*
%TO.C,U21*%
X194140000Y-123490000D02*
X201860000Y-123490000D01*
X194140000Y-123725000D02*
X194140000Y-123490000D01*
X194140000Y-136510000D02*
X194140000Y-136275000D01*
X201860000Y-123490000D02*
X201860000Y-123725000D01*
X201860000Y-136275000D02*
X201860000Y-136510000D01*
X201860000Y-136510000D02*
X194140000Y-136510000D01*
X193350000Y-123720000D02*
X193010000Y-123250000D01*
X193690000Y-123250000D01*
X193350000Y-123720000D01*
G36*
X193350000Y-123720000D02*
G01*
X193010000Y-123250000D01*
X193690000Y-123250000D01*
X193350000Y-123720000D01*
G37*
%TO.C,U20*%
X162140000Y-147490000D02*
X169860000Y-147490000D01*
X162140000Y-147725000D02*
X162140000Y-147490000D01*
X162140000Y-160510000D02*
X162140000Y-160275000D01*
X169860000Y-147490000D02*
X169860000Y-147725000D01*
X169860000Y-160275000D02*
X169860000Y-160510000D01*
X169860000Y-160510000D02*
X162140000Y-160510000D01*
X161350000Y-147720000D02*
X161010000Y-147250000D01*
X161690000Y-147250000D01*
X161350000Y-147720000D01*
G36*
X161350000Y-147720000D02*
G01*
X161010000Y-147250000D01*
X161690000Y-147250000D01*
X161350000Y-147720000D01*
G37*
%TO.C,U10*%
X104140000Y-49490000D02*
X111860000Y-49490000D01*
X104140000Y-49725000D02*
X104140000Y-49490000D01*
X104140000Y-62510000D02*
X104140000Y-62275000D01*
X111860000Y-49490000D02*
X111860000Y-49725000D01*
X111860000Y-62275000D02*
X111860000Y-62510000D01*
X111860000Y-62510000D02*
X104140000Y-62510000D01*
X103350000Y-49720000D02*
X103010000Y-49250000D01*
X103690000Y-49250000D01*
X103350000Y-49720000D01*
G36*
X103350000Y-49720000D02*
G01*
X103010000Y-49250000D01*
X103690000Y-49250000D01*
X103350000Y-49720000D01*
G37*
%TO.C,U1*%
X57540000Y-38160000D02*
X57540000Y-73840000D01*
X57540000Y-73840000D02*
X70460000Y-73840000D01*
X63000000Y-38160000D02*
X57540000Y-38160000D01*
X70460000Y-38160000D02*
X65000000Y-38160000D01*
X70460000Y-73840000D02*
X70460000Y-38160000D01*
X55050000Y-38100000D02*
X72950000Y-38100000D01*
X72950000Y-73900000D01*
X55050000Y-73900000D01*
X55050000Y-38100000D01*
X65000000Y-38160000D02*
G75*
G02*
X63000000Y-38160000I-1000000J0D01*
G01*
%TO.C,C13*%
X123384420Y-49045000D02*
X123665580Y-49045000D01*
X123384420Y-50065000D02*
X123665580Y-50065000D01*
%TO.C,C27*%
X136334420Y-123665000D02*
X136615580Y-123665000D01*
X136334420Y-124685000D02*
X136615580Y-124685000D01*
%TO.C,U11*%
X94140000Y-123490000D02*
X101860000Y-123490000D01*
X94140000Y-123725000D02*
X94140000Y-123490000D01*
X94140000Y-136510000D02*
X94140000Y-136275000D01*
X101860000Y-123490000D02*
X101860000Y-123725000D01*
X101860000Y-136275000D02*
X101860000Y-136510000D01*
X101860000Y-136510000D02*
X94140000Y-136510000D01*
X93350000Y-123720000D02*
X93010000Y-123250000D01*
X93690000Y-123250000D01*
X93350000Y-123720000D01*
G36*
X93350000Y-123720000D02*
G01*
X93010000Y-123250000D01*
X93690000Y-123250000D01*
X93350000Y-123720000D01*
G37*
%TO.C,U18*%
X163940000Y-124940000D02*
X168060000Y-124940000D01*
X163940000Y-124995000D02*
X163940000Y-124940000D01*
X163940000Y-135060000D02*
X163940000Y-135005000D01*
X168060000Y-124940000D02*
X168060000Y-124995000D01*
X168060000Y-135005000D02*
X168060000Y-135060000D01*
X168060000Y-135060000D02*
X163940000Y-135060000D01*
X163400000Y-124990000D02*
X163160000Y-124660000D01*
X163640000Y-124660000D01*
X163400000Y-124990000D01*
G36*
X163400000Y-124990000D02*
G01*
X163160000Y-124660000D01*
X163640000Y-124660000D01*
X163400000Y-124990000D01*
G37*
%TO.C,R1*%
X189762742Y-79477500D02*
X190237258Y-79477500D01*
X189762742Y-80522500D02*
X190237258Y-80522500D01*
%TO.C,U19*%
X179940000Y-124940000D02*
X184060000Y-124940000D01*
X179940000Y-124995000D02*
X179940000Y-124940000D01*
X179940000Y-135060000D02*
X179940000Y-135005000D01*
X184060000Y-124940000D02*
X184060000Y-124995000D01*
X184060000Y-135005000D02*
X184060000Y-135060000D01*
X184060000Y-135060000D02*
X179940000Y-135060000D01*
X179400000Y-124990000D02*
X179160000Y-124660000D01*
X179640000Y-124660000D01*
X179400000Y-124990000D01*
G36*
X179400000Y-124990000D02*
G01*
X179160000Y-124660000D01*
X179640000Y-124660000D01*
X179400000Y-124990000D01*
G37*
%TO.C,U13*%
X61940000Y-124940000D02*
X66060000Y-124940000D01*
X61940000Y-124995000D02*
X61940000Y-124940000D01*
X61940000Y-135060000D02*
X61940000Y-135005000D01*
X66060000Y-124940000D02*
X66060000Y-124995000D01*
X66060000Y-135005000D02*
X66060000Y-135060000D01*
X66060000Y-135060000D02*
X61940000Y-135060000D01*
X61400000Y-124990000D02*
X61160000Y-124660000D01*
X61640000Y-124660000D01*
X61400000Y-124990000D01*
G36*
X61400000Y-124990000D02*
G01*
X61160000Y-124660000D01*
X61640000Y-124660000D01*
X61400000Y-124990000D01*
G37*
%TO.C,J2*%
X200620000Y-52080000D02*
X202000000Y-52080000D01*
X200620000Y-53460000D02*
X200620000Y-52080000D01*
X200620000Y-54730000D02*
X200620000Y-59920000D01*
X200620000Y-54730000D02*
X203380000Y-54730000D01*
X200620000Y-59920000D02*
X203380000Y-59920000D01*
X203380000Y-54730000D02*
X203380000Y-59920000D01*
%TO.C,J1*%
X63330000Y-167150000D02*
X63330000Y-165450000D01*
X72670000Y-167150000D02*
X72670000Y-165450000D01*
%TO.C,R4*%
X75477500Y-158237258D02*
X75477500Y-157762742D01*
X76522500Y-158237258D02*
X76522500Y-157762742D01*
%TO.C,RN1*%
X106500000Y-146320000D02*
X105500000Y-146320000D01*
X106500000Y-149680000D02*
X105500000Y-149680000D01*
%TO.C,U24*%
X155940000Y-51565000D02*
X160060000Y-51565000D01*
X155940000Y-51630000D02*
X155940000Y-51565000D01*
X155940000Y-60435000D02*
X155940000Y-60370000D01*
X160060000Y-51565000D02*
X160060000Y-51630000D01*
X160060000Y-60370000D02*
X160060000Y-60435000D01*
X160060000Y-60435000D02*
X155940000Y-60435000D01*
X155400000Y-51630000D02*
X155160000Y-51300000D01*
X155640000Y-51300000D01*
X155400000Y-51630000D01*
G36*
X155400000Y-51630000D02*
G01*
X155160000Y-51300000D01*
X155640000Y-51300000D01*
X155400000Y-51630000D01*
G37*
%TO.C,C24*%
X82334420Y-123045000D02*
X82615580Y-123045000D01*
X82334420Y-124065000D02*
X82615580Y-124065000D01*
%TO.C,C19*%
X122509420Y-89595000D02*
X122790580Y-89595000D01*
X122509420Y-90615000D02*
X122790580Y-90615000D01*
%TO.C,U22*%
X139940000Y-50940000D02*
X144060000Y-50940000D01*
X139940000Y-50995000D02*
X139940000Y-50940000D01*
X139940000Y-61060000D02*
X139940000Y-61005000D01*
X144060000Y-50940000D02*
X144060000Y-50995000D01*
X144060000Y-61005000D02*
X144060000Y-61060000D01*
X144060000Y-61060000D02*
X139940000Y-61060000D01*
X139400000Y-50990000D02*
X139160000Y-50660000D01*
X139640000Y-50660000D01*
X139400000Y-50990000D01*
G36*
X139400000Y-50990000D02*
G01*
X139160000Y-50660000D01*
X139640000Y-50660000D01*
X139400000Y-50990000D01*
G37*
%TO.C,U17*%
X147940000Y-125565000D02*
X152060000Y-125565000D01*
X147940000Y-125630000D02*
X147940000Y-125565000D01*
X147940000Y-134435000D02*
X147940000Y-134370000D01*
X152060000Y-125565000D02*
X152060000Y-125630000D01*
X152060000Y-134370000D02*
X152060000Y-134435000D01*
X152060000Y-134435000D02*
X147940000Y-134435000D01*
X147400000Y-125630000D02*
X147160000Y-125300000D01*
X147640000Y-125300000D01*
X147400000Y-125630000D01*
G36*
X147400000Y-125630000D02*
G01*
X147160000Y-125300000D01*
X147640000Y-125300000D01*
X147400000Y-125630000D01*
G37*
%TO.C,C14*%
X170509420Y-89595000D02*
X170790580Y-89595000D01*
X170509420Y-90615000D02*
X170790580Y-90615000D01*
%TO.C,C22*%
X190334420Y-91045000D02*
X190615580Y-91045000D01*
X190334420Y-92065000D02*
X190615580Y-92065000D01*
%TO.C,Y1*%
X192240000Y-37240000D02*
X192300000Y-37240000D01*
X192240000Y-42760000D02*
X192240000Y-37240000D01*
X192300000Y-42760000D02*
X192240000Y-42760000D01*
X192300000Y-43360000D02*
X192300000Y-42760000D01*
X194620000Y-37240000D02*
X197380000Y-37240000D01*
X194620000Y-42760000D02*
X194620000Y-43360000D01*
X197380000Y-42760000D02*
X194620000Y-42760000D01*
X199700000Y-37240000D02*
X199760000Y-37240000D01*
X199760000Y-37240000D02*
X199760000Y-42760000D01*
X199760000Y-42760000D02*
X199700000Y-42760000D01*
%TO.C,SW1*%
X193250000Y-73000000D02*
X193250000Y-75000000D01*
X194300000Y-71700000D02*
X194750000Y-71250000D01*
X194300000Y-76300000D02*
X194750000Y-76750000D01*
X194750000Y-71250000D02*
X197250000Y-71250000D01*
X194750000Y-76750000D02*
X197250000Y-76750000D01*
X197700000Y-71700000D02*
X197250000Y-71250000D01*
X197700000Y-76300000D02*
X197250000Y-76750000D01*
X198750000Y-73000000D02*
X198750000Y-75000000D01*
%TO.C,C10*%
X71479420Y-36145000D02*
X71760580Y-36145000D01*
X71479420Y-37165000D02*
X71760580Y-37165000D01*
%TO.C,U2*%
X79540000Y-38160000D02*
X79540000Y-73840000D01*
X79540000Y-73840000D02*
X92460000Y-73840000D01*
X85000000Y-38160000D02*
X79540000Y-38160000D01*
X92460000Y-38160000D02*
X87000000Y-38160000D01*
X92460000Y-73840000D02*
X92460000Y-38160000D01*
X77050000Y-38100000D02*
X94950000Y-38100000D01*
X94950000Y-73900000D01*
X77050000Y-73900000D01*
X77050000Y-38100000D01*
X87000000Y-38160000D02*
G75*
G02*
X85000000Y-38160000I-1000000J0D01*
G01*
%TO.C,D1*%
X98515000Y-163265000D02*
X98515000Y-164735000D01*
X98515000Y-164735000D02*
X100800000Y-164735000D01*
X100800000Y-163265000D02*
X98515000Y-163265000D01*
%TO.C,C17*%
X102334420Y-91045000D02*
X102615580Y-91045000D01*
X102334420Y-92065000D02*
X102615580Y-92065000D01*
%TO.C,U8*%
X114140000Y-91490000D02*
X121860000Y-91490000D01*
X114140000Y-91725000D02*
X114140000Y-91490000D01*
X114140000Y-104510000D02*
X114140000Y-104275000D01*
X121860000Y-91490000D02*
X121860000Y-91725000D01*
X121860000Y-104275000D02*
X121860000Y-104510000D01*
X121860000Y-104510000D02*
X114140000Y-104510000D01*
X113350000Y-91720000D02*
X113010000Y-91250000D01*
X113690000Y-91250000D01*
X113350000Y-91720000D01*
G36*
X113350000Y-91720000D02*
G01*
X113010000Y-91250000D01*
X113690000Y-91250000D01*
X113350000Y-91720000D01*
G37*
%TO.C,R5*%
X93762742Y-163477500D02*
X94237258Y-163477500D01*
X93762742Y-164522500D02*
X94237258Y-164522500D01*
%TO.C,F1*%
X81397936Y-163090000D02*
X82602064Y-163090000D01*
X81397936Y-164910000D02*
X82602064Y-164910000D01*
%TO.C,C1*%
X201859420Y-79490000D02*
X202140580Y-79490000D01*
X201859420Y-80510000D02*
X202140580Y-80510000D01*
%TO.C,U23*%
X171940000Y-51565000D02*
X176060000Y-51565000D01*
X171940000Y-51630000D02*
X171940000Y-51565000D01*
X171940000Y-60435000D02*
X171940000Y-60370000D01*
X176060000Y-51565000D02*
X176060000Y-51630000D01*
X176060000Y-60370000D02*
X176060000Y-60435000D01*
X176060000Y-60435000D02*
X171940000Y-60435000D01*
X171400000Y-51630000D02*
X171160000Y-51300000D01*
X171640000Y-51300000D01*
X171400000Y-51630000D01*
G36*
X171400000Y-51630000D02*
G01*
X171160000Y-51300000D01*
X171640000Y-51300000D01*
X171400000Y-51630000D01*
G37*
%TO.C,J3*%
X105190000Y-163380000D02*
X105190000Y-162000000D01*
X106570000Y-163380000D02*
X105190000Y-163380000D01*
X107840000Y-160620000D02*
X130810000Y-160620000D01*
X107840000Y-163380000D02*
X107840000Y-160620000D01*
X107840000Y-163380000D02*
X130810000Y-163380000D01*
X130810000Y-163380000D02*
X130810000Y-160620000D01*
%TO.C,C33*%
X144334420Y-49045000D02*
X144615580Y-49045000D01*
X144334420Y-50065000D02*
X144615580Y-50065000D01*
%TO.C,U14*%
X77940000Y-124940000D02*
X82060000Y-124940000D01*
X77940000Y-124995000D02*
X77940000Y-124940000D01*
X77940000Y-135060000D02*
X77940000Y-135005000D01*
X82060000Y-124940000D02*
X82060000Y-124995000D01*
X82060000Y-135005000D02*
X82060000Y-135060000D01*
X82060000Y-135060000D02*
X77940000Y-135060000D01*
X77400000Y-124990000D02*
X77160000Y-124660000D01*
X77640000Y-124660000D01*
X77400000Y-124990000D01*
G36*
X77400000Y-124990000D02*
G01*
X77160000Y-124660000D01*
X77640000Y-124660000D01*
X77400000Y-124990000D01*
G37*
%TO.C,C26*%
X120509420Y-121595000D02*
X120790580Y-121595000D01*
X120509420Y-122615000D02*
X120790580Y-122615000D01*
%TO.C,C21*%
X176334420Y-49665000D02*
X176615580Y-49665000D01*
X176334420Y-50685000D02*
X176615580Y-50685000D01*
%TO.C,C11*%
X93479420Y-36145000D02*
X93760580Y-36145000D01*
X93479420Y-37165000D02*
X93760580Y-37165000D01*
%TO.C,C18*%
X71479420Y-78145000D02*
X71760580Y-78145000D01*
X71479420Y-79165000D02*
X71760580Y-79165000D01*
%TO.C,C12*%
X112509420Y-47595000D02*
X112790580Y-47595000D01*
X112509420Y-48615000D02*
X112790580Y-48615000D01*
%TO.C,C16*%
X86334420Y-91045000D02*
X86615580Y-91045000D01*
X86334420Y-92065000D02*
X86615580Y-92065000D01*
%TO.C,R3*%
X59477500Y-158237258D02*
X59477500Y-157762742D01*
X60522500Y-158237258D02*
X60522500Y-157762742D01*
%TO.C,U7*%
X123940000Y-50940000D02*
X128060000Y-50940000D01*
X123940000Y-50995000D02*
X123940000Y-50940000D01*
X123940000Y-61060000D02*
X123940000Y-61005000D01*
X128060000Y-50940000D02*
X128060000Y-50995000D01*
X128060000Y-61005000D02*
X128060000Y-61060000D01*
X128060000Y-61060000D02*
X123940000Y-61060000D01*
X123400000Y-50990000D02*
X123160000Y-50660000D01*
X123640000Y-50660000D01*
X123400000Y-50990000D01*
G36*
X123400000Y-50990000D02*
G01*
X123160000Y-50660000D01*
X123640000Y-50660000D01*
X123400000Y-50990000D01*
G37*
%TO.C,C2*%
X87738748Y-157265000D02*
X88261252Y-157265000D01*
X87738748Y-158735000D02*
X88261252Y-158735000D01*
%TO.C,U5*%
X81940000Y-92940000D02*
X86060000Y-92940000D01*
X81940000Y-92995000D02*
X81940000Y-92940000D01*
X81940000Y-103060000D02*
X81940000Y-103005000D01*
X86060000Y-92940000D02*
X86060000Y-92995000D01*
X86060000Y-103005000D02*
X86060000Y-103060000D01*
X86060000Y-103060000D02*
X81940000Y-103060000D01*
X81400000Y-92990000D02*
X81160000Y-92660000D01*
X81640000Y-92660000D01*
X81400000Y-92990000D01*
G36*
X81400000Y-92990000D02*
G01*
X81160000Y-92660000D01*
X81640000Y-92660000D01*
X81400000Y-92990000D01*
G37*
%TO.C,RN2*%
X116500000Y-146320000D02*
X115500000Y-146320000D01*
X116500000Y-149680000D02*
X115500000Y-149680000D01*
%TO.C,C34*%
X193319420Y-34895000D02*
X193600580Y-34895000D01*
X193319420Y-35915000D02*
X193600580Y-35915000D01*
%TO.C,C15*%
X160334420Y-49665000D02*
X160615580Y-49665000D01*
X160334420Y-50685000D02*
X160615580Y-50685000D01*
%TO.C,C25*%
X102509420Y-121595000D02*
X102790580Y-121595000D01*
X102509420Y-122615000D02*
X102790580Y-122615000D01*
%TO.C,C29*%
X168334420Y-123045000D02*
X168615580Y-123045000D01*
X168334420Y-124065000D02*
X168615580Y-124065000D01*
%TO.C,C32*%
X202509420Y-121595000D02*
X202790580Y-121595000D01*
X202509420Y-122615000D02*
X202790580Y-122615000D01*
%TO.C,U16*%
X131940000Y-125565000D02*
X136060000Y-125565000D01*
X131940000Y-125630000D02*
X131940000Y-125565000D01*
X131940000Y-134435000D02*
X131940000Y-134370000D01*
X136060000Y-125565000D02*
X136060000Y-125630000D01*
X136060000Y-134370000D02*
X136060000Y-134435000D01*
X136060000Y-134435000D02*
X131940000Y-134435000D01*
X131400000Y-125630000D02*
X131160000Y-125300000D01*
X131640000Y-125300000D01*
X131400000Y-125630000D01*
G36*
X131400000Y-125630000D02*
G01*
X131160000Y-125300000D01*
X131640000Y-125300000D01*
X131400000Y-125630000D01*
G37*
%TO.C,C28*%
X152334420Y-123665000D02*
X152615580Y-123665000D01*
X152334420Y-124685000D02*
X152615580Y-124685000D01*
%TO.C,R2*%
X195762742Y-63477500D02*
X196237258Y-63477500D01*
X195762742Y-64522500D02*
X196237258Y-64522500D01*
%TO.C,C30*%
X184334420Y-123045000D02*
X184615580Y-123045000D01*
X184334420Y-124065000D02*
X184615580Y-124065000D01*
%TO.C,U3*%
X57540000Y-80160000D02*
X57540000Y-115840000D01*
X57540000Y-115840000D02*
X70460000Y-115840000D01*
X63000000Y-80160000D02*
X57540000Y-80160000D01*
X70460000Y-80160000D02*
X65000000Y-80160000D01*
X70460000Y-115840000D02*
X70460000Y-80160000D01*
X55050000Y-80100000D02*
X72950000Y-80100000D01*
X72950000Y-115900000D01*
X55050000Y-115900000D01*
X55050000Y-80100000D01*
X65000000Y-80160000D02*
G75*
G02*
X63000000Y-80160000I-1000000J0D01*
G01*
%TO.C,C23*%
X66334420Y-123045000D02*
X66615580Y-123045000D01*
X66334420Y-124065000D02*
X66615580Y-124065000D01*
%TO.C,C20*%
X149479420Y-80690000D02*
X149760580Y-80690000D01*
X149479420Y-81710000D02*
X149760580Y-81710000D01*
%TO.C,U12*%
X112140000Y-123490000D02*
X119860000Y-123490000D01*
X112140000Y-123725000D02*
X112140000Y-123490000D01*
X112140000Y-136510000D02*
X112140000Y-136275000D01*
X119860000Y-123490000D02*
X119860000Y-123725000D01*
X119860000Y-136275000D02*
X119860000Y-136510000D01*
X119860000Y-136510000D02*
X112140000Y-136510000D01*
X111350000Y-123720000D02*
X111010000Y-123250000D01*
X111690000Y-123250000D01*
X111350000Y-123720000D01*
G36*
X111350000Y-123720000D02*
G01*
X111010000Y-123250000D01*
X111690000Y-123250000D01*
X111350000Y-123720000D01*
G37*
%TD*%
%LPC*%
D13*
%TO.C,C31*%
X160575000Y-146105000D03*
X162125000Y-146105000D03*
%TD*%
D14*
%TO.C,U9*%
X161350000Y-92285000D03*
X161350000Y-93555000D03*
X161350000Y-94825000D03*
X161350000Y-96095000D03*
X161350000Y-97365000D03*
X161350000Y-98635000D03*
X161350000Y-99905000D03*
X161350000Y-101175000D03*
X161350000Y-102445000D03*
X161350000Y-103715000D03*
X170650000Y-103715000D03*
X170650000Y-102445000D03*
X170650000Y-101175000D03*
X170650000Y-99905000D03*
X170650000Y-98635000D03*
X170650000Y-97365000D03*
X170650000Y-96095000D03*
X170650000Y-94825000D03*
X170650000Y-93555000D03*
X170650000Y-92285000D03*
%TD*%
D15*
%TO.C,H3*%
X53998700Y-166000000D03*
%TD*%
D16*
%TO.C,U6*%
X97525000Y-93555000D03*
X97525000Y-94825000D03*
X97525000Y-96095000D03*
X97525000Y-97365000D03*
X97525000Y-98635000D03*
X97525000Y-99905000D03*
X97525000Y-101175000D03*
X97525000Y-102445000D03*
X102475000Y-102445000D03*
X102475000Y-101175000D03*
X102475000Y-99905000D03*
X102475000Y-98635000D03*
X102475000Y-97365000D03*
X102475000Y-96095000D03*
X102475000Y-94825000D03*
X102475000Y-93555000D03*
%TD*%
%TO.C,U15*%
X185525000Y-93555000D03*
X185525000Y-94825000D03*
X185525000Y-96095000D03*
X185525000Y-97365000D03*
X185525000Y-98635000D03*
X185525000Y-99905000D03*
X185525000Y-101175000D03*
X185525000Y-102445000D03*
X190475000Y-102445000D03*
X190475000Y-101175000D03*
X190475000Y-99905000D03*
X190475000Y-98635000D03*
X190475000Y-97365000D03*
X190475000Y-96095000D03*
X190475000Y-94825000D03*
X190475000Y-93555000D03*
%TD*%
D17*
%TO.C,U4*%
X134380000Y-84025000D03*
D18*
X134380000Y-86565000D03*
X134380000Y-89105000D03*
X134380000Y-91645000D03*
X134380000Y-94185000D03*
X134380000Y-96725000D03*
X134380000Y-99265000D03*
X134380000Y-101805000D03*
X134380000Y-104345000D03*
X134380000Y-106885000D03*
X134380000Y-109425000D03*
X134380000Y-111965000D03*
X149620000Y-111965000D03*
X149620000Y-109425000D03*
X149620000Y-106885000D03*
X149620000Y-104345000D03*
X149620000Y-101805000D03*
X149620000Y-99265000D03*
X149620000Y-96725000D03*
X149620000Y-94185000D03*
X149620000Y-91645000D03*
X149620000Y-89105000D03*
X149620000Y-86565000D03*
X149620000Y-84025000D03*
%TD*%
D14*
%TO.C,U21*%
X193350000Y-124285000D03*
X193350000Y-125555000D03*
X193350000Y-126825000D03*
X193350000Y-128095000D03*
X193350000Y-129365000D03*
X193350000Y-130635000D03*
X193350000Y-131905000D03*
X193350000Y-133175000D03*
X193350000Y-134445000D03*
X193350000Y-135715000D03*
X202650000Y-135715000D03*
X202650000Y-134445000D03*
X202650000Y-133175000D03*
X202650000Y-131905000D03*
X202650000Y-130635000D03*
X202650000Y-129365000D03*
X202650000Y-128095000D03*
X202650000Y-126825000D03*
X202650000Y-125555000D03*
X202650000Y-124285000D03*
%TD*%
D15*
%TO.C,H2*%
X205998700Y-34000000D03*
%TD*%
D14*
%TO.C,U20*%
X161350000Y-148285000D03*
X161350000Y-149555000D03*
X161350000Y-150825000D03*
X161350000Y-152095000D03*
X161350000Y-153365000D03*
X161350000Y-154635000D03*
X161350000Y-155905000D03*
X161350000Y-157175000D03*
X161350000Y-158445000D03*
X161350000Y-159715000D03*
X170650000Y-159715000D03*
X170650000Y-158445000D03*
X170650000Y-157175000D03*
X170650000Y-155905000D03*
X170650000Y-154635000D03*
X170650000Y-153365000D03*
X170650000Y-152095000D03*
X170650000Y-150825000D03*
X170650000Y-149555000D03*
X170650000Y-148285000D03*
%TD*%
%TO.C,U10*%
X103350000Y-50285000D03*
X103350000Y-51555000D03*
X103350000Y-52825000D03*
X103350000Y-54095000D03*
X103350000Y-55365000D03*
X103350000Y-56635000D03*
X103350000Y-57905000D03*
X103350000Y-59175000D03*
X103350000Y-60445000D03*
X103350000Y-61715000D03*
X112650000Y-61715000D03*
X112650000Y-60445000D03*
X112650000Y-59175000D03*
X112650000Y-57905000D03*
X112650000Y-56635000D03*
X112650000Y-55365000D03*
X112650000Y-54095000D03*
X112650000Y-52825000D03*
X112650000Y-51555000D03*
X112650000Y-50285000D03*
%TD*%
D17*
%TO.C,U1*%
X56380000Y-39490000D03*
D18*
X56380000Y-42030000D03*
X56380000Y-44570000D03*
X56380000Y-47110000D03*
X56380000Y-49650000D03*
X56380000Y-52190000D03*
X56380000Y-54730000D03*
X56380000Y-57270000D03*
X56380000Y-59810000D03*
X56380000Y-62350000D03*
X56380000Y-64890000D03*
X56380000Y-67430000D03*
X56380000Y-69970000D03*
X56380000Y-72510000D03*
X71620000Y-72510000D03*
X71620000Y-69970000D03*
X71620000Y-67430000D03*
X71620000Y-64890000D03*
X71620000Y-62350000D03*
X71620000Y-59810000D03*
X71620000Y-57270000D03*
X71620000Y-54730000D03*
X71620000Y-52190000D03*
X71620000Y-49650000D03*
X71620000Y-47110000D03*
X71620000Y-44570000D03*
X71620000Y-42030000D03*
X71620000Y-39490000D03*
%TD*%
D13*
%TO.C,C13*%
X122750000Y-49555000D03*
X124300000Y-49555000D03*
%TD*%
%TO.C,C27*%
X135700000Y-124175000D03*
X137250000Y-124175000D03*
%TD*%
D14*
%TO.C,U11*%
X93350000Y-124285000D03*
X93350000Y-125555000D03*
X93350000Y-126825000D03*
X93350000Y-128095000D03*
X93350000Y-129365000D03*
X93350000Y-130635000D03*
X93350000Y-131905000D03*
X93350000Y-133175000D03*
X93350000Y-134445000D03*
X93350000Y-135715000D03*
X102650000Y-135715000D03*
X102650000Y-134445000D03*
X102650000Y-133175000D03*
X102650000Y-131905000D03*
X102650000Y-130635000D03*
X102650000Y-129365000D03*
X102650000Y-128095000D03*
X102650000Y-126825000D03*
X102650000Y-125555000D03*
X102650000Y-124285000D03*
%TD*%
D16*
%TO.C,U18*%
X163525000Y-125555000D03*
X163525000Y-126825000D03*
X163525000Y-128095000D03*
X163525000Y-129365000D03*
X163525000Y-130635000D03*
X163525000Y-131905000D03*
X163525000Y-133175000D03*
X163525000Y-134445000D03*
X168475000Y-134445000D03*
X168475000Y-133175000D03*
X168475000Y-131905000D03*
X168475000Y-130635000D03*
X168475000Y-129365000D03*
X168475000Y-128095000D03*
X168475000Y-126825000D03*
X168475000Y-125555000D03*
%TD*%
D19*
%TO.C,R1*%
X189175000Y-80000000D03*
X190825000Y-80000000D03*
%TD*%
D16*
%TO.C,U19*%
X179525000Y-125555000D03*
X179525000Y-126825000D03*
X179525000Y-128095000D03*
X179525000Y-129365000D03*
X179525000Y-130635000D03*
X179525000Y-131905000D03*
X179525000Y-133175000D03*
X179525000Y-134445000D03*
X184475000Y-134445000D03*
X184475000Y-133175000D03*
X184475000Y-131905000D03*
X184475000Y-130635000D03*
X184475000Y-129365000D03*
X184475000Y-128095000D03*
X184475000Y-126825000D03*
X184475000Y-125555000D03*
%TD*%
%TO.C,U13*%
X61525000Y-125555000D03*
X61525000Y-126825000D03*
X61525000Y-128095000D03*
X61525000Y-129365000D03*
X61525000Y-130635000D03*
X61525000Y-131905000D03*
X61525000Y-133175000D03*
X61525000Y-134445000D03*
X66475000Y-134445000D03*
X66475000Y-133175000D03*
X66475000Y-131905000D03*
X66475000Y-130635000D03*
X66475000Y-129365000D03*
X66475000Y-128095000D03*
X66475000Y-126825000D03*
X66475000Y-125555000D03*
%TD*%
D20*
%TO.C,J2*%
X202000000Y-53460000D03*
D21*
X202000000Y-56000000D03*
X202000000Y-58540000D03*
%TD*%
D22*
%TO.C,J1*%
X67500000Y-164320000D03*
D23*
X69520000Y-164320000D03*
D24*
X70750000Y-164320000D03*
D25*
X68500000Y-164320000D03*
D26*
X66480000Y-164320000D03*
D27*
X65250000Y-164320000D03*
D28*
X63680000Y-164400000D03*
X63680000Y-168200000D03*
X72320000Y-164400000D03*
X72320000Y-168200000D03*
%TD*%
D29*
%TO.C,R4*%
X76000000Y-158825000D03*
X76000000Y-157175000D03*
%TD*%
D30*
%TO.C,RN1*%
X105100000Y-146800000D03*
D31*
X105100000Y-147600000D03*
X105100000Y-148400000D03*
D30*
X105100000Y-149200000D03*
X106900000Y-149200000D03*
D31*
X106900000Y-148400000D03*
X106900000Y-147600000D03*
D30*
X106900000Y-146800000D03*
%TD*%
D16*
%TO.C,U24*%
X155525000Y-52190000D03*
X155525000Y-53460000D03*
X155525000Y-54730000D03*
X155525000Y-56000000D03*
X155525000Y-57270000D03*
X155525000Y-58540000D03*
X155525000Y-59810000D03*
X160475000Y-59810000D03*
X160475000Y-58540000D03*
X160475000Y-57270000D03*
X160475000Y-56000000D03*
X160475000Y-54730000D03*
X160475000Y-53460000D03*
X160475000Y-52190000D03*
%TD*%
D13*
%TO.C,C24*%
X81700000Y-123555000D03*
X83250000Y-123555000D03*
%TD*%
%TO.C,C19*%
X121875000Y-90105000D03*
X123425000Y-90105000D03*
%TD*%
D16*
%TO.C,U22*%
X139525000Y-51555000D03*
X139525000Y-52825000D03*
X139525000Y-54095000D03*
X139525000Y-55365000D03*
X139525000Y-56635000D03*
X139525000Y-57905000D03*
X139525000Y-59175000D03*
X139525000Y-60445000D03*
X144475000Y-60445000D03*
X144475000Y-59175000D03*
X144475000Y-57905000D03*
X144475000Y-56635000D03*
X144475000Y-55365000D03*
X144475000Y-54095000D03*
X144475000Y-52825000D03*
X144475000Y-51555000D03*
%TD*%
%TO.C,U17*%
X147525000Y-126190000D03*
X147525000Y-127460000D03*
X147525000Y-128730000D03*
X147525000Y-130000000D03*
X147525000Y-131270000D03*
X147525000Y-132540000D03*
X147525000Y-133810000D03*
X152475000Y-133810000D03*
X152475000Y-132540000D03*
X152475000Y-131270000D03*
X152475000Y-130000000D03*
X152475000Y-128730000D03*
X152475000Y-127460000D03*
X152475000Y-126190000D03*
%TD*%
D13*
%TO.C,C14*%
X169875000Y-90105000D03*
X171425000Y-90105000D03*
%TD*%
%TO.C,C22*%
X189700000Y-91555000D03*
X191250000Y-91555000D03*
%TD*%
D32*
%TO.C,Y1*%
X193460000Y-42100000D03*
X198540000Y-42100000D03*
X198540000Y-37900000D03*
X193460000Y-37900000D03*
%TD*%
D33*
%TO.C,SW1*%
X192850000Y-72100000D03*
X199150000Y-72100000D03*
X192850000Y-75900000D03*
X199150000Y-75900000D03*
%TD*%
D13*
%TO.C,C10*%
X70845000Y-36655000D03*
X72395000Y-36655000D03*
%TD*%
D17*
%TO.C,U2*%
X78380000Y-39490000D03*
D18*
X78380000Y-42030000D03*
X78380000Y-44570000D03*
X78380000Y-47110000D03*
X78380000Y-49650000D03*
X78380000Y-52190000D03*
X78380000Y-54730000D03*
X78380000Y-57270000D03*
X78380000Y-59810000D03*
X78380000Y-62350000D03*
X78380000Y-64890000D03*
X78380000Y-67430000D03*
X78380000Y-69970000D03*
X78380000Y-72510000D03*
X93620000Y-72510000D03*
X93620000Y-69970000D03*
X93620000Y-67430000D03*
X93620000Y-64890000D03*
X93620000Y-62350000D03*
X93620000Y-59810000D03*
X93620000Y-57270000D03*
X93620000Y-54730000D03*
X93620000Y-52190000D03*
X93620000Y-49650000D03*
X93620000Y-47110000D03*
X93620000Y-44570000D03*
X93620000Y-42030000D03*
X93620000Y-39490000D03*
%TD*%
D34*
%TO.C,D1*%
X99212500Y-164000000D03*
X100787500Y-164000000D03*
%TD*%
D13*
%TO.C,C17*%
X101700000Y-91555000D03*
X103250000Y-91555000D03*
%TD*%
D15*
%TO.C,H4*%
X205998700Y-166000000D03*
%TD*%
D14*
%TO.C,U8*%
X113350000Y-92285000D03*
X113350000Y-93555000D03*
X113350000Y-94825000D03*
X113350000Y-96095000D03*
X113350000Y-97365000D03*
X113350000Y-98635000D03*
X113350000Y-99905000D03*
X113350000Y-101175000D03*
X113350000Y-102445000D03*
X113350000Y-103715000D03*
X122650000Y-103715000D03*
X122650000Y-102445000D03*
X122650000Y-101175000D03*
X122650000Y-99905000D03*
X122650000Y-98635000D03*
X122650000Y-97365000D03*
X122650000Y-96095000D03*
X122650000Y-94825000D03*
X122650000Y-93555000D03*
X122650000Y-92285000D03*
%TD*%
D19*
%TO.C,R5*%
X93175000Y-164000000D03*
X94825000Y-164000000D03*
%TD*%
D35*
%TO.C,F1*%
X80600000Y-164000000D03*
X83400000Y-164000000D03*
%TD*%
D13*
%TO.C,C1*%
X201225000Y-80000000D03*
X202775000Y-80000000D03*
%TD*%
D16*
%TO.C,U23*%
X171525000Y-52190000D03*
X171525000Y-53460000D03*
X171525000Y-54730000D03*
X171525000Y-56000000D03*
X171525000Y-57270000D03*
X171525000Y-58540000D03*
X171525000Y-59810000D03*
X176475000Y-59810000D03*
X176475000Y-58540000D03*
X176475000Y-57270000D03*
X176475000Y-56000000D03*
X176475000Y-54730000D03*
X176475000Y-53460000D03*
X176475000Y-52190000D03*
%TD*%
D20*
%TO.C,J3*%
X106570000Y-162000000D03*
D21*
X109110000Y-162000000D03*
X111650000Y-162000000D03*
X114190000Y-162000000D03*
X116730000Y-162000000D03*
X119270000Y-162000000D03*
X121810000Y-162000000D03*
X124350000Y-162000000D03*
X126890000Y-162000000D03*
X129430000Y-162000000D03*
%TD*%
D13*
%TO.C,C33*%
X143700000Y-49555000D03*
X145250000Y-49555000D03*
%TD*%
D15*
%TO.C,H1*%
X53998700Y-34000000D03*
%TD*%
D16*
%TO.C,U14*%
X77525000Y-125555000D03*
X77525000Y-126825000D03*
X77525000Y-128095000D03*
X77525000Y-129365000D03*
X77525000Y-130635000D03*
X77525000Y-131905000D03*
X77525000Y-133175000D03*
X77525000Y-134445000D03*
X82475000Y-134445000D03*
X82475000Y-133175000D03*
X82475000Y-131905000D03*
X82475000Y-130635000D03*
X82475000Y-129365000D03*
X82475000Y-128095000D03*
X82475000Y-126825000D03*
X82475000Y-125555000D03*
%TD*%
D13*
%TO.C,C26*%
X119875000Y-122105000D03*
X121425000Y-122105000D03*
%TD*%
%TO.C,C21*%
X175700000Y-50175000D03*
X177250000Y-50175000D03*
%TD*%
%TO.C,C11*%
X92845000Y-36655000D03*
X94395000Y-36655000D03*
%TD*%
%TO.C,C18*%
X70845000Y-78655000D03*
X72395000Y-78655000D03*
%TD*%
%TO.C,C12*%
X111875000Y-48105000D03*
X113425000Y-48105000D03*
%TD*%
%TO.C,C16*%
X85700000Y-91555000D03*
X87250000Y-91555000D03*
%TD*%
D29*
%TO.C,R3*%
X60000000Y-158825000D03*
X60000000Y-157175000D03*
%TD*%
D16*
%TO.C,U7*%
X123525000Y-51555000D03*
X123525000Y-52825000D03*
X123525000Y-54095000D03*
X123525000Y-55365000D03*
X123525000Y-56635000D03*
X123525000Y-57905000D03*
X123525000Y-59175000D03*
X123525000Y-60445000D03*
X128475000Y-60445000D03*
X128475000Y-59175000D03*
X128475000Y-57905000D03*
X128475000Y-56635000D03*
X128475000Y-55365000D03*
X128475000Y-54095000D03*
X128475000Y-52825000D03*
X128475000Y-51555000D03*
%TD*%
D36*
%TO.C,C2*%
X87050000Y-158000000D03*
X88950000Y-158000000D03*
%TD*%
D16*
%TO.C,U5*%
X81525000Y-93555000D03*
X81525000Y-94825000D03*
X81525000Y-96095000D03*
X81525000Y-97365000D03*
X81525000Y-98635000D03*
X81525000Y-99905000D03*
X81525000Y-101175000D03*
X81525000Y-102445000D03*
X86475000Y-102445000D03*
X86475000Y-101175000D03*
X86475000Y-99905000D03*
X86475000Y-98635000D03*
X86475000Y-97365000D03*
X86475000Y-96095000D03*
X86475000Y-94825000D03*
X86475000Y-93555000D03*
%TD*%
D30*
%TO.C,RN2*%
X115100000Y-146800000D03*
D31*
X115100000Y-147600000D03*
X115100000Y-148400000D03*
D30*
X115100000Y-149200000D03*
X116900000Y-149200000D03*
D31*
X116900000Y-148400000D03*
X116900000Y-147600000D03*
D30*
X116900000Y-146800000D03*
%TD*%
D13*
%TO.C,C34*%
X192685000Y-35405000D03*
X194235000Y-35405000D03*
%TD*%
%TO.C,C15*%
X159700000Y-50175000D03*
X161250000Y-50175000D03*
%TD*%
%TO.C,C25*%
X101875000Y-122105000D03*
X103425000Y-122105000D03*
%TD*%
%TO.C,C29*%
X167700000Y-123555000D03*
X169250000Y-123555000D03*
%TD*%
%TO.C,C32*%
X201875000Y-122105000D03*
X203425000Y-122105000D03*
%TD*%
D16*
%TO.C,U16*%
X131525000Y-126190000D03*
X131525000Y-127460000D03*
X131525000Y-128730000D03*
X131525000Y-130000000D03*
X131525000Y-131270000D03*
X131525000Y-132540000D03*
X131525000Y-133810000D03*
X136475000Y-133810000D03*
X136475000Y-132540000D03*
X136475000Y-131270000D03*
X136475000Y-130000000D03*
X136475000Y-128730000D03*
X136475000Y-127460000D03*
X136475000Y-126190000D03*
%TD*%
D13*
%TO.C,C28*%
X151700000Y-124175000D03*
X153250000Y-124175000D03*
%TD*%
D19*
%TO.C,R2*%
X195175000Y-64000000D03*
X196825000Y-64000000D03*
%TD*%
D13*
%TO.C,C30*%
X183700000Y-123555000D03*
X185250000Y-123555000D03*
%TD*%
D17*
%TO.C,U3*%
X56380000Y-81490000D03*
D18*
X56380000Y-84030000D03*
X56380000Y-86570000D03*
X56380000Y-89110000D03*
X56380000Y-91650000D03*
X56380000Y-94190000D03*
X56380000Y-96730000D03*
X56380000Y-99270000D03*
X56380000Y-101810000D03*
X56380000Y-104350000D03*
X56380000Y-106890000D03*
X56380000Y-109430000D03*
X56380000Y-111970000D03*
X56380000Y-114510000D03*
X71620000Y-114510000D03*
X71620000Y-111970000D03*
X71620000Y-109430000D03*
X71620000Y-106890000D03*
X71620000Y-104350000D03*
X71620000Y-101810000D03*
X71620000Y-99270000D03*
X71620000Y-96730000D03*
X71620000Y-94190000D03*
X71620000Y-91650000D03*
X71620000Y-89110000D03*
X71620000Y-86570000D03*
X71620000Y-84030000D03*
X71620000Y-81490000D03*
%TD*%
D13*
%TO.C,C23*%
X65700000Y-123555000D03*
X67250000Y-123555000D03*
%TD*%
%TO.C,C20*%
X148845000Y-81200000D03*
X150395000Y-81200000D03*
%TD*%
D14*
%TO.C,U12*%
X111350000Y-124285000D03*
X111350000Y-125555000D03*
X111350000Y-126825000D03*
X111350000Y-128095000D03*
X111350000Y-129365000D03*
X111350000Y-130635000D03*
X111350000Y-131905000D03*
X111350000Y-133175000D03*
X111350000Y-134445000D03*
X111350000Y-135715000D03*
X120650000Y-135715000D03*
X120650000Y-134445000D03*
X120650000Y-133175000D03*
X120650000Y-131905000D03*
X120650000Y-130635000D03*
X120650000Y-129365000D03*
X120650000Y-128095000D03*
X120650000Y-126825000D03*
X120650000Y-125555000D03*
X120650000Y-124285000D03*
%TD*%
%LPD*%
M02*
