M48
; DRILL file KiCad 10.0.6-1.fc44 date 2026-09-24T17:14:42
; FORMAT={-:-/ absolute / metric / decimal}
; #@! TF.CreationDate,2026-09-24T17:14:42-04:00
; #@! TF.GenerationSoftware,Kicad,Pcbnew,10.0.6-1.fc44
; #@! TF.FileFunction,Plated,1,2,PTH
FMAT,2
METRIC
; #@! TA.AperFunction,Plated,PTH,ViaDrill
T1C0.300
; #@! TA.AperFunction,Plated,PTH,ComponentDrill
T2C0.600
; #@! TA.AperFunction,Plated,PTH,ComponentDrill
T3C0.800
; #@! TA.AperFunction,Plated,PTH,ComponentDrill
T4C1.000
%
G90
G05
T1
X55.234Y-124.741
X59.228Y-156.403
X60.681Y-135.289
X62.335Y-88.142
X63.514Y-126.392
X64.224Y-98.002
X64.555Y-135.287
X64.644Y-127.037
X64.697Y-128.034
X65.188Y-133.819
X67.25Y-122.572
X70.307Y-129.991
X73.026Y-126.846
X73.026Y-131.905
X73.035Y-33.99
X73.423Y-79.118
X73.65Y-133.175
X75.52Y-128.719
X75.529Y-125.555
X76.681Y-135.289
X77.868Y-124.555
X79.003Y-129.365
X79.016Y-128.475
X79.017Y-126.921
X79.031Y-133.523
X79.845Y-130.573
X80.008Y-101.206
X81.316Y-60.442
X82.394Y-71.097
X82.457Y-108.017
X82.691Y-90.49
X82.803Y-98.008
X82.804Y-96.739
X83.375Y-99.328
X83.501Y-90.494
X83.789Y-103.128
X83.969Y-127.359
X83.969Y-133.461
X84.025Y-98.844
X84.098Y-96.095
X84.174Y-94.809
X84.214Y-123.863
X84.25Y-102.455
X84.488Y-87.646
X84.635Y-128.73
X84.701Y-100.556
X84.759Y-99.755
X84.857Y-93.464
X85.317Y-131.905
X85.853Y-105.52
X87.236Y-129.285
X87.481Y-125.555
X87.863Y-130.635
X88.093Y-101.479
X89.502Y-134.445
X90.837Y-94.033
X91.483Y-94.825
X91.635Y-97.998
X91.795Y-126.843
X92.207Y-47.264
X92.55Y-96.733
X93.35Y-123.449
X93.998Y-114.51
X94.672Y-131.261
X94.877Y-123.449
X94.878Y-128.739
X94.945Y-35.676
X95.105Y-132.531
X95.352Y-121.525
X95.566Y-131.807
X96.079Y-94.033
X96.644Y-124.427
X98.463Y-157.09
X98.463Y-164.75
X98.851Y-130.635
X99.001Y-120.048
X99.02Y-97.365
X99.022Y-102.211
X99.044Y-96.095
X99.166Y-99.802
X99.665Y-120.675
X100.208Y-98.635
X100.311Y-90.135
X101.119Y-121.302
X101.119Y-134.445
X101.799Y-54.213
X101.799Y-60.228
X101.873Y-138.237
X102.019Y-52.199
X102.865Y-147.727
X103.299Y-147.013
X103.547Y-148.625
X103.97Y-132.532
X104.168Y-136.246
X104.184Y-149.45
X104.194Y-122.874
X104.254Y-91.05
X104.277Y-96.88
X104.672Y-54.739
X104.679Y-53.469
X104.84Y-128.738
X104.893Y-59.175
X105.405Y-58.548
X106.01Y-56.648
X106.024Y-129.001
X106.686Y-131.905
X107.751Y-118.599
X107.751Y-126.199
X107.802Y-135.796
X107.802Y-149.2
X108.441Y-100.393
X108.603Y-123.482
X108.605Y-120.675
X109.029Y-130.635
X109.242Y-103.246
X109.484Y-61.089
X109.735Y-134.973
X110.013Y-132.549
X111.249Y-120.661
X111.371Y-119.711
X111.82Y-100.03
X112.199Y-146.146
X112.54Y-78.537
X112.54Y-91.475
X112.685Y-133.801
X112.853Y-147.729
X113.534Y-148.625
X113.662Y-67.713
X113.718Y-128.739
X113.972Y-56.009
X114.008Y-61.071
X114.184Y-149.389
X114.198Y-57.905
X114.615Y-54.741
X114.672Y-96.739
X115.333Y-131.661
X115.481Y-96.529
X115.912Y-97.998
X115.993Y-102.096
X116.337Y-99.27
X116.651Y-87.646
X116.968Y-126.854
X117.136Y-135.794
X117.641Y-100.201
X117.648Y-71.541
X117.802Y-146.8
X118.199Y-134.369
X118.476Y-121.302
X118.778Y-108.948
X118.945Y-126.825
X119.088Y-129.128
X119.16Y-69.951
X120.236Y-62.273
X120.339Y-94.825
X120.576Y-52.825
X120.6Y-106.629
X121.193Y-92.791
X121.287Y-96.681
X121.297Y-103.074
X121.305Y-101.818
X121.611Y-63.539
X121.972Y-128.721
X121.987Y-127.451
X122.249Y-52.187
X122.249Y-65.643
X122.303Y-68.125
X122.337Y-115.372
X123.303Y-132.532
X123.502Y-113.102
X124.122Y-94.332
X124.205Y-95.46
X124.911Y-99.261
X125.943Y-50.571
X126.508Y-93.23
X127.196Y-56.009
X127.196Y-64.982
X128.214Y-126.825
X128.214Y-133.799
X128.382Y-135.788
X129.546Y-128.73
X129.6Y-104.906
X130.256Y-125.555
X130.656Y-134.679
X133.649Y-130.635
X133.701Y-131.896
X134.084Y-54.739
X134.623Y-55.365
X134.764Y-127.93
X135.046Y-98.049
X136.341Y-120.871
X138.109Y-104.345
X138.267Y-123.863
X138.666Y-103.073
X138.964Y-129.362
X139.1Y-106.885
X139.541Y-130.0
X140.384Y-103.075
X140.384Y-115.969
X140.384Y-127.46
X141.026Y-59.067
X144.5Y-133.81
X145.995Y-57.815
X147.923Y-124.175
X148.819Y-126.825
X148.831Y-131.897
X149.284Y-58.54
X149.284Y-64.166
X149.688Y-133.175
X149.688Y-136.626
X151.091Y-80.279
X151.557Y-78.841
X152.221Y-62.902
X153.213Y-56.011
X153.952Y-133.81
X154.022Y-54.739
X154.046Y-56.0
X154.284Y-123.862
X157.234Y-122.158
X157.234Y-130.0
X157.338Y-62.231
X157.604Y-66.451
X157.992Y-119.067
X157.992Y-128.441
X158.005Y-129.373
X158.186Y-138.912
X158.646Y-102.465
X158.816Y-138.237
X158.935Y-52.271
X158.947Y-55.091
X159.195Y-59.166
X159.354Y-99.984
X159.763Y-103.274
X159.995Y-150.179
X161.27Y-147.081
X162.246Y-128.737
X162.663Y-153.999
X162.672Y-156.531
X162.681Y-135.289
X162.691Y-151.451
X162.83Y-94.033
X162.89Y-145.34
X162.931Y-159.659
X163.65Y-141.462
X164.02Y-60.692
X164.662Y-68.78
X164.794Y-157.801
X164.809Y-120.176
X164.809Y-126.199
X164.825Y-130.009
X164.825Y-148.911
X165.073Y-129.071
X165.103Y-131.27
X165.141Y-137.333
X165.17Y-152.721
X165.937Y-99.999
X165.959Y-78.841
X166.695Y-138.774
X166.825Y-127.856
X166.849Y-128.658
X167.177Y-132.549
X167.196Y-133.818
X167.197Y-131.279
X167.31Y-52.831
X167.613Y-60.04
X167.631Y-95.242
X167.642Y-68.153
X167.664Y-98.252
X167.939Y-67.327
X168.075Y-150.891
X168.338Y-94.501
X168.706Y-57.847
X168.833Y-101.12
X168.853Y-97.365
X169.166Y-58.54
X169.321Y-94.181
X169.326Y-148.912
X169.329Y-155.269
X169.329Y-101.802
X169.756Y-129.988
X169.787Y-106.981
X170.031Y-52.825
X170.229Y-132.398
X170.23Y-126.825
X171.984Y-103.071
X171.985Y-156.55
X172.413Y-123.058
X172.426Y-121.715
X172.638Y-115.07
X172.72Y-130.009
X172.859Y-98.573
X172.912Y-150.825
X173.014Y-56.0
X173.093Y-128.73
X173.753Y-121.219
X174.005Y-118.403
X174.158Y-66.038
X174.389Y-126.197
X174.389Y-151.46
X174.988Y-54.456
X175.017Y-138.774
X176.42Y-121.015
X176.618Y-147.081
X176.623Y-60.62
X176.784Y-130.635
X178.044Y-128.095
X180.369Y-135.289
X180.369Y-136.365
X181.085Y-132.536
X181.536Y-130.49
X182.75Y-129.991
X183.029Y-128.592
X183.184Y-127.469
X183.202Y-133.801
X184.703Y-92.733
X185.94Y-129.829
X186.413Y-129.009
X190.617Y-78.992
X194.684Y-120.112
X194.684Y-127.451
X194.684Y-129.992
X195.009Y-34.631
X195.009Y-40.86
X195.175Y-63.001
X196.734Y-72.1
X197.764Y-64.203
X200.502Y-75.9
X200.97Y-128.739
X201.327Y-124.911
X202.0Y-39.135
T3
X56.38Y-39.49
X56.38Y-42.03
X56.38Y-44.57
X56.38Y-47.11
X56.38Y-49.65
X56.38Y-52.19
X56.38Y-54.73
X56.38Y-57.27
X56.38Y-59.81
X56.38Y-62.35
X56.38Y-64.89
X56.38Y-67.43
X56.38Y-69.97
X56.38Y-72.51
X56.38Y-81.49
X56.38Y-84.03
X56.38Y-86.57
X56.38Y-89.11
X56.38Y-91.65
X56.38Y-94.19
X56.38Y-96.73
X56.38Y-99.27
X56.38Y-101.81
X56.38Y-104.35
X56.38Y-106.89
X56.38Y-109.43
X56.38Y-111.97
X56.38Y-114.51
X71.62Y-39.49
X71.62Y-42.03
X71.62Y-44.57
X71.62Y-47.11
X71.62Y-49.65
X71.62Y-52.19
X71.62Y-54.73
X71.62Y-57.27
X71.62Y-59.81
X71.62Y-62.35
X71.62Y-64.89
X71.62Y-67.43
X71.62Y-69.97
X71.62Y-72.51
X71.62Y-81.49
X71.62Y-84.03
X71.62Y-86.57
X71.62Y-89.11
X71.62Y-91.65
X71.62Y-94.19
X71.62Y-96.73
X71.62Y-99.27
X71.62Y-101.81
X71.62Y-104.35
X71.62Y-106.89
X71.62Y-109.43
X71.62Y-111.97
X71.62Y-114.51
X78.38Y-39.49
X78.38Y-42.03
X78.38Y-44.57
X78.38Y-47.11
X78.38Y-49.65
X78.38Y-52.19
X78.38Y-54.73
X78.38Y-57.27
X78.38Y-59.81
X78.38Y-62.35
X78.38Y-64.89
X78.38Y-67.43
X78.38Y-69.97
X78.38Y-72.51
X93.62Y-39.49
X93.62Y-42.03
X93.62Y-44.57
X93.62Y-47.11
X93.62Y-49.65
X93.62Y-52.19
X93.62Y-54.73
X93.62Y-57.27
X93.62Y-59.81
X93.62Y-62.35
X93.62Y-64.89
X93.62Y-67.43
X93.62Y-69.97
X93.62Y-72.51
X134.38Y-84.025
X134.38Y-86.565
X134.38Y-89.105
X134.38Y-91.645
X134.38Y-94.185
X134.38Y-96.725
X134.38Y-99.265
X134.38Y-101.805
X134.38Y-104.345
X134.38Y-106.885
X134.38Y-109.425
X134.38Y-111.965
X149.62Y-84.025
X149.62Y-86.565
X149.62Y-89.105
X149.62Y-91.645
X149.62Y-94.185
X149.62Y-96.725
X149.62Y-99.265
X149.62Y-101.805
X149.62Y-104.345
X149.62Y-106.885
X149.62Y-109.425
X149.62Y-111.965
T4
X106.57Y-162.0
X109.11Y-162.0
X111.65Y-162.0
X114.19Y-162.0
X116.73Y-162.0
X119.27Y-162.0
X121.81Y-162.0
X124.35Y-162.0
X126.89Y-162.0
X129.43Y-162.0
X202.0Y-53.46
X202.0Y-56.0
X202.0Y-58.54
T2
X63.68Y-164.1G85X63.68Y-164.7
G05
X63.68Y-167.9G85X63.68Y-168.5
G05
X72.32Y-164.1G85X72.32Y-164.7
G05
X72.32Y-167.9G85X72.32Y-168.5
G05
M30
